SplineFontDB: 3.0
FontName: CMUSansSerif-BoldOblique
FullName: CMU Sans Serif Bold Extended Oblique
FamilyName: CMU Sans Serif
Weight: Bold
Copyright: Converted by Andrey V. Panov from TeX fonts
UComments: "2009-6-18: Created." 
Version: 0.7.0
ItalicAngle: -12
UnderlinePosition: -100
UnderlineWidth: 50
Ascent: 800
Descent: 200
LayerCount: 2
Layer: 0 0 "+BBcEMAQ0BD0EOAQ5 +BD8EOwQwBD0A"  1
Layer: 1 0 "+BB8ENQRABDUENAQ9BDgEOQAA +BD8EOwQwBD0A"  0
NeedsXUIDChange: 1
XUID: [1067 12119579]
FSType: 0
OS2Version: 0
OS2_WeightWidthSlopeOnly: 0
OS2_UseTypoMetrics: 1
CreationTime: 1245314831
ModificationTime: 1245315567
PfmFamily: 33
TTFWeight: 700
TTFWidth: 5
LineGap: 200
VLineGap: 90
OS2TypoAscent: 0
OS2TypoAOffset: 1
OS2TypoDescent: 0
OS2TypoDOffset: 1
OS2TypoLinegap: 200
OS2WinAscent: 928
OS2WinAOffset: 0
OS2WinDescent: 336
OS2WinDOffset: 0
HheadAscent: 928
HheadAOffset: 0
HheadDescent: -336
HheadDOffset: 0
Lookup: 1 0 0 "Case substitutions"  {"Case substitutions subtable"  } ['case' ('cyrl' <'dflt' > 'grek' <'dflt' > 'latn' <'dflt' > ) ]
Lookup: 3 0 0 "Greek alternatives"  {"Greek alternatives subtable"  } ['salt' ('grek' <'dflt' > ) ]
Lookup: 1 0 0 "Greek substitutions"  {"Greek substitutions subtable"  } ['locl' ('grek' <'dflt' > ) ]
Lookup: 4 0 1 "Latin Dutch ligatures"  {"Latin Dutch ligatures subtable"  } ['liga' ('latn' <'NLD ' > ) ]
Lookup: 4 0 1 "Latin ligatures excepting Turkic"  {"Latin ligatures excepting Turkic subtable"  } ['liga' ('latn' <'dflt' 'NLD ' 'VIT ' > ) ]
Lookup: 4 0 1 "Latin ligatures"  {"Latin ligatures subtable"  } ['liga' ('latn' <'dflt' 'NLD ' 'VIT ' 'TRK ' 'AZE ' > ) ]
Lookup: 4 0 1 "Cyrillic ligatures"  {"Cyrillic ligatures subtable"  } ['liga' ('cyrl' <'dflt' 'MKD ' 'SRB ' > ) ]
Lookup: 3 0 0 "Latin alternatives"  {"Latin alternatives subtable"  } ['salt' ('latn' <'dflt' > ) ]
Lookup: 3 0 0 "Stilistic set 01"  {"Stilistic set 01 subtable"  } ['ss01' ('latn' <'dflt' > 'grek' <'dflt' > 'cyrl' <'dflt' > ) ]

StartChar: .notdef
Encoding: 0 0 0
Width: 760
Flags: HW
HStem: 10 60<105 655> 705 60<105 655>
VStem: 10 60<112 663> 690 60<112 663>
DStem2: 105 705 70 663 0.702289 -0.711892<5.31938 389.612 448.699 832.991> 70 112 105 70 0.702289 0.711892<0 384.292 443.379 827.672>
LayerCount: 2
Fore
SplineSet
10 10 m 1
 10 765 l 1
 750 765 l 1
 750 10 l 1
 10 10 l 1
70 112 m 1
 346 388 l 1
 70 663 l 1
 70 112 l 1
105 70 m 1
 655 70 l 1
 380 346 l 1
 105 70 l 1
105 705 m 1
 380 429 l 1
 655 705 l 1
 105 705 l 1
414 388 m 1
 690 112 l 1
 690 663 l 1
 414 388 l 1
EndSplineSet
EndChar

StartChar: uni262D
Encoding: 9773 9773 1
Width: 700
Flags: HW
TeX: 117 0
HStem: -1 21G<56 93 593.5 601> 39 76<321.786 462.78> 102 51<140.549 177.987>
VStem: 129 54<101.776 137.734> 556 82<197.341 366.709>
DStem2: 123 357 178 301 0.707107 0.707107<0 86.9741 130.108 182.434>
LayerCount: 2
Fore
SplineSet
40 18 m 0
 40 64 129 102 129 128 c 0
 129 148 134 153 148 153 c 0xb8
 162 153 164 157 182 180 c 1
 229 156 307 115 390 115 c 0
 438 115 463 128 463 129 c 0
 463 135 406 186 240 363 c 1
 178 301 l 1
 123 357 l 1
 252 486 l 1
 347 470 l 1
 271 393 l 1
 484 190 l 1
 513 165 l 1
 519 165 556 218 556 295 c 0
 556 473 346 588 346 593 c 1
 394 593 638 478 638 267 c 0
 638 167 592 118 580 100 c 1
 636 44 637 42 637 38 c 0xd8
 637 17 605 -1 597 -1 c 2
 596 -1 l 2
 591 -1 590 1 529 62 c 1
 500 51 474 39 428 39 c 0xd8
 297 39 201 138 188 138 c 0
 183 138 182 134 182 130 c 0
 182 126 183 123 183 118 c 0
 183 108 178 102 168 102 c 0
 131 102 122 0 64 -0 c 0
 48 0 40 7 40 18 c 0
EndSplineSet
EndChar

StartChar: longs
Encoding: 383 383 2
Width: 336
Flags: HW
TeX: 108 0
HStem: 0 21G<125.5 190> 660 74<367.025 476.155>
DStem2: 84.6717 0 219.498 0 0.207912 0.978148<36.2428 672.599>
AnchorPoint: "above" 436 722 basechar 0
AnchorPoint: "below" 151 0 basechar 0
LayerCount: 2
Fore
SplineSet
93 35 m 0
 93 41 95 48 97 58 c 2
 196 523 l 2
 207 578 228 734 439 734 c 1
 490 730 526 734 531 707 c 0
 531 702 530 698 519 649 c 0
 517 639 514 623 503 623 c 0
 471 623 482 660 422 660 c 0
 405 660 375 656 356 627 c 0
 343 607 339 576 314 458 c 2
 228 40 l 2
 220 1 203 0 177 0 c 2
 143 0 l 2
 108 0 108 7 102 13 c 1
 96 22 93 26 93 35 c 0
EndSplineSet
EndChar

StartChar: florin
Encoding: 402 402 3
Width: 660
Flags: HW
TeX: 102 0
HStem: -206 85<43.5438 171.387> 385 73<242.814 286 434 520.302> 662 72<488.065 599.716>
DStem2: 159.817 -206 295.653 -206 0.207912 0.978148<96.6131 604.32 706.496 884.224>
LayerCount: 2
Fore
SplineSet
10 -158 m 1
 12 -150 27 -101 44 -100 c 0
 57 -100 70 -121 114 -121 c 0
 145 -121 181 -108 190 -64 c 2
 286 385 l 1
 247 385 240 407 240 422 c 0
 240 436 247 458 286 458 c 2
 302 458 l 1
 327 584 334 625 380 672 c 0
 427 720 500 734 558 734 c 1
 609 730 645 734 650 707 c 0
 650 702 649 698 638 649 c 0
 636 639 636 623 620 623 c 1
 614 625 l 1
 603 644 572 662 540 662 c 0
 517 662 494 652 476 627 c 1
 463 607 459 576 434 458 c 1
 481 458 l 2
 505 458 520 451 524 422 c 1
 524 392 500 385 472 385 c 2
 422 385 l 1
 332 -35 l 2
 317 -101 283 -206 146 -206 c 0
 88 -206 11 -180 10 -158 c 1
EndSplineSet
EndChar

StartChar: epsilon
Encoding: 949 949 4
Width: 473
Flags: HW
TeX: 101 0
HStem: -11 116<290.905 410> 191 91<241 391> 353 116<345.234 487>
AnchorPoint: "above" 512 474 basechar 0
LayerCount: 2
Fore
SplineSet
90 191 m 0
 90 353 274 469 511 469 c 1
 487 353 l 1
 321 353 271 314 241 282 c 1
 410 282 l 1
 391 191 l 1
 217 191 l 1
 236 134 305 106 434 105 c 1
 410 -11 l 1
 229 -11 90 65 90 191 c 0
EndSplineSet
EndChar

StartChar: circumflex.cap
Encoding: 65536 -1 5
Width: 550
Flags: HW
HStem: 735 179<522.384 574.86>
AnchorPoint: "above" 427 716 mark 0
LayerCount: 2
Fore
SplineSet
261 747 m 0
 261 756 266 760 399 896 c 0
 414 911 415 914 432 914 c 2
 553 914 l 1
 570 913 572 907 575 895 c 0
 575 894 606 756 606 749 c 0
 606 735 601 736 580 735 c 1
 557 735 l 2
 534 735 539 741 454 834 c 1
 324 735 330 735 311 735 c 2
 279 735 l 1
 265 736 261 742 261 747 c 0
EndSplineSet
EndChar

StartChar: dieresis.cap
Encoding: 65537 -1 6
Width: 550
Flags: HW
HStem: 760 142<286.473 401.387 499.343 617.284>
VStem: 266 157<777.606 882.442> 480 156<776.312 884.843>
AnchorPoint: "above" 427 716 mark 0
LayerCount: 2
Fore
SplineSet
266 796 m 0
 266 803 280 872 286 883 c 0
 296 901 312 902 321 902 c 2
 378 902 l 2
 419 902 423 875 423 866 c 0
 423 861 410 789 402 777 c 0
 389 758 371 761 363 760 c 1
 311 760 l 2
 270 760 266 788 266 796 c 0
480 793 m 0
 480 802 484 819 492 857 c 0
 503 910 526 900 540 902 c 1
 592 902 l 2
 633 902 636 874 636 866 c 0
 636 857 629 826 625 806 c 0
 613 752 591 762 577 760 c 1
 521 760 l 2
 489 760 480 783 480 793 c 0
EndSplineSet
EndChar

StartChar: dotaccent.cap
Encoding: 65538 -1 7
Width: 550
Flags: HW
HStem: 766 143<394.517 512.483>
VStem: 376 155<781.159 894.269>
AnchorPoint: "above" 428 716 mark 0
LayerCount: 2
Fore
SplineSet
376 803 m 0
 376 814 379 826 386 859 c 0
 393 892 397 909 438 909 c 2
 487 909 l 2
 526 909 531 884 531 872 c 0
 531 862 522 822 518 804 c 0
 514 788 509 766 473 766 c 2
 420 766 l 2
 381 766 376 792 376 803 c 0
EndSplineSet
EndChar

StartChar: caron.cap
Encoding: 65539 -1 8
Width: 550
Flags: HW
HStem: 735 167
AnchorPoint: "above" 428 716 mark 0
LayerCount: 2
Fore
SplineSet
286 891 m 1
 289 897 290 902 305 902 c 2
 335 902 l 2
 358 902 354 897 446 810 c 1
 575 899 576 902 591 902 c 2
 620 902 l 2
 632 902 643 902 643 890 c 0
 643 881 644 884 500 748 c 0
 487 736 483 735 471 735 c 2
 397 735 l 2
 384 735 379 737 370 751 c 0
 282 890 292 872 286 891 c 1
EndSplineSet
EndChar

StartChar: ring.cap
Encoding: 65540 -1 9
Width: 550
Flags: HW
HStem: 662 73<381.527 491.077> 830 72<392.625 503.467>
VStem: 315 64<738.107 818.031> 505 63<746.372 826.361>
AnchorPoint: "above" 427 716 mark 0
LayerCount: 2
Fore
SplineSet
315 745 m 0
 315 805 346 902 468 902 c 0
 532 902 568 876 568 820 c 0
 568 770 545 667 426 662 c 1
 409 662 l 1
 364 664 315 679 315 745 c 0
379 765 m 0
 379 735 406 735 429 735 c 0
 456 736 505 732 505 800 c 0
 505 830 478 829 456 830 c 1
 448 830 l 2
 410 830 379 818 379 765 c 0
EndSplineSet
EndChar

StartChar: breve.cap
Encoding: 65541 -1 10
Width: 550
Flags: HW
HStem: 735 94<344.614 554.07>
VStem: 268 74<837.338 898.204>
AnchorPoint: "above" 427 716 mark 0
LayerCount: 2
Fore
SplineSet
268 850 m 0
 268 893 291 902 306 902 c 0
 318 902 342 894 342 863 c 0
 342 850 338 829 444 829 c 0
 579 829 571 869 581 885 c 0
 588 896 600 902 612 902 c 0
 629 902 648 888 648 866 c 0
 648 830 599 735 439 735 c 0
 334 735 268 781 268 850 c 0
EndSplineSet
EndChar

StartChar: uni026A
Encoding: 618 618 11
Width: 280
Flags: HW
HStem: 0 73<56.125 89 223 240.935> 385 73<136.99 155 289 322.079>
VStem: 49 280
DStem2: 73.4834 0 207.483 0 0.207912 0.978148<102.491 393.535>
AnchorPoint: "affricate-below" 239 -195 basechar 0
AnchorPoint: "affricate-above" 433 722 basechar 0
AnchorPoint: "below" 140 0 basechar 0
AnchorPoint: "above" 241 474 basechar 0
LayerCount: 2
Fore
SplineSet
49 25 m 0
 49 37 57 73 89 73 c 1
 155 385 l 1
 136 385 131 398 131 411 c 0
 131 428 138 458 182 458 c 2
 292 458 l 2
 321 458 329 446 329 432 c 0
 329 421 321 385 289 385 c 1
 223 73 l 1
 242 73 247 60 247 47 c 0
 247 30 240 0 195 0 c 2
 85 0 l 2
 56 0 49 11 49 25 c 0
EndSplineSet
EndChar

StartChar: grave
Encoding: 96 96 12
Width: 550
Flags: HW
TeX: 666 0
HStem: 528 151<367.584 390.758>
VStem: 249 205
LayerCount: 2
Fore
SplineSet
249 665 m 0
 250 678 261 679 270 679 c 2
 363 679 l 1
 383 678 377 683 450 555 c 1
 454 545 l 1
 455 541 l 1
 453 531 448 528 436 528 c 2
 401 528 l 2
 387 528 386 534 264 646 c 0
 252 657 249 661 249 665 c 0
EndSplineSet
EndChar

StartChar: acute
Encoding: 180 180 13
Width: 550
Flags: HW
TeX: 666 0
ItalicCorrection: 80
HStem: 528 151
VStem: 323 259
LayerCount: 2
Fore
SplineSet
323 540 m 0
 323 547 329 553 353 577 c 0
 454 678 449 679 469 679 c 2
 557 679 l 2
 577 679 579 676 582 669 c 1
 582 664 l 1
 580 655 584 660 405 541 c 0
 388 530 386 528 373 528 c 2
 344 528 l 2
 337 528 323 528 323 540 c 0
EndSplineSet
EndChar

StartChar: circumflex
Encoding: 710 710 14
Width: 550
Flags: HW
TeX: 666 0
HStem: 528 149
LayerCount: 2
Fore
SplineSet
218 541 m 0
 218 547 222 552 229 558 c 0
 367 678 361 677 381 677 c 2
 454 677 l 2
 471 677 470 673 551 562 c 0
 562 546 562 544 562 540 c 0
 562 527 548 529 537 528 c 1
 512 528 l 2
 494 528 497 528 406 608 c 1
 280 528 285 528 265 528 c 2
 242 528 l 2
 230 528 218 528 218 541 c 0
EndSplineSet
EndChar

StartChar: tilde
Encoding: 732 732 15
Width: 550
Flags: HW
TeX: 666 0
ItalicCorrection: 80
HStem: 542 73<429.68 514.232> 593 73<291.458 376.852>
VStem: 210 386<557 653>
LayerCount: 2
Fore
SplineSet
210 557 m 0
 210 584 257 666 342 666 c 0x60
 417 666 439 615 476 615 c 2
 477 615 l 1xa0
 508 616 521 646 523 651 c 0
 528 664 532 666 546 666 c 2x60
 576 666 l 2x60
 592 666 596 661 596 653 c 0
 596 623 549 542 464 542 c 0xa0
 389 542 367 593 330 593 c 0x60
 293 593 283 553 277 547 c 0
 272 543 266 542 260 542 c 2
 232 542 l 2xa0
 223 542 210 542 210 557 c 0
EndSplineSet
EndChar

StartChar: dieresis
Encoding: 168 168 16
Width: 550
Flags: HW
TeX: 694 0
ItalicCorrection: 80
HStem: 552 142<240.541 356.432 454.76 570.432>
VStem: 221 157<569.606 677.542> 435 156<569.606 677.291>
LayerCount: 2
Fore
SplineSet
221 588 m 0
 221 595 235 664 241 675 c 0
 252 694 269 693 281 694 c 1
 333 694 l 2
 373 694 378 668 378 658 c 0
 378 653 365 581 357 569 c 0
 345 551 326 552 318 552 c 2
 266 552 l 2
 225 552 221 579 221 588 c 0
435 588 m 0
 435 602 441 620 447 649 c 0
 457 694 471 694 493 694 c 0
 511 694 529 694 547 694 c 0
 587 694 591 669 591 657 c 0
 591 653 579 581 571 569 c 0
 559 551 540 552 532 552 c 2
 480 552 l 2
 442 552 435 573 435 588 c 0
EndSplineSet
EndChar

StartChar: ring
Encoding: 730 730 18
Width: 792
Flags: HW
TeX: 666 0
HStem: 493 35<460.046 563.048> 631 35<473.415 578.263>
VStem: 394 61<531.026 616.471> 582 61<542.723 627.979>
LayerCount: 2
Fore
SplineSet
394 560 m 0
 394 602 419 666 540 666 c 0
 597 666 643 651 643 599 c 0
 643 564 626 493 498 493 c 0
 441 493 394 508 394 560 c 0
455 561 m 0
 455 530 482 528 506 528 c 2
 513 528 l 2
 529 528 556 530 570 554 c 0
 579 569 582 593 582 598 c 0
 582 630 553 631 531 631 c 0
 504 631 455 629 455 561 c 0
EndSplineSet
EndChar

StartChar: caron
Encoding: 711 711 19
Width: 550
Flags: HW
TeX: 666 0
HStem: 617 34<288.346 542.671>
LayerCount: 2
Fore
SplineSet
242 653 m 1
 243 662 248 666 262 666 c 2
 287 666 l 1
 324 665 398 651 410 651 c 0
 441 651 473 666 558 666 c 2
 565 666 l 2
 577 666 582 663 585 657 c 1
 585 654 l 1
 583 642 589 641 455 617 c 1
 381 617 l 1
 361 618 l 1
 245 643 247 640 242 653 c 1
EndSplineSet
EndChar

StartChar: breve
Encoding: 728 728 20
Width: 550
Flags: HW
TeX: 666 0
ItalicCorrection: 86
HStem: 553 94<286.782 557.184>
LayerCount: 2
Fore
SplineSet
219 625 m 0
 219 649 236 666 256 666 c 0
 270 666 277 659 285 652 c 1
 323 647 362 647 401 647 c 2
 426 647 l 2
 529 647 524 651 549 664 c 0
 553 666 557 666 561 666 c 0
 580 666 597 651 597 630 c 0
 597 617 588 579 529 563 c 0
 495 554 456 553 415 553 c 0
 404 553 393 553 382 553 c 0
 318 553 219 556 219 625 c 0
EndSplineSet
EndChar

StartChar: macron
Encoding: 175 175 21
Width: 550
Flags: HW
TeX: 694 0
ItalicCorrection: 101
HStem: 631 85<223.39 612.371>
LayerCount: 2
Fore
SplineSet
215 645 m 0
 215 655 218 671 224 698 c 0
 228 716 239 716 248 716 c 2
 602 716 l 2
 614 716 622 713 622 701 c 0
 622 696 620 691 612 651 c 0
 608 632 602 632 590 631 c 1
 234 631 l 2
 220 631 215 634 215 645 c 0
EndSplineSet
EndChar

StartChar: dotaccent
Encoding: 729 729 22
Width: 305
Flags: HW
TeX: 720 0
ItalicCorrection: 102
HStem: 580 143<246.716 362.432>
VStem: 228 156<597.652 708.097>
LayerCount: 2
Fore
SplineSet
228 617 m 0
 228 624 241 693 247 704 c 0
 258 723 275 722 288 723 c 1
 305 723 322 723 339 723 c 0
 380 723 384 696 384 687 c 0
 384 682 372 610 363 597 c 0
 351 580 332 580 324 580 c 2
 272 580 l 2
 231 580 228 608 228 617 c 0
EndSplineSet
EndChar

StartChar: cedilla
Encoding: 184 184 23
Width: 489
Flags: HW
TeX: 0 170
HStem: -192 169
VStem: 79 192
LayerCount: 2
Fore
SplineSet
79 -179 m 0
 79 -171 86 -164 106 -141 c 0
 206 -23 202 -23 221 -23 c 2
 248 -23 l 2
 257 -23 271 -23 271 -36 c 0
 271 -45 263 -55 258 -63 c 0
 173 -198 181 -192 160 -192 c 2
 98 -192 l 2
 87 -192 79 -190 79 -179 c 0
EndSplineSet
EndChar

StartChar: ogonek
Encoding: 731 731 24
Width: 305
Flags: HW
TeX: 0 194
HStem: -196 99<21 133.337> -36 108<163.002 207>
VStem: -61 296<-110.163 -98.2217>
LayerCount: 2
Fore
SplineSet
-61 -102 m 0
 -61 -77 -49 -11 59 22 c 0
 138 46 140 45 157 56 c 0
 167 62 177 72 191 72 c 0
 212 72 227 53 227 35 c 0
 227 -12 114 -33 78 -93 c 1
 80 -94 86 -97 96 -97 c 0
 145 -97 165 -36 199 -36 c 0
 207 -36 232 -39 235 -74 c 1
 233 -103 147 -196 51 -196 c 0
 -9 -196 -61 -158 -61 -102 c 0
EndSplineSet
EndChar

StartChar: guilsinglleft
Encoding: 8249 8249 26
Width: 489
Flags: HW
TeX: 499 0
ItalicCorrection: 45
HStem: -0 21G<311 355>
VStem: 176 292
LayerCount: 2
Fore
SplineSet
176 249 m 0
 176 254 177 257 193 275 c 2
 392 487 l 2
 400 495 402 500 419 500 c 2
 448 500 l 2
 459 500 468 498 468 488 c 0
 468 483 472 485 312 248 c 1
 365 27 367 19 367 14 c 0
 367 6 363 0 347 -0 c 2
 321 -0 l 2
 301 0 300 4 293 15 c 1
 179 239 176 243 176 249 c 0
EndSplineSet
EndChar

StartChar: guilsinglright
Encoding: 8250 8250 27
Width: 489
Flags: HW
TeX: 499 0
ItalicCorrection: 45
HStem: 0 21G<143.5 180.5>
VStem: 279 138<220.859 297.971>
LayerCount: 2
Fore
SplineSet
126 13 m 0
 126 19 129 24 132 29 c 2
 271 237 l 2
 278 247 279 251 279 256 c 0
 279 269 227 470 227 486 c 0
 227 495 231 500 246 500 c 2
 275 500 l 2
 297 500 296 491 306 474 c 1
 415 261 417 257 417 251 c 0
 417 243 410 237 405 231 c 2
 205 17 l 2
 189 0 187 1 174 0 c 1
 147 0 l 2
 140 0 126 0 126 13 c 0
EndSplineSet
EndChar

StartChar: endash
Encoding: 8211 8211 33
Width: 550
Flags: HW
TeX: 458 0
ItalicCorrection: 90
HStem: 247 73<64.0815 605.919>
LayerCount: 2
Fore
SplineSet
61 283 m 0
 61 293 65 320 106 320 c 2
 565 320 l 2
 605 320 609 293 609 284 c 0
 609 274 605 247 564 247 c 2
 104 247 l 2
 65 247 61 274 61 283 c 0
EndSplineSet
EndChar

StartChar: emdash
Encoding: 8212 8212 34
Width: 1100
Flags: HW
TeX: 458 0
ItalicCorrection: 90
HStem: 247 73<64.3109 1156.01>
LayerCount: 2
Fore
SplineSet
61 283 m 0
 61 322 103 320 106 320 c 2
 1112 320 l 2
 1152 320 1159 298 1159 283 c 0
 1159 271 1154 247 1114 247 c 2
 104 247 l 2
 66 247 61 274 61 283 c 0
EndSplineSet
Substitution2: "Cyrillic substitutions subtable" emdash.cyr
AlternateSubs2: "Cyrillic alternatives subtable" emdash.cyr
EndChar

StartChar: dotlessi
Encoding: 305 305 36
Width: 255
Flags: HW
TeX: 458 0
ItalicCorrection: 68
HStem: -0 21G<92 165> 438 20G<184.5 258>
VStem: 68 135<4.23438 72.9091> 148 135<385.182 454.062>
AnchorPoint: "below" 126 0 basechar 0
AnchorPoint: "above" 227 474 basechar 0
LayerCount: 2
Fore
SplineSet
68 37 m 0xe0
 68 44 70 52 71 57 c 2
 148 418 l 1
 159 459 173 457 196 458 c 1
 238 458 l 2
 278 458 283 434 283 422 c 0xd0
 283 415 281 409 280 402 c 2
 203 40 l 2
 194 -1 174 1 156 -0 c 1xe0
 112 -0 l 2
 72 0 68 26 68 37 c 0xe0
EndSplineSet
EndChar

StartChar: dotlessj
Encoding: 567 567 37
Width: 286
Flags: HW
TeX: 458 194
ItalicCorrection: 68
HStem: -206 86<-67.4383 57.6955> 438 20G<218 289.5>
DStem2: 47.1891 -206 182.653 -206 0.207912 0.978148<93.4769 669.683>
AnchorPoint: "below" 72 -195 basechar 0
AnchorPoint: "above" 259 474 basechar 0
LayerCount: 2
Fore
SplineSet
-103 -158 m 0
 -103 -152 -78 -100 -65 -100 c 0
 -52 -100 -36 -120 4 -120 c 0
 74 -120 77 -67 88 -14 c 2
 180 420 l 2
 189 460 209 457 227 458 c 1
 274 458 l 2
 305 458 315 436 315 422 c 0
 315 416 313 411 312 405 c 2
 219 -35 l 1
 198 -123 154 -206 34 -206 c 0
 -31 -206 -103 -177 -103 -158 c 0
EndSplineSet
EndChar

StartChar: ff
Encoding: 64256 64256 38
Width: 642
Flags: HW
TeX: 720 0
ItalicCorrection: 229
HStem: -0 21G<118 200.5 423.5 501> 385 73<122.814 166 314 400.965 619 705.965> 660 73<367.205 482.707 671.487 788.038>
VStem: 93 135<4.30115 72.6351>
DStem2: 84.1657 0 220.166 0 0.207912 0.978148<103.126 393.601 495.777 669.916> 389.726 0 524.285 0 0.207912 0.978148<37.4174 421.761 495.66 672.943>
LayerCount: 2
Fore
SplineSet
399 36 m 0
 399 42 400 49 401 56 c 2
 479 420 l 2
 508 551 511 569 516 585 c 0
 553 705 650 733 741 733 c 0
 789 733 813 726 821 724 c 0
 829 722 836 717 836 707 c 0
 836 701 832 684 825 649 c 0
 822 636 821 626 809 623 c 1
 806 623 l 1
 799 625 l 1
 786 642 772 660 730 660 c 0
 651 660 651 611 619 458 c 1
 665 458 l 2
 678 458 709 456 709 422 c 0
 709 412 705 385 665 385 c 2
 607 385 l 1
 533 41 l 2
 526 8 515 0 487 -0 c 0
 472 0 457 0 442 -0 c 0
 405 0 399 24 399 36 c 0
EndSplineSet
Refer: 113 102 S 1 0 0 1 0 0 2
Ligature2: "Latin ligatures subtable" f f
EndChar

StartChar: fi
Encoding: 64257 64257 39
Width: 586
Flags: HW
TeX: 720 0
ItalicCorrection: 121
HStem: -0 21G<118 200.5 422 495> 385 73<121.881 166 314 408.625> 438 20<514.5 588> 586 137<539.25 652.481> 660 73<360.569 427.297>
VStem: 93 135<4.30115 72.6351> 398 135<4.23438 72.9091> 478 135<385.182 454.062> 521 150<606.691 706.673>
DStem2: 84.1657 0 220.166 0 0.207912 0.978148<98.0699 393.601 495.777 680.05>
LayerCount: 2
Fore
SplineSet
93 36 m 0
 93 43 93 37 166 385 c 1
 149 385 119 388 119 422 c 0
 119 436 126 458 165 458 c 2xcc
 183 458 l 1xa4
 206 569 219 733 400 733 c 2
 401 733 l 2
 409 733 473 732 473 707 c 0
 473 704 463 659 458 634 c 0
 455 623 452 621 450 619 c 0
 448 618 446 618 444 618 c 0
 425 618 436 660 393 660 c 0
 349 660 343 596 314 458 c 1
 332 458 350 458 368 458 c 0
 408 458 412 431 412 422 c 0
 412 412 407 385 368 385 c 2
 302 385 l 1xcc
 228 40 l 2
 224 20 218 0 183 -0 c 0
 168 0 153 0 138 -0 c 0
 98 0 93 26 93 36 c 0
521 624 m 0
 521 632 524 642 531 675 c 0
 541 721 554 723 580 723 c 2
 622 723 l 2
 644 723 651 722 664 707 c 1
 668 700 671 695 671 686 c 0x9480
 671 682 660 620 653 606 c 0
 642 587 626 587 613 586 c 1x95
 568 586 l 2
 554 586 521 587 521 624 c 0
EndSplineSet
Refer: 36 305 S 1 0 0 1 330 -0 2
Ligature2: "Latin ligatures excepting Turkic subtable" f i
EndChar

StartChar: fl
Encoding: 64258 64258 40
Width: 586
Flags: HW
TeX: 720 0
ItalicCorrection: 124
HStem: -0 21G<117 201 437 497> 385 73<121.881 166 314 408.625> 660 73<360.15 428.393> 702 20G<568.5 643.5>
VStem: 93 135<4.47432 72.6351>
DStem2: 84.1657 0 220.166 0 0.207912 0.978148<98.0699 393.601 495.777 678.863> 389.734 0 525.222 0 0.207912 0.978148<37.4143 728.842>
LayerCount: 2
Fore
SplineSet
93 36 m 0
 93 43 93 37 166 385 c 1
 149 385 119 388 119 422 c 0
 119 436 126 458 165 458 c 2
 183 458 l 1
 205 562 217 733 401 733 c 0
 431 733 473 728 473 706 c 0
 473 699 469 688 461 649 c 0
 458 636 458 626 446 623 c 1
 443 623 l 1
 436 625 l 1
 428 641 420 660 393 660 c 0xe8
 348 660 343 596 314 458 c 1
 332 458 350 458 368 458 c 0
 408 458 412 431 412 422 c 0
 412 412 407 385 368 385 c 2
 302 385 l 1
 228 40 l 2
 224 21 219 0 183 -0 c 2
 137 -0 l 2
 97 0 93 26 93 36 c 0
399 36 m 0
 399 42 400 47 401 53 c 2
 533 676 l 2
 543 722 557 722 580 722 c 2xd8
 629 722 l 2
 658 722 669 703 669 686 c 0
 669 681 668 675 667 670 c 2
 535 46 l 2
 525 -1 509 1 485 0 c 1
 443 0 l 2
 431 0 399 1 399 36 c 0
EndSplineSet
Ligature2: "Latin ligatures subtable" f l
EndChar

StartChar: ffi
Encoding: 64259 64259 41
Width: 891
Flags: HW
TeX: 720 0
ItalicCorrection: 121
HStem: -0 21G<118 200.5 425 505.5 727 800> 385 73<121.881 166 314 408.625 619 714.625> 438 20<819.5 893> 586 137<845.669 957.481> 660 73<364.18 453.967 666.261 733.286>
VStem: 93 135<4.30115 72.6351> 703 135<4.23438 72.9091> 783 135<385.182 454.062> 827 149<606.691 706.673>
DStem2: 84.1657 0 220.166 0 0.207912 0.978148<98.0699 393.601 495.777 675.722> 389.726 0 525.166 0 0.207912 0.978148<37.4625 421.761 495.66 679.003>
LayerCount: 2
Fore
SplineSet
93 36 m 0
 93 43 93 37 166 385 c 1
 149 385 119 388 119 422 c 0
 119 436 126 458 165 458 c 2xcc
 183 458 l 1xa4
 206 568 216 733 417 733 c 0
 444 733 484 727 495 719 c 0
 499 716 500 712 500 707 c 0
 500 701 498 695 488 649 c 0
 485 636 485 626 473 623 c 1
 470 623 l 1
 463 625 l 1
 452 643 441 660 408 660 c 0
 346 660 343 596 314 458 c 1
 332 458 350 458 368 458 c 0
 408 458 412 431 412 422 c 0
 412 412 407 385 368 385 c 2
 302 385 l 1
 228 40 l 2
 224 20 218 0 183 -0 c 0
 168 0 153 0 138 -0 c 0
 98 0 93 26 93 36 c 0
399 36 m 0
 399 43 400 50 402 57 c 2
 479 420 l 2
 512 572 522 733 707 733 c 0
 763 733 779 724 779 710 c 0
 779 702 767 645 762 629 c 0
 760 625 758 623 754 621 c 1
 750 621 l 1
 731 626 737 660 699 660 c 0
 655 660 649 600 619 458 c 1
 674 458 l 2
 714 458 718 431 718 422 c 0
 718 412 713 385 674 385 c 2
 607 385 l 1xcc
 533 39 l 2
 528 16 522 0 489 -0 c 2
 444 -0 l 2
 406 0 399 22 399 36 c 0
827 624 m 0
 827 632 830 642 837 675 c 0
 847 721 860 723 886 723 c 2
 927 723 l 2
 949 723 956 722 969 707 c 1
 973 700 976 695 976 686 c 0x9480
 976 682 965 620 958 606 c 0
 947 587 931 587 918 586 c 1x95
 873 586 l 2
 859 586 827 587 827 624 c 0
EndSplineSet
Refer: 36 305 S 1 0 0 1 635 -0 2
Ligature2: "Latin ligatures excepting Turkic subtable" ff i
Ligature2: "Latin ligatures excepting Turkic subtable" f f i
EndChar

StartChar: ffl
Encoding: 64260 64260 42
Width: 891
Flags: HW
TeX: 720 0
ItalicCorrection: 124
HStem: -0 21G<118 201 423 498 742 803> 385 73<121.881 166 314 408.625 619 714.625> 660 73<364.18 453.967 665.288 734.804> 702 20G<874.5 948.5>
VStem: 93 135<4.47432 72.6351>
DStem2: 84.1657 -0 220.166 -0 0.207912 0.978148<98.0699 393.601 495.777 675.722> 389.726 -0 525.498 -0 0.207912 0.978148<37.4174 421.761 495.66 679.992> 694.734 -0 830.222 -0 0.207912 0.978148<37.4143 729.05>
LayerCount: 2
Fore
SplineSet
93 36 m 0
 93 43 93 37 166 385 c 1
 149 385 119 388 119 422 c 0
 119 436 126 458 165 458 c 2
 183 458 l 1
 206 568 216 733 417 733 c 0
 444 733 484 727 495 719 c 0
 499 716 500 712 500 707 c 0
 500 701 498 695 488 649 c 0
 485 636 485 626 473 623 c 1
 470 623 l 1
 463 625 l 1
 452 643 441 660 408 660 c 0
 346 660 343 596 314 458 c 1
 332 458 350 458 368 458 c 0
 408 458 412 431 412 422 c 0
 412 412 407 385 368 385 c 2
 302 385 l 1
 228 40 l 2
 224 21 219 0 183 -0 c 0
 168 0 153 0 138 -0 c 0
 98 0 93 26 93 36 c 0
399 36 m 0
 399 42 400 49 401 55 c 2
 479 420 l 2
 512 573 515 598 536 636 c 0
 556 674 604 733 705 733 c 0
 734 733 778 728 778 707 c 0
 778 704 767 638 760 628 c 1
 755 624 l 1
 747 622 750 622 742 625 c 1
 734 641 726 660 699 660 c 0xe8
 654 660 648 596 619 458 c 1
 674 458 l 2
 714 458 718 431 718 422 c 0
 718 412 713 385 674 385 c 2
 607 385 l 1
 534 40 l 2
 526 3 509 0 487 -0 c 0
 472 0 457 0 442 -0 c 0
 404 0 399 26 399 36 c 0
704 36 m 0
 704 42 705 47 706 53 c 2
 839 676 l 2
 849 722 863 722 886 722 c 2
 934 722 l 2
 963 722 975 703 975 686 c 0
 975 681 974 675 973 670 c 2
 840 46 l 2
 830 -1 815 1 791 -0 c 1xd8
 748 -0 l 2
 736 0 704 1 704 36 c 0
EndSplineSet
Ligature2: "Latin ligatures subtable" ff l
Ligature2: "Latin ligatures subtable" f f l
EndChar

StartChar: uni2423
Encoding: 9251 9251 43
Width: 550
Flags: HW
TeX: 458 97
ItalicCorrection: 37
HStem: -123 51<81 437>
DStem2: 18.9856 -123 70.1596 -123 0.207912 0.978148<62.779 395.476> 426.16 -123 476.86 -123 0.207912 0.978148<52.1394 396.327>
LayerCount: 2
Fore
SplineSet
25 -101 m 0
 25 -97 25 -94 26 -90 c 2
 96 238 l 2
 96 240 101 275 129 275 c 0
 137 275 149 270 149 254 c 0
 149 247 148 245 145 230 c 2
 81 -72 l 1
 437 -72 l 1
 502 236 l 2
 503 239 507 275 536 275 c 0
 546 275 556 267 556 255 c 0
 556 246 555 243 551 226 c 2
 486 -80 l 2
 481 -102 478 -123 444 -123 c 2
 53 -123 l 2
 46 -123 25 -123 25 -101 c 0
EndSplineSet
EndChar

StartChar: exclam
Encoding: 33 33 44
Width: 367
Flags: HW
TeX: 720 0
ItalicCorrection: 65
HStem: 0 131<149.5 227 183 211> 207 20 722 -20
VStem: 125 273<36 708>
LayerCount: 2
Fore
SplineSet
125 36 m 0
 125 39 125 43 126 48 c 2
 138 98 l 2
 145 128 164 131 183 131 c 2
 227 131 l 2
 259 131 268 109 268 94 c 0
 268 90 267 85 266 80 c 2
 257 38 l 2
 250 4 232 0 211 0 c 2
 170 0 l 2
 129 0 125 27 125 36 c 0
175 210 m 0
 175 216 178 225 179 233 c 2
 266 702 l 2
 270 721 279 722 290 722 c 2
 376 722 l 2
 384 722 398 722 398 708 c 0
 398 702 395 693 394 685 c 2
 281 215 l 2
 276 196 270 196 258 195 c 2
 198 195 l 2
 180 195 175 201 175 210 c 0
EndSplineSet
EndChar

StartChar: quotedbl
Encoding: 34 34 45
Width: 550
Flags: HW
TeX: 720 0
ItalicCorrection: 68
HStem: 702 20G<275.5 385.163 466.5 569.5>
VStem: 230 69<378 408.766> 263 137<634.531 721.921> 448 137<638.125 718.861>
LayerCount: 2
Fore
SplineSet
230 394 m 0xd0
 230 399 231 404 231 409 c 2
 263 692 l 2
 266 710 263 722 288 722 c 2
 375 722 l 2
 395 722 395 719 400 713 c 1xb0
 401 706 401 707 398 696 c 2
 310 415 l 2
 306 404 304 392 299 381 c 1xd0
 291 378 290 378 277 378 c 2
 251 378 l 2
 238 378 230 381 230 394 c 0xd0
414 395 m 0
 414 399 414 403 415 408 c 2
 448 697 l 2
 450 715 453 716 456 719 c 1
 461 722 462 722 471 722 c 2
 563 722 l 2
 576 722 585 719 585 708 c 0
 585 703 582 698 581 694 c 2
 489 396 l 2
 484 381 479 378 464 378 c 2x90
 439 378 l 1
 419 379 414 382 414 395 c 0
EndSplineSet
EndChar

StartChar: numbersign
Encoding: 35 35 46
Width: 916
Flags: HW
TeX: 720 222
ItalicCorrection: 55
HStem: 99 72<92.3603 277 394 516 633 879.856> 329 72<140.991 389 505 627 744 928.729> 702 20G<591 613.5 830 852.5>
DStem2: 152 -158 219 -188 0.437396 0.899269<-28.2566 285.787 401.709 541.607 657.092 971.531> 391 -158 458 -188 0.437396 0.899269<-28.6936 285.787 401.709 541.169 657.092 971.094>
LayerCount: 2
Fore
SplineSet
89 135 m 0
 89 157 107 168 119 170 c 0
 125 171 131 171 137 171 c 2
 313 171 l 1
 389 329 l 1
 183 329 l 2
 143 329 138 354 138 365 c 0
 138 380 145 401 185 401 c 2
 424 401 l 1
 563 687 l 2
 570 701 579 722 603 722 c 0
 624 722 639 703 639 686 c 0
 639 675 634 666 630 657 c 2
 505 401 l 1
 663 401 l 1
 802 687 l 2
 809 701 818 722 842 722 c 0
 863 722 877 703 877 686 c 0
 877 675 872 666 868 657 c 2
 744 401 l 1
 880 401 l 2
 888 401 896 402 904 400 c 0
 920 396 932 382 932 365 c 0
 932 344 914 332 902 330 c 0
 896 329 890 329 884 329 c 2
 708 329 l 1
 633 171 l 1
 849 171 l 1
 869 170 883 153 883 135 c 0
 883 124 878 99 836 99 c 2
 597 99 l 1
 458 -188 l 2
 451 -202 442 -222 418 -222 c 0
 398 -222 382 -204 382 -186 c 0
 382 -176 387 -167 391 -158 c 2
 516 99 l 1
 358 99 l 1
 219 -188 l 2
 212 -202 203 -222 179 -222 c 0
 159 -222 144 -204 144 -186 c 0
 144 -176 148 -167 152 -158 c 2
 277 99 l 1
 140 99 l 2
 132 99 125 98 118 100 c 0
 102 104 89 118 89 135 c 0
394 171 m 1
 552 171 l 1
 627 329 l 1
 469 329 l 1
 394 171 l 1
EndSplineSet
EndChar

StartChar: dollar
Encoding: 36 36 47
Width: 550
Flags: HW
TeX: 746 27
ItalicCorrection: 117
VStem: 167 122<472.097 582.826> 417 122<155.981 277.138>
DStem2: 231.706 -27 306.068 -27 0.207912 0.978148<140.186 342.592 494.692 670.626>
LayerCount: 2
Fore
SplineSet
65 75 m 0
 65 79 94 171 108 171 c 0
 125 171 152 108 257 92 c 1
 304 312 l 1
 278 319 241 328 208 366 c 0
 180 398 167 438 167 480 c 0
 167 521 189 713 395 732 c 1
 399 737 407 750 426 750 c 0
 445 750 453 737 457 732 c 1
 535 725 597 688 609 666 c 1
 609 661 l 1
 609 661 583 571 567 571 c 0
 548 571 536 617 446 631 c 1
 405 439 l 1
 504 417 539 334 539 263 c 0
 539 199 505 66 399 15 c 0
 372 2 343 -6 308 -10 c 1
 304 -15 295 -27 276 -27 c 0
 257 -27 249 -15 245 -10 c 1
 195 -6 135 11 83 52 c 0
 65 66 66 67 65 75 c 0
289 522 m 0
 289 483 315 466 334 457 c 1
 371 629 l 1
 305 610 289 555 289 522 c 0
332 95 m 1
 400 115 417 188 417 221 c 0
 417 265 393 282 374 293 c 1
 332 95 l 1
EndSplineSet
EndChar

StartChar: percent
Encoding: 37 37 48
Width: 1029
Flags: HW
TeX: 746 27
ItalicCorrection: 30
HStem: -28 73<754.739 841.481> 288 73<800.24 887.376> 361 73<293.201 379.947> 677 73<338.502 425.931>
VStem: 171 116<439.181 598.007> 433 114<507.913 670.27> 633 116<49.6023 208.809> 895 114<120.949 280.475>
DStem2: 323 152 284 -6 0.706493 0.70772<-180.274 856.197>
LayerCount: 2
Fore
SplineSet
171 494 m 0
 171 556 198 750 399 750 c 0
 470 750 547 723 547 618 c 0
 547 552 519 361 321 361 c 0
 223 361 171 408 171 494 c 0
204 15 m 0
 204 38 211 40 323 152 c 2
 899 729 l 2
 909 739 919 750 937 750 c 0
 962 750 979 729 979 708 c 0
 979 685 973 685 824 535 c 2
 284 -6 l 2
 275 -15 264 -27 245 -27 c 0
 220 -27 204 -6 204 15 c 0
287 481 m 0
 287 456 296 434 332 434 c 0
 414 434 433 581 433 617 c 0
 433 648 425 677 388 677 c 0
 316 677 303 586 289 508 c 0
 288 499 287 490 287 481 c 0
633 105 m 0
 633 169 661 361 861 361 c 0
 958 361 1009 314 1009 229 c 0
 1009 160 979 -28 783 -28 c 0
 711 -28 633 -1 633 105 c 0
749 92 m 0
 749 60 765 45 794 45 c 0
 875 45 895 192 895 228 c 0
 895 259 886 288 849 288 c 0
 780 288 768 209 751 120 c 0
 750 111 749 102 749 92 c 0
EndSplineSet
EndChar

StartChar: ampersand
Encoding: 38 38 49
Width: 830
Flags: HW
TeX: 720 0
ItalicCorrection: 30
HStem: -22 100<223.949 379.479 573.784 765.785> 671 74<439.909 518.991>
VStem: 75 141<83.424 207.954> 264 118<426.801 594.127> 523 113<538.521 667.957>
LayerCount: 2
Fore
SplineSet
75 126 m 0
 75 186 110 241 156 276 c 0
 167 285 179 292 275 353 c 1
 269 384 264 417 264 459 c 0
 264 579 301 637 339 676 c 0
 379 716 436 745 493 745 c 0
 574 745 636 687 636 602 c 0
 636 551 622 483 405 350 c 1
 416 321 431 274 505 167 c 1
 506 167 l 1
 558 208 646 280 721 426 c 0
 726 434 729 438 736 438 c 0
 746 438 763 431 802 420 c 0
 809 418 817 414 817 405 c 0
 817 393 743 243 603 125 c 1
 573 100 l 1
 603 85 621 78 654 78 c 0
 721 78 760 99 774 99 c 0
 781 99 786 96 786 86 c 0
 786 79 785 75 773 19 c 0
 768 -5 767 -4 727 -13 c 0
 700 -19 672 -22 644 -22 c 0
 583 -22 522 -3 472 36 c 1
 397 -2 316 -22 249 -22 c 0
 146 -22 75 41 75 126 c 0
216 137 m 0
 216 94 232 78 258 78 c 0
 311 80 344 85 400 107 c 1
 352 171 328 207 298 281 c 1
 297 281 l 1
 275 266 252 253 233 213 c 0
 220 186 216 160 216 137 c 0
382 482 m 0
 382 459 385 432 386 426 c 1
 471 481 523 542 523 620 c 0
 523 655 512 671 491 671 c 0
 458 671 382 635 382 482 c 0
EndSplineSet
EndChar

StartChar: quoteright
Encoding: 8217 8217 50
Width: 305
Flags: HW
TeX: 720 0
ItalicCorrection: 96
HStem: 486 236<245.438 267.462>
LayerCount: 2
Fore
SplineSet
194 499 m 0
 194 507 202 518 245 591 c 1
 237 591 226 589 220 596 c 0
 214 603 217 612 219 620 c 0
 239 712 235 722 259 722 c 2
 347 722 l 2
 358 722 368 720 368 707 c 0
 368 696 347 605 345 600 c 0
 341 590 339 590 264 500 c 0
 256 491 252 486 235 486 c 2
 215 486 l 2
 204 486 194 488 194 499 c 0
EndSplineSet
EndChar

StartChar: parenleft
Encoding: 40 40 51
Width: 428
Flags: HW
TeX: 746 249
ItalicCorrection: 128
VStem: 120 127<-71.0517 220.211>
LayerCount: 2
Fore
SplineSet
120 87 m 0
 120 300 216 563 411 716 c 0
 447 745 452 750 472 750 c 2
 500 750 l 2
 506 750 521 750 521 737 c 0
 521 710 361 637 277 261 c 0
 251 143 247 69 247 21 c 0
 247 -163 314 -218 314 -236 c 0
 314 -250 297 -250 295 -250 c 2
 265 -250 l 2
 250 -250 247 -249 233 -234 c 0
 201 -201 120 -106 120 87 c 0
EndSplineSet
EndChar

StartChar: parenright
Encoding: 41 41 52
Width: 428
Flags: HW
TeX: 746 249
ItalicCorrection: 22
VStem: 285 127<278.55 569.347>
LayerCount: 2
Fore
SplineSet
11 -237 m 0
 11 -211 174 -134 256 243 c 0
 281 358 285 431 285 478 c 0
 285 657 219 722 219 737 c 0
 219 742 222 750 237 750 c 2
 269 750 l 2
 280 750 290 748 325 703 c 0
 387 622 412 518 412 413 c 0
 412 222 332 -51 118 -218 c 0
 73 -253 77 -249 58 -250 c 0
 49 -250 41 -250 32 -250 c 0
 14 -250 11 -242 11 -237 c 0
EndSplineSet
EndChar

StartChar: asterisk
Encoding: 42 42 53
Width: 550
Flags: HW
TeX: 746 0
ItalicCorrection: 113
HStem: 377 101<168.01 247.83>
VStem: 290 119<313.439 398.081> 361 119<643.919 728.141>
LayerCount: 2
Fore
SplineSet
159 425 m 0
 159 446 171 467 189 478 c 0
 200 484 261 504 309 520 c 1
 209 561 195 562 195 593 c 0
 195 629 232 665 266 665 c 0
 287 665 292 655 361 586 c 1
 365 681 365 693 368 704 c 0
 376 731 405 750 433 750 c 0
 454 750 480 736 480 710 c 0
 480 698 479 696 437 586 c 1
 538 657 544 665 565 665 c 0
 592 665 610 644 610 617 c 0
 610 563 568 559 460 521 c 1
 560 480 575 480 575 449 c 0xa0
 575 413 537 377 504 377 c 0
 483 377 481 384 409 456 c 1
 405 361 405 349 402 338 c 0
 394 311 365 292 337 292 c 0
 315 292 290 305 290 332 c 0xc0
 290 344 292 346 334 456 c 1
 232 384 226 377 205 377 c 0
 177 377 159 399 159 425 c 0
EndSplineSet
EndChar

StartChar: plus
Encoding: 43 43 54
Width: 855
Flags: HW
TeX: 616 116
ItalicCorrection: 22
HStem: 214 72<117.149 436 526 843.851>
DStem2: 365.856 -116 439.86 -116 0.207912 0.978148<33.6044 337.372 426.511 724.329>
LayerCount: 2
Fore
SplineSet
114 250 m 0
 114 271 131 282 141 285 c 0
 149 287 158 286 166 286 c 2
 451 286 l 1
 512 570 l 2
 516 587 519 616 551 616 c 0
 576 616 586 600 586 578 c 0
 586 572 585 565 584 559 c 2
 526 286 l 1
 806 286 l 2
 840 286 847 262 847 250 c 0
 847 229 830 218 820 215 c 0
 812 213 803 214 795 214 c 2
 510 214 l 1
 510 213 l 1
 449 -73 l 2
 448 -78 444 -116 411 -116 c 0
 381 -116 376 -87 375 -84 c 0
 374 -75 376 -67 378 -58 c 2
 436 214 l 1
 158 214 l 2
 119 214 114 240 114 250 c 0
EndSplineSet
EndChar

StartChar: comma
Encoding: 44 44 55
Width: 305
Flags: HW
TeX: 130 105
HStem: -105 236
VStem: 91 151<12.8161 119.374>
LayerCount: 2
Fore
SplineSet
68 -92 m 0
 68 -84 77 -73 120 0 c 1
 114 0 l 2
 103 0 91 1 91 14 c 0
 91 24 97 46 111 113 c 0
 114 125 117 131 133 131 c 2
 221 131 l 2
 232 131 242 129 242 116 c 0
 242 105 221 14 219 9 c 0
 215 -1 213 -1 138 -91 c 1
 127 -102 126 -105 109 -105 c 2
 96 -105 l 2
 94 -105 91 -106 89 -106 c 0
 71 -106 68 -97 68 -92 c 0
EndSplineSet
EndChar

StartChar: hyphen
Encoding: 45 45 56
Width: 367
Flags: HW
TeX: 458 0
ItalicCorrection: 18
HStem: 193 72<63.9886 348.625>
VStem: 61 291<197.009 261.139>
LayerCount: 2
Fore
SplineSet
61 229 m 0
 61 263 91 266 105 266 c 0
 108 266 110 265 111 265 c 2
 308 265 l 2
 348 265 352 239 352 230 c 0
 352 221 348 193 309 193 c 2
 104 193 l 2
 65 193 61 220 61 229 c 0
EndSplineSet
EndChar

StartChar: period
Encoding: 46 46 57
Width: 305
Flags: HW
TeX: 130 0
HStem: 0 131<110.444 222.741>
VStem: 91 151<11.452 116.294>
LayerCount: 2
Fore
SplineSet
91 14 m 0
 91 20 93 28 94 35 c 0
 114 127 111 131 135 131 c 2
 222 131 l 2
 238 131 242 125 242 116 c 0
 242 110 240 103 239 96 c 0
 219 4 224 0 199 0 c 2
 112 0 l 2
 95 0 91 6 91 14 c 0
EndSplineSet
EndChar

StartChar: slash
Encoding: 47 47 58
Width: 550
Flags: HW
TeX: 746 249
ItalicCorrection: 128
DStem2: 31 -176 91 -219 0.5114 0.859343<-39.7203 1075.18>
LayerCount: 2
Fore
SplineSet
16 -214 m 0
 16 -199 25 -187 31 -176 c 2
 565 720 l 2
 569 727 579 750 603 750 c 0
 620 750 639 736 639 714 c 0
 639 700 632 689 626 680 c 2
 91 -219 l 2
 86 -227 75 -250 51 -250 c 0
 33 -250 16 -233 16 -214 c 0
EndSplineSet
EndChar

StartChar: zero
Encoding: 48 48 59
Width: 550
Flags: HW
TeX: 694 0
ItalicCorrection: 117
HStem: -22 73<238.236 341.178> 643 73<354.975 458.863>
VStem: 90 129<69.7989 292.337> 479 126<409.959 623.748>
LayerCount: 2
Fore
SplineSet
90 165 m 0
 90 220 103 287 116 348 c 0
 143 477 194 716 426 716 c 0
 569 716 605 627 605 526 c 0
 605 489 602 451 579 342 c 0
 554 224 509 -22 270 -22 c 0
 126 -22 90 67 90 165 c 0
219 136 m 0
 219 68 258 51 285 51 c 0
 340 51 373 108 377 114 c 0
 419 188 479 499 479 562 c 0
 479 618 448 643 412 643 c 0
 381 643 347 624 324 590 c 0
 281 524 219 204 219 136 c 0
EndSplineSet
Substitution2: "LGC old numerals subtable" zerooldstyle
EndChar

StartChar: one
Encoding: 49 49 60
Width: 550
Flags: HW
TeX: 694 0
ItalicCorrection: 117
HStem: -0 73<103.322 235 373 476.941> 574 71<210.283 342.724> 696 20G<442.5 450 462.5 473>
DStem2: 219.483 -0 357.483 -0 0.207912 0.978148<103.323 599.083>
LayerCount: 2
Fore
SplineSet
100 36 m 0
 100 45 104 73 143 73 c 2
 235 73 l 1
 344 586 l 1
 317 579 276 574 251 574 c 0
 212 574 207 600 207 611 c 0
 207 632 224 642 234 645 c 0
 258 651 336 638 417 701 c 0
 431 711 436 716 449 716 c 0
 451 716 454 715 456 715 c 0
 459 715 461 716 464 716 c 0
 482 716 500 702 500 680 c 0
 500 674 499 669 498 663 c 2
 373 73 l 1
 437 73 l 2
 477 73 480 45 480 36 c 0
 480 26 476 0 437 -0 c 2
 143 -0 l 2
 104 0 100 27 100 36 c 0
EndSplineSet
Substitution2: "LGC old numerals subtable" oneoldstyle
EndChar

StartChar: two
Encoding: 50 50 61
Width: 550
Flags: HW
TeX: 694 0
ItalicCorrection: 117
HStem: -0 107<208 494.48> 616 100<308.161 435.882>
VStem: 71 1<79.9744 83> 462 140<439.89 588.667>
LayerCount: 2
Fore
SplineSet
62 36 m 0
 62 45 69 74 72 83 c 1
 71 76 l 1
 269 249 l 2
 316 290 462 399 462 524 c 0
 462 563 445 616 376 616 c 0
 288 616 246 528 230 497 c 0
 225 489 222 488 219 487 c 1
 214 488 l 1
 199 495 167 559 167 566 c 0
 167 574 237 716 408 716 c 0
 527 716 602 644 602 535 c 0
 602 391 489 328 368 232 c 2
 208 106 l 1
 297 107 l 1
 341 107 l 1
 463 108 l 2
 502 108 509 87 509 72 c 0
 509 61 501 26 495 17 c 0
 484 0 467 0 459 -0 c 2
 107 -0 l 2
 66 0 62 26 62 36 c 0
EndSplineSet
Substitution2: "LGC old numerals subtable" twooldstyle
EndChar

StartChar: three
Encoding: 51 51 62
Width: 550
Flags: HW
TeX: 694 0
ItalicCorrection: 117
HStem: -22 95<176.244 346.905> 339 78<266.446 383.659> 627 89<310.661 449.64>
VStem: 412 139<158.315 321.796> 456 136<500.507 619.74>
LayerCount: 2
Fore
SplineSet
61 71 m 0
 61 77 65 84 85 136 c 0
 89 145 91 148 97 150 c 1
 101 150 l 1
 120 142 158 73 272 73 c 0
 363 73 388 137 403 203 c 0
 406 218 412 244 412 268 c 0xf0
 412 335 363 339 326 339 c 2
 288 339 l 2
 269 339 258 339 258 354 c 0
 258 358 259 365 265 391 c 0
 272 421 290 408 339 417 c 0
 408 430 456 519 456 582 c 0
 456 615 435 627 396 627 c 0xe8
 292 627 246 545 229 544 c 1
 224 545 l 1
 212 554 192 603 191 609 c 1
 192 616 190 617 215 639 c 0
 258 676 325 716 414 716 c 0
 543 716 592 663 592 584 c 0xe8
 592 501 544 426 446 376 c 1
 523 354 551 306 551 247 c 0
 551 189 516 -22 261 -22 c 0
 135 -22 61 54 61 71 c 0
EndSplineSet
Substitution2: "LGC old numerals subtable" threeoldstyle
EndChar

StartChar: four
Encoding: 52 52 63
Width: 550
Flags: HW
TeX: 694 0
ItalicCorrection: 117
HStem: -0 21G<338.5 414> 153 95<187 337 480 555.042> 674 20G<434.5 539.5>
DStem2: 304.479 -0 427.479 -0 0.207912 0.978148<34.7037 156.418 279.074 606.408>
LayerCount: 2
Fore
SplineSet
71 189 m 0
 71 201 81 243 84 248 c 0
 88 257 95 264 101 272 c 2
 396 663 l 2
 412 684 420 694 449 694 c 2
 529 694 l 2
 550 694 567 688 567 665 c 0
 567 659 565 652 564 646 c 2
 480 248 l 1
 516 248 l 2
 537 248 563 244 563 211 c 0
 563 202 561 194 560 191 c 0
 553 154 532 153 513 153 c 2
 460 153 l 1
 432 22 438 0 390 -0 c 2
 358 -0 l 2
 319 0 313 25 313 33 c 0
 313 47 320 75 337 153 c 1
 120 153 l 2
 98 153 93 154 79 167 c 1
 74 175 71 179 71 189 c 0
187 248 m 1
 363 248 l 1
 436 592 l 1
 405 537 187 249 187 248 c 1
EndSplineSet
Substitution2: "LGC old numerals subtable" fouroldstyle
EndChar

StartChar: five
Encoding: 53 53 64
Width: 550
Flags: HW
TeX: 694 0
ItalicCorrection: 117
HStem: -22 95<184.159 335.02> 378 73<304.913 404.705> 594 100<337 587.133>
VStem: 414 136<196.106 371.108>
LayerCount: 2
Fore
SplineSet
57 94 m 0
 57 103 88 137 107 160 c 0
 114 168 120 171 124 171 c 0
 140 171 126 157 165 107 c 1
 188 90 208 73 256 73 c 0
 371 73 386 164 400 228 c 0
 412 284 414 304 414 323 c 0
 414 366 391 378 366 378 c 0
 356 378 311 376 266 332 c 1
 230 293 232 295 204 295 c 2
 200 295 l 2
 186 295 153 295 153 331 c 0
 153 336 154 342 155 348 c 2
 219 653 l 2
 227 690 240 694 269 694 c 2
 550 694 l 2
 590 694 596 673 596 658 c 0
 596 650 591 624 588 617 c 0
 579 596 562 594 547 594 c 2
 337 594 l 1
 336 593 l 1
 304 440 l 1
 318 444 341 451 377 451 c 0
 491 451 550 397 550 297 c 0
 550 257 541 221 536 199 c 0
 493 29 369 -22 242 -22 c 0
 111 -22 57 76 57 94 c 0
EndSplineSet
Substitution2: "LGC old numerals subtable" fiveoldstyle
EndChar

StartChar: six
Encoding: 54 54 65
Width: 550
Flags: HW
TeX: 694 0
ItalicCorrection: 117
HStem: -22 95<240.645 357.42> 407 73<324.17 420.717> 627 89<387.801 561.482>
VStem: 96 130<89.3964 280.778> 431 134<212.522 396.967>
LayerCount: 2
Fore
SplineSet
96 180 m 0
 96 236 120 437 196 557 c 0
 289 703 424 716 483 716 c 0
 531 716 578 701 578 681 c 1
 578 681 568 618 558 607 c 1
 553 605 l 1
 534 606 526 627 472 627 c 0
 323 627 287 471 274 421 c 1
 302 445 341 480 408 480 c 0
 534 480 565 396 565 326 c 0
 565 283 547 187 523 134 c 0
 497 76 446 19 379 -6 c 0
 360 -13 327 -22 275 -22 c 0
 183 -22 96 22 96 180 c 0
226 148 m 0
 226 103 245 73 292 73 c 0
 387 73 397 159 416 243 c 0
 423 276 431 317 431 345 c 0
 431 379 420 407 373 407 c 0
 255 407 226 216 226 148 c 0
EndSplineSet
Substitution2: "LGC old numerals subtable" sixoldstyle
EndChar

StartChar: seven
Encoding: 55 55 66
Width: 550
Flags: HW
TeX: 694 0
ItalicCorrection: 117
HStem: -11 21G<176 251.5> 587 108<188.87 477>
VStem: 149 140<-6.82807 102.017>
LayerCount: 2
Fore
SplineSet
149 25 m 0
 149 39 195 299 425 537 c 1
 477 587 l 1
 342 587 l 1
 320 586 l 1
 223 586 l 2
 183 586 178 611 178 623 c 0
 178 633 186 667 188 672 c 0
 197 693 215 695 230 695 c 2
 501 695 l 1
 523 694 l 1
 598 694 l 2
 639 694 642 666 642 658 c 0
 642 649 640 639 633 611 c 1
 633 614 l 1
 608 579 370 384 289 26 c 0
 281 -10 259 -11 244 -11 c 2
 196 -11 l 2
 156 -11 149 11 149 25 c 0
EndSplineSet
Substitution2: "LGC old numerals subtable" sevenoldstyle
EndChar

StartChar: eight
Encoding: 56 56 67
Width: 550
Flags: HW
TeX: 694 0
ItalicCorrection: 117
HStem: -22 95<226.199 361.651> 338 73<302.555 407.685> 627 89<336.83 469.515>
VStem: 81 134<86.1796 246.926> 167 124<421.447 571.361> 421 131<159.44 324.178> 478 127<475.434 616.801>
LayerCount: 2
Fore
SplineSet
81 133 m 0xf4
 81 195 99 270 150 321 c 0
 177 347 204 361 248 375 c 1
 198 392 167 424 167 482 c 0xe8
 167 527 192 716 424 716 c 0
 522 716 605 689 605 578 c 0xea
 605 526 590 429 490 386 c 1
 460 375 l 1
 510 360 552 326 552 252 c 0
 552 194 522 93 456 37 c 0
 436 19 381 -22 269 -22 c 0
 147 -22 81 26 81 133 c 0xf4
215 134 m 0xf4
 215 90 240 73 291 73 c 0
 384 73 396 135 413 218 c 0
 416 235 421 255 421 274 c 0xec
 421 313 402 338 346 338 c 0
 248 338 235 261 219 175 c 0
 217 162 215 148 215 134 c 0xf4
291 466 m 0
 291 418 328 411 364 411 c 0
 444 411 458 460 469 510 c 0
 473 530 478 552 478 574 c 0xea
 478 622 443 627 407 627 c 0
 326 627 313 584 301 529 c 0
 297 509 291 488 291 466 c 0
EndSplineSet
Substitution2: "LGC old numerals subtable" eightoldstyle
EndChar

StartChar: nine
Encoding: 57 57 68
Width: 550
Flags: HW
TeX: 694 0
ItalicCorrection: 117
HStem: -22 95<174.596 316.59> 214 73<273.775 369.961> 627 89<343.655 456.41>
VStem: 130 134<297.382 479.568> 472 128<423.582 611.354>
LayerCount: 2
Fore
SplineSet
88 40 m 0
 88 47 136 112 149 112 c 0
 165 112 175 73 240 73 c 0
 376 73 411 231 422 274 c 1
 362 216 310 214 286 214 c 0
 156 214 130 306 130 368 c 0
 130 412 149 522 183 582 c 0
 212 633 260 674 303 694 c 0
 342 712 385 716 426 716 c 0
 515 716 600 674 600 518 c 0
 600 451 571 151 411 36 c 0
 358 -2 292 -22 227 -22 c 0
 132 -22 88 28 88 40 c 0
264 348 m 0
 264 305 285 287 324 287 c 0
 442 287 472 489 472 554 c 0
 472 619 431 627 409 627 c 0
 307 627 295 527 270 400 c 0
 268 389 264 366 264 348 c 0
EndSplineSet
Substitution2: "LGC old numerals subtable" nineoldstyle
EndChar

StartChar: colon
Encoding: 58 58 69
Width: 305
Flags: HW
TeX: 458 0
ItalicCorrection: 40
HStem: 0 131<110.444 222.741> 327 131<180.213 292.289>
VStem: 91 151<11.452 116.294> 160 151<336.522 443.294>
LayerCount: 2
Fore
SplineSet
160 342 m 0
 160 348 163 355 164 362 c 0
 183 454 180 458 204 458 c 2
 291 458 l 2xd0
 305 458 311 455 311 442 c 0
 311 428 304 402 294 354 c 0
 289 330 286 327 268 327 c 2
 181 327 l 2
 164 327 160 334 160 342 c 0
EndSplineSet
Refer: 57 46 S 1 0 0 1 -0 -0 3
EndChar

StartChar: semicolon
Encoding: 59 59 70
Width: 305
Flags: HW
TeX: 458 105
ItalicCorrection: 40
HStem: -105 236 327 131<180.213 291.65>
VStem: 91 151<12.8161 119.374> 160 151<338.346 443.294>
LayerCount: 2
Fore
SplineSet
160 342 m 0
 160 348 163 355 164 362 c 0
 183 454 180 458 204 458 c 2
 291 458 l 2xd0
 305 458 311 455 311 442 c 0
 311 428 303 402 293 354 c 0
 288 330 286 327 268 327 c 2
 181 327 l 2
 164 327 160 334 160 342 c 0
EndSplineSet
Refer: 55 44 S 1 0 0 1 -0 -0 3
EndChar

StartChar: less
Encoding: 60 60 71
Width: 855
Flags: HW
TeX: 606 106
ItalicCorrection: 67
DStem2: 259 246 177 210 0.860017 -0.510265<0 567.067> 188 293 259 247 0.90336 0.428882<44.41 727.029>
LayerCount: 2
Fore
SplineSet
146 248 m 0
 146 275 163 281 188 293 c 2
 822 594 l 2
 830 598 838 601 847 601 c 0
 868 601 883 582 883 565 c 0
 883 540 859 531 842 523 c 2
 259 247 l 1
 259 246 l 1
 283 233 306 218 330 204 c 2
 718 -26 l 2
 726 -31 749 -42 749 -65 c 0
 749 -90 727 -101 713 -101 c 0
 702 -101 694 -97 686 -92 c 2
 177 210 l 2
 156 223 146 231 146 248 c 0
EndSplineSet
EndChar

StartChar: equal
Encoding: 61 61 72
Width: 855
Flags: HW
TeX: 406 -93
ItalicCorrection: 55
HStem: 99 72<93.1442 819.011> 329 72<140.821 867.968>
LayerCount: 2
Fore
SplineSet
90 135 m 0
 90 149 99 167 120 171 c 1
 779 171 l 2
 818 171 822 144 822 135 c 0
 822 121 815 99 775 99 c 2
 136 99 l 2
 97 99 90 120 90 135 c 0
138 364 m 0
 138 404 180 401 197 401 c 2
 825 401 l 2
 866 401 871 375 871 365 c 0
 871 356 867 329 828 329 c 2
 181 329 l 2
 142 329 138 355 138 364 c 0
EndSplineSet
EndChar

StartChar: greater
Encoding: 62 62 73
Width: 855
Flags: HW
TeX: 606 106
DStem2: 118 -23 138 -94 0.903622 0.428331<-37.5464 645.935> 275 592 242 526 0.859576 -0.511008<-27.3648 539.76>
LayerCount: 2
Fore
SplineSet
78 -65 m 0
 78 -39 100 -31 118 -23 c 2
 702 253 l 1
 702 254 l 1
 242 526 l 2
 231 533 212 542 212 565 c 0
 212 586 230 601 248 601 c 0
 259 601 267 597 275 592 c 2
 783 290 l 2
 815 271 814 261 815 247 c 1
 811 227 808 223 773 207 c 2
 138 -94 l 2
 130 -98 122 -101 113 -101 c 0
 95 -101 78 -86 78 -65 c 0
EndSplineSet
EndChar

StartChar: question
Encoding: 63 63 74
Width: 519
Flags: HW
TeX: 720 0
ItalicCorrection: 122
HStem: -0 131<203.404 312.132> 660 73<301.669 446.702>
VStem: 186 143<12.0586 117.309> 450 134<534.357 654.287>
LayerCount: 2
Fore
SplineSet
186 36 m 0
 186 48 198 101 203 110 c 0
 213 130 231 130 244 131 c 1
 288 131 l 2
 321 131 329 108 329 93 c 0
 329 82 325 69 320 46 c 0
 310 1 298 1 272 -0 c 1
 231 -0 l 2
 190 0 186 28 186 36 c 0
203 665 m 1
 203 670 204 671 205 673 c 0
 219 691 302 733 400 733 c 0
 469 733 584 726 584 612 c 0
 584 560 561 501 516 464 c 1
 478 437 381 377 353 264 c 0
 337 201 341 195 319 195 c 2
 258 195 l 2
 250 195 236 195 236 211 c 0
 236 221 240 238 249 273 c 0
 285 414 402 496 422 524 c 0
 440 548 450 593 450 620 c 0
 450 639 446 660 390 660 c 0
 288 660 243 586 224 586 c 0
 223 586 223 587 222 587 c 0
 208 592 203 665 203 665 c 1
EndSplineSet
EndChar

StartChar: at
Encoding: 64 64 75
Width: 733
Flags: HW
TeX: 720 0
ItalicCorrection: 76
HStem: -11 73<328.76 551.93> 123 73<448.308 556.047> 526 73<519.186 621.641> 661 72<456.938 624.637>
VStem: 124 119<145.581 386.094> 313 118<214.355 400.469> 639 136<381.818 595.735>
LayerCount: 2
Fore
SplineSet
124 244 m 0
 124 331 153 488 241 594 c 0
 281 642 376 733 578 733 c 0
 732 733 775 652 775 544 c 0
 775 472 749 350 734 304 c 0
 686 162 582 123 488 123 c 0
 403 123 313 155 313 282 c 0
 313 320 321 354 325 375 c 0
 335 417 375 598 581 599 c 1
 583 599 l 2
 607 599 630 596 653 590 c 1
 649 613 635 660 566 660 c 0
 563 660 562 661 559 661 c 0
 554 661 545 660 523 657 c 0
 331 631 269 462 246 287 c 1
 245 269 243 261 243 246 c 0
 243 99 340 62 437 62 c 0
 541 62 594 105 619 105 c 2
 673 105 l 1
 684 104 690 100 690 93 c 0
 690 72 560 -11 425 -11 c 0
 276 -11 124 40 124 244 c 0
431 281 m 0
 431 234 447 196 498 196 c 0
 612 196 639 393 639 441 c 0
 639 515 599 526 573 526 c 0
 549 526 487 518 454 406 c 0
 444 370 431 322 431 281 c 0
EndSplineSet
EndChar

StartChar: A
Encoding: 65 65 76
Width: 733
Flags: HW
TeX: 694 0
HStem: -0 21G<63 146 571.5 673> 150 87<296 521> 674 20G<451 582>
DStem2: 69 69 247 150 0.491263 0.871012<-23.5735 157.997 257.847 636.923> 612 638 483 519 0.138845 -0.990314<49.8653 384.481 472.305 609.627>
AnchorPoint: "ogonek" 632 0 basechar 0
AnchorPoint: "below" 366 0 basechar 0
AnchorPoint: "above" 518 716 basechar 0
LayerCount: 2
Fore
SplineSet
47 22 m 0
 47 31 51 37 69 69 c 2
 395 647 l 2
 415 682 433 694 469 694 c 2
 557 694 l 2
 607 694 608 666 612 638 c 2
 695 46 l 2
 695 42 696 38 696 34 c 0
 696 22 690 0 656 -0 c 2
 600 -0 l 2
 543 0 549 27 533 150 c 1
 247 150 l 1
 179 29 174 0 118 -0 c 0
 104 0 90 0 76 -0 c 0
 50 0 47 13 47 22 c 0
296 237 m 1
 521 237 l 1
 483 519 l 1
 479 569 l 1
 296 237 l 1
EndSplineSet
EndChar

StartChar: B
Encoding: 66 66 77
Width: 733
Flags: HW
TeX: 694 0
ItalicCorrection: 80
HStem: -0 86<247 506.091> 325 72<314 536.965> 608 86<358 588.92>
VStem: 582 134<153.012 284.854> 620 134<468.005 577.342>
DStem2: 90.6717 -0 228.72 -0 0.207912 0.978148<116.623 361.004 434.757 650.294>
AnchorPoint: "below" 357 0 basechar 0
AnchorPoint: "above" 509 716 basechar 0
LayerCount: 2
Fore
SplineSet
100 36 m 0
 100 43 102 51 103 58 c 2
 228 648 l 2
 234 678 241 694 275 694 c 2
 521 694 l 2
 646 694 754 668 754 551 c 0xe8
 754 508 741 402 571 363 c 1
 614 356 716 336 716 230 c 0xf0
 716 197 701 94 598 39 c 0
 526 1 450 0 388 -0 c 2
 144 -0 l 2
 105 0 100 24 100 36 c 0
247 86 m 1
 379 86 l 2
 429 86 496 89 540 129 c 0
 567 153 582 188 582 224 c 0xf0
 582 251 574 305 489 320 c 0
 465 324 441 325 417 325 c 2
 298 325 l 1
 247 86 l 1
314 397 m 1
 413 397 l 1
 462 398 543 397 590 455 c 1
 606 478 620 499 620 529 c 0xe8
 620 602 534 608 464 608 c 2
 358 608 l 1
 314 397 l 1
EndSplineSet
EndChar

StartChar: C
Encoding: 67 67 78
Width: 703
Flags: HW
TeX: 694 0
ItalicCorrection: 117
HStem: -22 100<337.261 568.942> 616 100<451.874 661.391>
VStem: 121 143<150.517 382.481>
AnchorPoint: "below" 419 0 basechar 0
AnchorPoint: "above" 580 716 basechar 0
LayerCount: 2
Fore
SplineSet
121 235 m 0
 121 306 145 448 217 551 c 0
 264 619 362 716 580 716 c 0
 687 716 762 687 773 676 c 1
 776 670 l 1
 776 660 751 599 735 560 c 0
 732 554 728 551 724 551 c 0
 701 551 684 616 562 616 c 0
 330 616 286 401 272 322 c 0
 267 296 264 271 264 245 c 0
 264 112 350 78 436 78 c 0
 528 78 564 90 637 136 c 0
 644 140 651 142 656 142 c 0
 663 142 666 137 666 127 c 0
 666 117 663 98 658 59 c 0
 656 44 657 38 642 30 c 0
 562 -10 517 -22 434 -22 c 2
 394 -22 l 1
 259 -12 121 29 121 235 c 0
EndSplineSet
EndChar

StartChar: D
Encoding: 68 68 79
Width: 794
Flags: HW
TeX: 694 0
ItalicCorrection: 72
HStem: 0 86<250 505.061> 608 86<361 606.78>
VStem: 680 139<314.61 539.873>
DStem2: 89.9713 0 231.72 0 0.207912 0.978148<117.393 651.064>
AnchorPoint: "below" 387 0 basechar 0
AnchorPoint: "above" 540 716 basechar 0
LayerCount: 2
Fore
SplineSet
99 37 m 0
 99 47 102 56 104 66 c 2
 229 654 l 2
 234 675 240 694 275 694 c 2
 530 694 l 2
 683 694 819 652 819 459 c 0
 819 366 786 204 690 107 c 0
 591 6 468 0 349 0 c 2
 144 0 l 2
 105 0 99 24 99 37 c 0
250 86 m 1
 360 86 l 2
 367 86 373 87 426 89 c 1
 589 105 637 212 664 338 c 0
 670 365 680 411 680 453 c 0
 680 604 555 608 475 608 c 2
 361 608 l 1
 250 86 l 1
EndSplineSet
EndChar

StartChar: E
Encoding: 69 69 80
Width: 642
Flags: HW
TeX: 694 0
ItalicCorrection: 117
HStem: -0 111<257 594.622> 310 95<321 618.426> 590 101<359 709.419>
DStem2: 90.3094 -0 234.256 -0 0.207912 0.978148<139.319 346.823 444.113 632.971>
AnchorPoint: "ogonek" 343 0 basechar 0
AnchorPoint: "below" 343 0 basechar 0
AnchorPoint: "above" 495 716 basechar 0
LayerCount: 2
Fore
SplineSet
100 36 m 0
 100 42 101 49 102 55 c 2
 227 644 l 2
 233 670 237 691 274 691 c 2
 674 691 l 2
 713 691 718 666 718 655 c 0
 718 644 711 615 709 610 c 0
 700 589 682 587 667 587 c 0
 636 587 606 588 360 590 c 1
 359 590 l 1
 321 405 l 1
 582 405 l 2
 598 405 627 403 627 368 c 0
 627 362 626 357 625 353 c 0
 617 316 604 310 578 310 c 2
 300 310 l 1
 257 107 l 1
 360 108 557 111 567 111 c 0
 603 111 610 87 610 76 c 0
 610 67 603 27 595 16 c 0
 587 5 575 0 557 -0 c 2
 143 -0 l 2
 104 0 100 25 100 36 c 0
EndSplineSet
EndChar

StartChar: F
Encoding: 70 70 81
Width: 611
Flags: HW
TeX: 694 0
ItalicCorrection: 132
HStem: -0 21G<124 217> 298 95<318 585.166> 590 101<359 693.852>
DStem2: 90.3964 -0 234.658 -0 0.207912 0.978148<38.3934 334.651 431.733 632.953>
AnchorPoint: "below" 328 0 basechar 0
AnchorPoint: "above" 480 716 basechar 0
LayerCount: 2
Fore
SplineSet
99 37 m 0
 99 46 102 55 104 64 c 2
 226 638 l 2
 231 662 232 691 274 691 c 2
 656 691 l 2
 696 691 703 670 703 655 c 0
 703 647 697 617 692 607 c 0
 681 587 664 588 651 587 c 1
 360 590 l 1
 359 590 l 1
 318 393 l 1
 550 393 l 2
 566 393 593 390 593 355 c 0
 593 327 583 298 545 298 c 2
 298 298 l 1
 245 50 l 2
 239 21 236 1 198 -0 c 0
 180 0 162 0 144 -0 c 0
 104 0 99 26 99 37 c 0
EndSplineSet
EndChar

StartChar: G
Encoding: 71 71 82
Width: 733
Flags: HW
TeX: 694 0
ItalicCorrection: 117
HStem: -22 100<338.32 542.956> 228 95<490.546 571> 616 100<450.361 662.258>
VStem: 121 143<152.632 382.444> 479 245<228.688 321.07>
AnchorPoint: "below" 427 0 basechar 0
AnchorPoint: "above" 573 716 basechar 0
LayerCount: 2
Fore
SplineSet
121 232 m 0
 121 335 159 507 264 607 c 0
 333 673 433 716 574 716 c 0
 642 716 700 709 769 674 c 0
 774 672 788 666 788 654 c 0
 788 644 774 612 749 550 c 0
 745 542 744 541 739 538 c 1
 733 537 l 1
 708 546 690 616 560 616 c 0
 322 616 264 379 264 245 c 0
 264 157 300 78 443 78 c 0
 483 78 512 85 541 90 c 1
 542 90 l 1
 571 228 l 1
 496 228 l 1
 483 229 479 234 479 244 c 0
 479 255 484 273 490 300 c 0
 495 323 501 323 516 323 c 2
 696 323 l 2
 714 323 724 324 724 309 c 0
 724 306 724 303 723 299 c 2
 670 49 l 2
 667 34 666 30 650 23 c 0
 565 -11 490 -22 422 -22 c 0
 272 -22 121 29 121 232 c 0
EndSplineSet
EndChar

StartChar: H
Encoding: 72 72 83
Width: 794
Flags: HW
TeX: 694 0
ItalicCorrection: 86
HStem: -0 21G<123.5 217 591.5 682> 314 95<321 625> 674 20G<261 349 719 816.5>
DStem2: 90.2466 -0 234.585 -0 0.207912 0.978148<38.3778 350.956 448.039 701.886> 558.396 -0 702.498 -0 0.207912 0.978148<38.3934 320.986 418.068 701.032>
AnchorPoint: "below" 396 0 basechar 0
AnchorPoint: "above" 548 716 basechar 0
LayerCount: 2
Fore
SplineSet
99 37 m 0
 99 45 101 52 103 60 c 2
 229 654 l 2
 235 683 246 694 276 694 c 0
 294 694 312 694 330 694 c 0
 368 694 373 669 373 658 c 0
 373 649 339 492 321 409 c 1
 645 409 l 1
 704 689 694 694 744 694 c 2
 797 694 l 2
 836 694 841 668 841 657 c 0
 841 649 839 641 837 633 c 2
 711 40 l 2
 706 16 699 0 665 -0 c 2
 610 -0 l 2
 573 0 567 26 567 37 c 0
 567 46 570 55 572 64 c 2
 625 314 l 1
 301 314 l 1
 245 49 l 2
 240 23 237 0 197 -0 c 0
 179 0 161 0 143 -0 c 0
 104 0 99 26 99 37 c 0
EndSplineSet
EndChar

StartChar: I
Encoding: 73 73 84
Width: 325
Flags: HW
TeX: 694 0
ItalicCorrection: 132
HStem: 0 21G<125 207> 674 20G<264 347>
VStem: 100 144<4.25634 77.9677> 228 145<615.089 690.148>
AnchorPoint: "ogonek" 162 0 basechar 0
AnchorPoint: "below" 162 0 basechar 0
AnchorPoint: "above" 314 716 basechar 0
LayerCount: 2
Fore
SplineSet
100 37 m 0xe0
 100 46 102 56 104 65 c 2
 228 648 l 2
 238 694 251 694 277 694 c 2
 327 694 l 2
 367 694 373 672 373 657 c 0xd0
 373 648 370 638 368 629 c 2
 244 45 l 2
 234 -1 219 1 195 0 c 1xe0
 145 0 l 2
 105 0 100 22 100 37 c 0xe0
EndSplineSet
EndChar

StartChar: J
Encoding: 74 74 85
Width: 519
Flags: HW
TeX: 694 0
ItalicCorrection: 86
HStem: -22 100<142.205 283.27> 674 20G<460 542>
DStem2: 280.934 -22 422.991 -22 0.207912 0.978148<122.632 724.133>
AnchorPoint: "below" 237 0 basechar 0
AnchorPoint: "above" 508 716 basechar 0
LayerCount: 2
Fore
SplineSet
53 33 m 0
 53 41 59 51 86 121 c 0
 88 127 94 140 102 140 c 0
 118 140 126 78 209 78 c 0
 252 78 295 95 312 130 c 0
 318 142 319 158 343 270 c 2
 425 652 l 2
 435 694 448 694 472 694 c 2
 522 694 l 2
 562 694 566 669 566 658 c 0
 566 652 564 645 563 639 c 2
 457 138 l 1
 430 32 340 -22 233 -22 c 0
 150 -22 53 11 53 33 c 0
EndSplineSet
EndChar

StartChar: K
Encoding: 75 75 86
Width: 764
Flags: HW
TeX: 694 0
ItalicCorrection: 117
HStem: 0 21G<125.5 204.5 598.5 686.5> 674 20G<265 327 735 825.5>
DStem2: 90.2466 0 217.3 0 0.207912 0.978148<38.3801 246.219 402.529 697.576> 295 368 403 324 0.788024 0.615644<0 58.0183 187.648 557.06> 505 404 403 324 0.477806 -0.878466<21.5411 402.053>
AnchorPoint: "below" 396 0 basechar 0
AnchorPoint: "above" 548 716 basechar 0
LayerCount: 2
Fore
SplineSet
99 37 m 0
 99 45 102 55 103 60 c 2
 230 655 l 2
 238 691 254 694 276 694 c 2
 316 694 l 2
 338 694 356 679 356 657 c 0
 356 650 354 645 354 643 c 2
 295 368 l 1
 683 671 l 2
 706 688 720 694 750 694 c 2
 816 694 l 1
 835 693 837 685 839 677 c 1
 837 661 826 655 807 640 c 2
 505 404 l 1
 697 51 l 2
 701 43 706 35 706 26 c 0
 706 20 703 0 670 0 c 2
 610 0 l 2
 587 0 577 3 563 28 c 2
 403 324 l 1
 263 215 l 1
 221 19 229 0 180 -0 c 0
 167 0 154 0 141 -0 c 0
 110 0 99 22 99 37 c 0
EndSplineSet
EndChar

StartChar: L
Encoding: 76 76 87
Width: 580
Flags: HW
TeX: 694 0
HStem: -0 105<256 537.068> 674 20G<263 343>
DStem2: 90.6089 -0 234.319 -0 0.207912 0.978148<134.158 699.94>
AnchorPoint: "below" 312 0 basechar 0
AnchorPoint: "above" 465 716 basechar 0
LayerCount: 2
Fore
SplineSet
99 37 m 0
 99 46 102 54 104 63 c 2
 230 655 l 2
 237 686 250 694 276 694 c 2
 329 694 l 2
 357 694 372 680 372 656 c 0
 372 651 372 646 371 641 c 2
 256 102 l 1
 451 105 476 105 500 105 c 2
 505 105 l 2
 518 105 548 102 548 69 c 0
 548 57 540 28 538 23 c 0
 529 2 514 0 497 -0 c 2
 143 -0 l 2
 104 0 99 26 99 37 c 0
EndSplineSet
EndChar

StartChar: M
Encoding: 77 77 88
Width: 978
Flags: HW
TeX: 694 0
ItalicCorrection: 86
HStem: -0 21G<123.5 195.5 795 867.5> 674 20G<267 392 884 1000.5>
DStem2: 90.7345 -0 214.522 -0 0.207912 0.978148<37.2065 602.253> 489 309 365 374 0.183806 -0.982963<-277.387 163.404> 517 148 583 75 0.525994 0.850488<0 546.115> 761.734 -0 885.585 -0 0.207912 0.978148<37.2065 577.45>
AnchorPoint: "below" 488 0 basechar 0
AnchorPoint: "above" 640 716 basechar 0
LayerCount: 2
Fore
SplineSet
99 36 m 0
 99 42 101 47 102 53 c 2
 230 656 l 2
 238 693 258 694 276 694 c 2
 367 694 l 2
 417 694 420 666 425 640 c 2
 489 309 l 2
 507 212 514 180 517 148 c 1
 541 199 784 587 815 636 c 0
 821 646 840 687 884 693 c 1
 905 694 l 1
 982 694 l 2
 1019 694 1024 668 1024 658 c 0
 1024 651 1022 644 1021 637 c 2
 896 49 l 2
 889 20 890 0 845 -0 c 2
 815 -0 l 2
 775 0 770 25 770 36 c 0
 770 42 772 47 773 53 c 2
 881 565 l 1
 870 542 827 469 784 400 c 2
 583 75 l 2
 558 35 543 22 500 22 c 2
 480 22 l 2
 432 22 428 46 422 75 c 2
 365 374 l 2
 337 526 338 526 334 564 c 1
 226 54 l 2
 217 16 217 0 174 -0 c 2
 143 -0 l 2
 104 0 99 25 99 36 c 0
EndSplineSet
EndChar

StartChar: N
Encoding: 78 78 89
Width: 794
Flags: HW
TeX: 694 0
ItalicCorrection: 86
HStem: 0 21G<124 197.5 537 685> 674 20G<264.5 401.5 744 815.5>
VStem: 100 126<5.93262 84.982>
DStem2: 90.5629 0 214.78 0 0.207912 0.978148<37.4513 613.672> 442 639 337 575 0.294976 -0.955505<30.1798 543.398> 577.493 0 702.01 0 0.207912 0.978148<122.681 698.085>
AnchorPoint: "below" 396 0 basechar 0
AnchorPoint: "above" 548 716 basechar 0
LayerCount: 2
Fore
SplineSet
100 36 m 0
 100 42 101 49 102 55 c 2
 230 656 l 2
 237 689 253 694 276 694 c 2
 376 694 l 2
 427 694 433 669 442 639 c 2
 603 120 l 1
 715 645 l 2
 721 674 724 694 764 694 c 2
 795 694 l 2
 836 694 841 669 841 658 c 0
 841 651 838 643 837 636 c 2
 712 47 l 2
 707 25 706 0 664 0 c 2
 562 0 l 2
 512 0 506 29 500 47 c 2
 337 575 l 1
 226 52 l 2
 220 23 219 0 176 0 c 2
 144 0 l 2
 104 0 100 24 100 36 c 0
EndSplineSet
EndChar

StartChar: O
Encoding: 79 79 90
Width: 794
Flags: HW
TeX: 694 0
ItalicCorrection: 72
HStem: -22 81<325.521 500.111> 638 78<435.888 620.088>
VStem: 118 142<123 369.255> 683 137<339.124 573.733>
AnchorPoint: "ogonek" 395 0 basechar 0
AnchorPoint: "below" 395 0 basechar 0
AnchorPoint: "above" 550 716 basechar 0
LayerCount: 2
Fore
SplineSet
118 217 m 0
 118 262 127 327 147 397 c 0
 216 638 372 716 550 716 c 0
 685 716 820 667 820 472 c 0
 820 406 799 250 726 141 c 0
 683 77 592 -22 390 -22 c 0
 254 -22 118 25 118 217 c 0
260 221 m 0
 260 91 337 59 409 59 c 0
 613 59 653 301 664 350 c 0
 670 379 683 435 683 483 c 0
 683 607 606 638 532 638 c 0
 330 638 292 421 278 357 c 0
 272 327 260 271 260 221 c 0
EndSplineSet
EndChar

StartChar: P
Encoding: 80 80 91
Width: 703
Flags: HW
TeX: 694 0
ItalicCorrection: 80
HStem: -0 21G<124 203> 268 79<305 539> 608 86<361 585.316>
VStem: 99 136<4.07812 105.016> 614 135<428.23 581.919>
DStem2: 90.4592 -0 234.035 -0 0.207912 0.978148<47.0864 303.838 384.023 650.962>
AnchorPoint: "below" 342 0 basechar 0
AnchorPoint: "above" 494 716 basechar 0
LayerCount: 2
Fore
SplineSet
99 36 m 0
 99 44 101 51 103 59 c 2
 228 648 l 2
 234 678 241 694 275 694 c 2
 507 694 l 2
 599 694 680 685 723 626 c 0
 742 600 749 568 749 536 c 0
 749 464 720 381 657 330 c 0
 584 271 497 268 412 268 c 2
 291 268 l 1
 238 20 240 25 235 17 c 0
 224 1 207 0 199 -0 c 2
 144 -0 l 2
 104 0 99 25 99 36 c 0
305 347 m 1
 417 347 l 2
 469 347 536 348 576 399 c 0
 606 438 614 506 614 525 c 0
 614 595 559 608 484 608 c 2
 361 608 l 1
 305 347 l 1
EndSplineSet
EndChar

StartChar: Q
Encoding: 81 81 92
Width: 794
Flags: HW
TeX: 694 105
ItalicCorrection: 72
HStem: -22 78<319.071 433> 638 78<431.326 618.206>
VStem: 118 137<123.647 257> 684 136<327.017 570.305>
AnchorPoint: "below" 354 -195 basechar 0
AnchorPoint: "above" 549 716 basechar 0
LayerCount: 2
Fore
SplineSet
118 217 m 0
 118 304 150 483 247 593 c 0
 324 681 432 716 549 716 c 0
 703 716 820 655 820 473 c 0
 820 367 778 121 603 27 c 1
 648 -52 660 -69 660 -80 c 0
 660 -85 658 -105 624 -105 c 2
 550 -105 l 2
 547 -105 545 -106 542 -106 c 0
 506 -106 506 -96 469 -17 c 1
 442 -20 415 -22 388 -22 c 0
 254 -22 118 25 118 217 c 0
255 211 m 1
 256 86 335 56 408 56 c 0
 416 56 425 56 433 57 c 1
 395 138 384 157 384 168 c 0
 384 179 393 195 423 195 c 2
 488 195 l 2
 512 195 509 192 556 110 c 1
 658 196 684 428 684 476 c 0
 684 606 605 638 532 638 c 0
 367 638 292 503 258 257 c 1
 256 231 l 1
 255 211 l 1
EndSplineSet
EndChar

StartChar: R
Encoding: 82 82 93
Width: 703
Flags: HW
TeX: 694 0
ItalicCorrection: 80
HStem: -0 21G<126 205 549.5 633.5> 311 73<313 415> 608 86<361 592.131>
VStem: 616 135<447.905 584.711>
DStem2: 90.7345 -0 231.71 -0 0.207912 0.978148<37.2072 347.297 421.82 650.905> 549 320 415 311 0.342801 -0.939408<0 301.006>
AnchorPoint: "below" 342 0 basechar 0
AnchorPoint: "above" 494 716 basechar 0
LayerCount: 2
Fore
SplineSet
99 36 m 0
 99 42 101 48 102 53 c 2
 228 647 l 2
 233 672 237 694 275 694 c 2
 495 694 l 2
 578 694 680 691 727 625 c 0
 744 601 751 571 751 541 c 0
 751 503 739 358 549 320 c 1
 653 49 l 2
 655 43 657 37 658 30 c 1
 656 10 643 0 624 -0 c 2
 562 -0 l 2
 537 0 528 4 519 26 c 2
 415 311 l 1
 298 311 l 1
 240 39 l 2
 232 4 216 0 194 -0 c 2
 145 -0 l 2
 107 0 99 22 99 36 c 0
313 384 m 1
 430 384 l 2
 513 384 586 391 610 487 c 0
 612 496 616 514 616 532 c 0
 616 596 564 608 488 608 c 2
 361 608 l 1
 313 384 l 1
EndSplineSet
EndChar

StartChar: S
Encoding: 83 83 94
Width: 611
Flags: HW
TeX: 694 0
ItalicCorrection: 86
HStem: -22 108<214.549 409.919> 613 103<345.703 536.838>
VStem: 164 133<464.415 565.144> 465 131<140.126 256.83>
AnchorPoint: "below" 309 0 basechar 0
AnchorPoint: "above" 456 716 basechar 0
LayerCount: 2
Fore
SplineSet
62 60 m 1
 62 70 85 126 103 169 c 0
 107 176 110 178 114 178 c 0
 134 178 175 86 323 86 c 0
 452 86 465 183 465 206 c 0
 465 242 440 265 416 275 c 0
 396 284 319 297 285 309 c 0
 226 330 164 384 164 469 c 0
 164 519 191 716 456 716 c 0
 544 716 599 693 637 671 c 0
 642 668 651 664 651 654 c 0
 651 650 651 652 614 556 c 0
 608 542 607 540 600 537 c 1
 571 539 567 613 447 613 c 0
 392 613 332 607 305 546 c 0
 299 533 297 521 297 510 c 0
 297 477 321 456 348 446 c 0
 406 424 510 431 569 339 c 0
 587 310 596 276 596 242 c 0
 596 188 564 -22 304 -22 c 0
 183 -22 69 33 62 60 c 1
EndSplineSet
EndChar

StartChar: T
Encoding: 84 84 95
Width: 733
Flags: HW
TeX: 694 0
ItalicCorrection: 132
HStem: -0 21G<329 419.5> 584 105<181.981 419 563 820.915>
DStem2: 294.229 -0 438.435 -0 0.207912 0.978148<37.5207 600.114>
AnchorPoint: "below" 366 0 basechar 0
AnchorPoint: "above" 518 716 basechar 0
LayerCount: 2
Fore
SplineSet
172 621 m 0
 172 632 179 660 181 665 c 0
 190 687 208 689 224 689 c 2
 786 689 l 2
 826 689 831 664 831 652 c 0
 831 641 824 612 822 607 c 0
 813 587 794 584 780 584 c 0
 758 584 607 586 563 587 c 1
 448 45 l 2
 443 20 440 0 399 -0 c 0
 382 0 365 0 348 -0 c 0
 310 0 304 22 304 36 c 0
 304 42 305 49 306 56 c 2
 419 587 l 1
 262 585 243 584 223 584 c 0
 206 584 172 585 172 621 c 0
EndSplineSet
EndChar

StartChar: U
Encoding: 85 85 96
Width: 764
Flags: HW
TeX: 694 0
ItalicCorrection: 86
HStem: -22 86<300.901 486.285> 674 20G<268.5 334.5 710.5 787.5>
VStem: 134 140<90.5176 286.414>
DStem2: 86.0447 -22 230.247 -22 0.207912 0.978148<213.727 723.411> 532.233 -22 667.31 -22 0.207912 0.978148<158.588 722.87>
AnchorPoint: "ogonek" 386 0 basechar 0
AnchorPoint: "below" 386 0 basechar 0
AnchorPoint: "above" 533 716 basechar 0
LayerCount: 2
Fore
SplineSet
134 172 m 0
 134 218 145 254 153 293 c 2
 230 655 l 2
 239 695 259 693 278 694 c 1
 328 694 l 2
 341 694 373 692 373 657 c 0
 373 648 371 639 369 630 c 2
 287 245 l 2
 283 225 274 188 274 155 c 0
 274 100 297 64 389 64 c 0
 557 64 576 184 596 278 c 2
 676 655 l 2
 683 690 697 694 724 694 c 2
 768 694 l 2
 807 694 811 666 811 658 c 0
 811 653 810 648 809 643 c 2
 723 240 l 2
 703 145 651 -22 387 -22 c 2
 376 -22 l 2
 322 -22 134 -15 134 172 c 0
EndSplineSet
EndChar

StartChar: V
Encoding: 86 86 97
Width: 733
Flags: HW
TeX: 694 0
ItalicCorrection: 162
HStem: -0 21G<306 434.5> 674 20G<191.5 292 764.5 827>
DStem2: 322 630 170 648 0.157479 -0.987522<-54.5215 510.825> 399 125 494 58 0.503328 0.864095<0 619.187>
AnchorPoint: "below" 364 0 basechar 0
AnchorPoint: "above" 518 716 basechar 0
LayerCount: 2
Fore
SplineSet
169 661 m 0
 169 671 174 694 209 694 c 2
 265 694 l 2
 319 694 316 660 322 630 c 1
 389 200 l 1
 399 125 l 1
 426 175 l 1
 709 661 l 1
 718 673 l 1
 742 693 757 694 772 694 c 2
 816 694 l 2
 838 694 847 685 847 673 c 0
 847 667 844 660 840 652 c 2
 494 58 l 2
 472 21 459 0 410 -0 c 2
 319 -0 l 2
 293 0 273 5 266 46 c 2
 170 648 l 2
 169 652 169 657 169 661 c 0
EndSplineSet
EndChar

StartChar: W
Encoding: 87 87 98
Width: 1039
Flags: HW
TeX: 694 0
ItalicCorrection: 162
HStem: -0 21G<227.5 334.5 689.5 806.5> 674 20G<198 254.5 608 732.5 1081.5 1131>
DStem2: 317 125 393 59 0.431581 0.902074<0 538.627> 758 538 637 569 0.0540794 -0.998537<-32.5358 413.585> 780 125 859 48 0.434409 0.900716<0 639.78>
AnchorPoint: "below" 519 0 basechar 0
AnchorPoint: "above" 671 716 basechar 0
LayerCount: 2
Fore
SplineSet
165 655 m 0
 165 687 186 694 210 694 c 2
 245 694 l 2
 264 694 271 691 283 679 c 1
 294 665 291 676 308 362 c 0
 317 197 316 172 317 125 c 1
 326 151 377 260 559 638 c 0
 572 664 584 694 632 694 c 2
 703 694 l 2
 762 694 751 662 758 538 c 2
 774 243 l 1
 780 125 l 1
 788 143 812 196 863 302 c 2
 1029 647 l 2
 1047 683 1064 694 1099 694 c 2
 1124 694 l 2
 1138 694 1156 691 1156 671 c 0
 1156 661 1149 650 1145 641 c 2
 859 48 l 2
 841 10 822 0 791 -0 c 2
 713 -0 l 2
 666 0 666 28 665 52 c 2
 644 433 l 1
 637 569 l 1
 393 59 l 2
 369 9 356 0 313 0 c 2
 249 0 l 2
 206 0 201 20 199 47 c 2
 166 641 l 2
 166 645 165 651 165 655 c 0
EndSplineSet
EndChar

StartChar: X
Encoding: 88 88 99
Width: 733
Flags: HW
TeX: 694 0
ItalicCorrection: 132
HStem: 0 21G<67 161 558.5 674> 674 20G<229 332 659 772>
DStem2: 57 45 209 35 0.67838 0.734712<27.9978 403.083 595.925 874.736> 460 484 206 643 0.467291 -0.884103<-248.374 0 223.144 479.105> 510 367 414 264 0.467291 -0.884103<46.2027 355.928>
AnchorPoint: "below" 365 0 basechar 0
AnchorPoint: "above" 517 716 basechar 0
LayerCount: 2
Fore
SplineSet
42 19 m 0
 42 29 50 38 57 45 c 2
 362 368 l 1
 206 643 l 2
 201 652 195 661 197 671 c 0
 201 694 226 694 232 694 c 2
 318 694 l 2
 346 694 353 685 364 664 c 2
 460 484 l 1
 642 682 646 694 672 694 c 2
 765 694 l 2
 779 694 791 690 791 674 c 0
 791 667 787 661 775 648 c 2
 510 367 l 1
 688 51 l 2
 692 43 698 35 698 26 c 0
 698 11 684 3 674 1 c 1
 661 0 l 1
 576 0 l 2
 541 0 541 11 506 80 c 2
 414 264 l 1
 209 35 l 2
 183 6 175 0 147 -0 c 2
 72 -0 l 2
 62 0 42 0 42 19 c 0
EndSplineSet
EndChar

StartChar: Y
Encoding: 89 89 100
Width: 733
Flags: HW
TeX: 694 0
ItalicCorrection: 175
HStem: -0 21G<331 408.5> 674 20G<187 278 752.5 832>
DStem2: 335 665 177 639 0.444233 -0.895911<-40.2373 289.814> 459 403 501 283 0.675084 0.737741<0 412.807>
AnchorPoint: "below" 366 0 basechar 0
AnchorPoint: "above" 518 716 basechar 0
LayerCount: 2
Fore
SplineSet
167 667 m 0
 167 673 170 694 204 694 c 2
 271 694 l 2
 285 694 315 694 335 665 c 0
 340 658 441 453 459 403 c 1
 477 429 627 593 670 640 c 0
 712 685 732 694 773 694 c 2
 824 694 l 2
 840 694 846 690 851 675 c 1
 848 663 848 662 835 648 c 2
 501 283 l 1
 493 272 495 281 446 49 c 0
 439 14 425 0 392 -0 c 2
 342 -0 l 2
 320 0 317 3 307 16 c 0
 305 20 304 24 304 29 c 0
 304 41 339 201 356 278 c 1
 177 639 l 2
 173 647 167 657 167 667 c 0
EndSplineSet
EndChar

StartChar: Z
Encoding: 90 90 101
Width: 672
Flags: HW
TeX: 694 0
ItalicCorrection: 117
HStem: 0 102<257 620.13> 595 99<219.889 563>
DStem2: 92 95 257 102 0.683507 0.729944<117.888 689.094>
AnchorPoint: "below" 338 0 basechar 0
AnchorPoint: "above" 490 716 basechar 0
LayerCount: 2
Fore
SplineSet
68 29 m 0
 68 73 92 95 92 95 c 1
 563 598 l 1
 256 595 l 1
 253 595 l 2
 245 595 210 596 210 631 c 0
 210 639 216 664 219 671 c 0
 228 691 245 694 259 694 c 2
 717 694 l 2
 737 694 750 683 750 665 c 0
 750 623 725 601 725 601 c 1
 257 102 l 1
 574 106 567 105 575 105 c 0
 591 105 602 104 608 102 c 0
 619 97 630 87 630 69 c 0
 630 57 623 28 621 23 c 0
 612 2 594 0 580 0 c 2
 106 0 l 2
 85 0 68 6 68 29 c 0
EndSplineSet
EndChar

StartChar: bracketleft
Encoding: 91 91 102
Width: 343
Flags: HW
TeX: 746 249
ItalicCorrection: 159
HStem: -250 73<182 269.662> 677 73<364 466.67>
DStem2: 31.0968 -250 166.483 -250 0.207912 0.978148<102.779 975.957>
LayerCount: 2
Fore
SplineSet
40 -213 m 0
 40 -206 42 -200 43 -194 c 2
 235 709 l 2
 240 732 245 750 283 750 c 2
 425 750 l 2
 465 750 470 725 470 714 c 0
 470 704 465 677 425 677 c 2
 364 677 l 1
 182 -177 l 1
 224 -177 l 2
 234 -177 243 -177 252 -181 c 0
 258 -184 273 -194 273 -213 c 0
 273 -224 268 -250 228 -250 c 2
 84 -250 l 2
 46 -250 40 -224 40 -213 c 0
EndSplineSet
EndChar

StartChar: backslash
Encoding: 92 92 103
Width: 550
Flags: HW
TeX: 746 249
VStem: 369 73<-246.401 -170.045>
DStem2: 286 710 215 690 0.168478 -0.985705<-15.0994 935.764>
LayerCount: 2
Fore
SplineSet
212 713 m 0
 212 737 231 750 248 750 c 0
 282 750 286 711 286 710 c 2
 439 -191 l 2
 440 -198 442 -206 442 -213 c 0
 442 -235 425 -250 406 -250 c 0
 372 -250 369 -211 369 -211 c 1
 215 690 l 2
 214 697 212 706 212 713 c 0
EndSplineSet
EndChar

StartChar: bracketright
Encoding: 93 93 104
Width: 343
Flags: HW
TeX: 746 249
ItalicCorrection: 105
HStem: -250 73<-17.6703 86> 677 73<180.126 267>
DStem2: 70.4834 -250 205.285 -250 0.207912 0.978148<74.6309 947.601>
LayerCount: 2
Fore
SplineSet
-21 -214 m 0
 -21 -204 -16 -177 24 -177 c 2
 86 -177 l 1
 267 677 l 1
 226 677 l 2
 216 677 206 677 197 681 c 0
 191 684 177 694 177 713 c 0
 177 725 182 750 222 750 c 2
 365 750 l 2
 404 750 409 723 409 713 c 0
 409 706 407 701 406 694 c 2
 214 -209 l 2
 209 -233 204 -250 166 -250 c 2
 24 -250 l 2
 -16 -250 -21 -225 -21 -214 c 0
EndSplineSet
EndChar

StartChar: asciicircum
Encoding: 94 94 105
Width: 672
Flags: HW
TeX: 720 0
ItalicCorrection: 57
HStem: 458 176<519.034 528.998>
VStem: 270 331
LayerCount: 2
Fore
SplineSet
270 471 m 0
 270 480 270 476 405 620 c 0
 417 632 421 634 432 634 c 2
 504 634 l 2
 519 634 521 632 529 618 c 0
 605 469 601 480 601 470 c 1
 599 464 599 459 584 458 c 1
 551 458 l 1
 533 459 539 456 455 553 c 1
 343 465 340 458 321 458 c 2
 293 458 l 2
 282 458 270 460 270 471 c 0
EndSplineSet
EndChar

StartChar: underscore
Encoding: 95 95 106
Width: 855
Flags: HW
TeX: 0 335
HStem: -336 84<35.2226 694.544>
LayerCount: 2
Fore
SplineSet
30 -294 m 0
 30 -283 35 -252 79 -252 c 2
 650 -252 l 2
 695 -252 700 -284 700 -294 c 0
 700 -306 694 -336 652 -336 c 2
 80 -336 l 2
 35 -336 30 -308 30 -294 c 0
EndSplineSet
EndChar

StartChar: quoteleft
Encoding: 8216 8216 107
Width: 305
Flags: HW
TeX: 720 0
ItalicCorrection: 96
HStem: 486 236<294.538 316.935>
VStem: 194 151<497.626 604.463>
LayerCount: 2
Fore
SplineSet
194 501 m 0
 194 512 215 603 217 608 c 0
 221 618 223 618 298 708 c 0
 306 717 310 722 327 722 c 2
 347 722 l 2
 365 722 368 714 368 709 c 0
 368 701 360 690 317 617 c 1
 325 617 l 2
 335 617 345 616 345 602 c 0
 345 589 338 563 325 504 c 0
 322 492 319 486 303 486 c 2
 215 486 l 2
 204 486 194 488 194 501 c 0
EndSplineSet
EndChar

StartChar: a
Encoding: 97 97 108
Width: 525
Flags: HW
TeX: 458 0
ItalicCorrection: 38
HStem: -11 73<136.5 283.371> -0 21G<369 450> 231 60<264.142 376> 404 71<245.629 394.574>
VStem: 56 132<71.1683 170.673> 400 136<291.473 397.392>
AnchorPoint: "ogonek" 397 0 basechar 0
AnchorPoint: "affricate-below" 484 -195 basechar 0
AnchorPoint: "affricate-above" 678 722 basechar 0
AnchorPoint: "below" 264 0 basechar 0
AnchorPoint: "above" 365 474 basechar 0
LayerCount: 2
Fore
SplineSet
56 109 m 0
 56 255 249 291 390 291 c 1
 394 312 400 333 400 356 c 0
 400 395 377 404 346 404 c 0
 237 404 183 339 166 335 c 1
 157 335 153 339 153 351 c 0
 153 362 156 380 160 409 c 0
 163 430 165 432 185 440 c 0
 266 474 325 475 360 475 c 2
 370 475 l 2
 411 475 536 470 536 354 c 0
 536 318 538 351 489 110 c 0
 471 22 473 0 427 -0 c 0x7c
 411 0 395 0 379 -0 c 0x7c
 359 0 340 10 338 39 c 1
 291 10 241 -11 176 -11 c 0xbc
 97 -11 56 46 56 109 c 0
188 118 m 0xbc
 188 96 198 62 241 62 c 0
 284 62 331 88 351 126 c 0
 360 143 366 184 376 231 c 1
 227 224 188 163 188 118 c 0xbc
EndSplineSet
EndChar

StartChar: b
Encoding: 98 98 109
Width: 561
Flags: HW
TeX: 720 0
ItalicCorrection: 33
HStem: -11 73<230.093 360.354> 0 21G<110 173.5> 396 73<321.42 468.393> 702 20G<232 314>
VStem: 449 133<198.702 379.565>
DStem2: 57.0583 -11 194.831 -11 0.207912 0.978148<124.062 429.251 479.941 739.724>
AnchorPoint: "affricate-below" 520 -195 basechar 0
AnchorPoint: "affricate-above" 714 722 basechar 0
AnchorPoint: "below" 291 0 basechar 0
AnchorPoint: "above" 445 722 basechar 0
LayerCount: 2
Fore
SplineSet
68 37 m 0
 68 46 71 55 73 64 c 2
 203 675 l 2
 209 702 213 722 251 722 c 2
 294 722 l 2
 334 722 339 697 339 686 c 0
 339 674 303 509 286 431 c 1
 327 452 373 469 431 469 c 0
 504 469 583 439 583 316 c 1
 582 291 l 1
 560 97 473 -11 310 -11 c 0xb8
 264 -11 233 3 203 28 c 1
 194 9 187 0 160 -0 c 0x78
 146 0 132 0 118 0 c 0x78
 102 0 68 1 68 37 c 0
218 98 m 1
 236 73 253 62 285 62 c 0xb8
 403 62 423 174 433 220 c 0
 446 280 449 301 449 321 c 0
 449 361 434 396 373 396 c 0
 328 396 300 378 274 360 c 1
 218 98 l 1
EndSplineSet
EndChar

StartChar: c
Encoding: 99 99 110
Width: 489
Flags: HW
TeX: 458 0
ItalicCorrection: 85
HStem: -11 78<228.147 388.406> 396 79<289.786 442.222>
VStem: 76 134<85.7522 272.084>
AnchorPoint: "affricate-below" 448 -195 basechar 0
AnchorPoint: "affricate-above" 642 722 basechar 0
AnchorPoint: "below" 275 0 basechar 0
AnchorPoint: "above" 373 474 basechar 0
LayerCount: 2
Fore
SplineSet
76 156 m 0
 76 191 83 218 88 244 c 1
 118 369 196 475 373 475 c 0
 451 475 484 463 531 434 c 1
 536 429 l 1
 539 424 l 1
 539 419 l 1
 538 412 523 375 511 347 c 0
 508 342 505 339 501 339 c 0
 487 339 468 374 431 387 c 0
 409 395 386 396 359 396 c 0
 249 396 232 279 217 208 c 0
 213 189 210 169 210 149 c 0
 210 105 225 67 288 67 c 0
 390 67 441 126 462 131 c 1
 465 131 l 1
 472 128 475 126 475 118 c 0
 475 110 473 94 469 59 c 0
 466 38 463 37 441 27 c 0
 380 -1 326 -11 273 -11 c 0
 148 -11 76 44 76 156 c 0
EndSplineSet
EndChar

StartChar: d
Encoding: 100 100 111
Width: 561
Flags: HW
TeX: 720 0
ItalicCorrection: 124
HStem: -11 73<225.581 332.303> -0 21G<408.5 481.5> 396 73<294.51 432.674> 702 20G<532 621>
VStem: 75 134<78.6758 266.2>
AnchorPoint: "affricate-below" 520 -195 basechar 0
AnchorPoint: "affricate-above" 714 722 basechar 0
AnchorPoint: "below" 268 0 basechar 0
AnchorPoint: "above" 421 722 basechar 0
LayerCount: 2
Fore
SplineSet
75 145 m 0
 75 198 94 326 165 400 c 0
 211 449 277 469 338 469 c 0
 410 469 447 439 457 432 c 1
 519 722 507 722 557 722 c 2
 602 722 l 2
 640 722 645 696 645 686 c 0
 645 681 644 675 643 670 c 2
 509 39 l 2
 505 23 499 0 464 -0 c 2x78
 417 -0 l 2x78
 400 0 378 2 371 32 c 1
 331 8 294 -11 237 -11 c 0xb8
 161 -11 75 20 75 145 c 0
209 135 m 0
 209 76 246 62 284 62 c 0
 325 62 356 80 386 110 c 1
 439 359 439 358 439 363 c 0xb8
 439 376 412 396 372 396 c 0
 255 396 235 288 226 247 c 0
 211 181 209 157 209 135 c 0
EndSplineSet
EndChar

StartChar: e
Encoding: 101 101 112
Width: 511
Flags: HW
TeX: 458 0
ItalicCorrection: 75
HStem: -11 73<222.617 397.362> 214 65<221 429.572> 402 73<293.902 417.446>
VStem: 72 125<87.8162 211.252> 432 109<279.78 388.748>
AnchorPoint: "ogonek" 288 0 basechar 0
AnchorPoint: "affricate-below" 470 -195 basechar 0
AnchorPoint: "affricate-above" 664 722 basechar 0
AnchorPoint: "below" 288 0 basechar 0
AnchorPoint: "above" 363 474 basechar 0
LayerCount: 2
Fore
SplineSet
72 169 m 0
 72 246 109 475 363 475 c 0
 501 475 541 400 541 320 c 0
 541 294 537 274 534 254 c 1
 526 215 507 214 488 214 c 2
 204 214 l 1
 201 194 197 173 197 152 c 0
 197 101 217 62 293 62 c 0
 402 62 458 124 478 128 c 1
 483 127 491 125 491 113 c 0
 491 106 489 92 485 60 c 0
 482 38 479 38 444 23 c 0
 403 5 349 -11 286 -11 c 0
 186 -11 72 25 72 169 c 0
221 279 m 1
 426 279 l 1
 429 296 432 313 432 331 c 0
 432 372 419 402 362 402 c 0
 305 402 251 370 221 279 c 1
EndSplineSet
EndChar

StartChar: f
Encoding: 102 102 113
Width: 336
Flags: HW
TeX: 720 0
ItalicCorrection: 229
HStem: -0 21G<118 200.5> 385 73<122.814 166 314 400.965> 660 73<367.205 482.707>
VStem: 93 135<4.30115 72.6351>
DStem2: 84.1657 -0 220.166 -0 0.207912 0.978148<103.126 393.601 495.777 669.916>
AnchorPoint: "affricate-below" 295 -195 basechar 0
AnchorPoint: "affricate-above" 489 722 basechar 0
AnchorPoint: "above" 433 722 basechar 0
AnchorPoint: "below" 152 0 basechar 0
LayerCount: 2
Fore
SplineSet
93 36 m 0
 93 43 93 37 166 385 c 1
 126 385 120 407 120 422 c 0
 120 436 127 458 166 458 c 2
 183 458 l 1
 206 567 214 733 435 733 c 0
 507 733 531 723 531 707 c 0
 531 701 529 695 519 649 c 0
 516 636 516 626 504 623 c 1
 501 623 l 1
 494 625 l 1
 481 642 466 660 424 660 c 0
 345 660 346 610 314 458 c 1
 360 458 l 2
 373 458 404 456 404 422 c 0
 404 412 400 385 360 385 c 2
 302 385 l 1
 228 40 l 2
 224 20 218 0 183 -0 c 0
 168 0 153 0 138 -0 c 0
 98 0 93 26 93 36 c 0
EndSplineSet
EndChar

StartChar: g
Encoding: 103 103 114
Width: 550
Flags: HW
TeX: 458 194
ItalicCorrection: 112
HStem: -206 72<131.702 320> -17 109<156.488 398.831> 138 73<232.258 345.223> 397 72<268.013 384.336 505.421 621.258>
VStem: 8 105<-114.838 -30.4723> 75 79<71.5 157.715> 103 125<216.339 349.828> 389 126<254.856 391.23> 408 107<-97.6059 29.5>
AnchorPoint: "affricate-below" 509 -195 basechar 0
AnchorPoint: "affricate-above" 703 722 basechar 0
AnchorPoint: "below" 238 -195 basechar 0
AnchorPoint: "above" 346 474 basechar 0
LayerCount: 2
Fore
SplineSet
8 -87 m 0xf880
 8 -56 22 -1 88 30 c 1
 81 45 75 61 75 82 c 0xf4
 75 125 96 163 123 193 c 1
 123 194 l 1
 111 211 103 232 103 264 c 0xf2
 103 328 135 468 338 469 c 1
 376 468 424 468 465 442 c 1
 478 446 538 469 601 469 c 0
 614 469 622 466 622 449 c 0
 622 403 620 393 604 393 c 0
 597 393 575 397 531 397 c 0
 522 397 514 397 505 396 c 1
 512 376 515 363 515 343 c 0
 515 282 486 138 274 138 c 0
 224 138 192 145 163 159 c 1
 158 150 154 141 154 128 c 0xf5
 154 94 185 92 196 92 c 2
 299 92 l 2
 401 92 515 87 515 -28 c 0
 515 -132 435 -188 320 -202 c 1
 289 -205 l 1
 250 -206 l 1
 221 -206 l 2
 141 -206 8 -193 8 -87 c 0xf880
113 -77 m 0
 113 -123 168 -134 243 -134 c 0
 375 -134 408 -88 408 -57 c 0xf880
 408 -25 372 -17 268 -17 c 2
 189 -17 l 2
 167 -17 149 -17 134 -30 c 0
 123 -39 113 -58 113 -77 c 0
228 254 m 0
 228 220 249 212 281 211 c 1
 293 211 l 1
 360 213 371 255 381 299 c 0
 384 316 389 334 389 353 c 0xf3
 389 379 378 397 332 397 c 0
 262 397 248 358 237 310 c 0
 234 293 228 273 228 254 c 0
EndSplineSet
EndChar

StartChar: h
Encoding: 104 104 115
Width: 561
Flags: HW
TeX: 720 0
ItalicCorrection: 46
HStem: 0 21G<92 178 397 486> 396 73<346.405 485> 702 20G<229 314>
VStem: 437 139<250.743 392.316>
DStem2: 58.0968 0 196.585 0 0.207912 0.978148<38.3638 388.041 443.264 728.883>
AnchorPoint: "affricate-below" 520 -195 basechar 0
AnchorPoint: "affricate-above" 714 722 basechar 0
AnchorPoint: "below" 279 0 basechar 0
AnchorPoint: "above" 432 722 basechar 0
LayerCount: 2
Fore
SplineSet
67 37 m 0
 67 44 69 51 70 56 c 2
 203 681 l 2
 206 697 212 722 246 722 c 2
 298 722 l 2
 330 722 338 699 338 686 c 0
 338 679 336 672 335 665 c 2
 280 406 l 1
 331 446 381 469 449 469 c 0
 521 469 576 450 576 375 c 0
 576 343 567 309 512 50 c 0
 507 26 506 1 466 0 c 1
 417 0 l 2
 377 0 372 26 372 36 c 0
 372 44 374 52 376 60 c 2
 432 323 l 2
 433 327 437 346 437 361 c 0
 437 379 430 396 392 396 c 0
 339 396 283 356 260 293 c 0
 256 282 259 293 207 49 c 0
 201 22 198 0 158 -0 c 2
 111 -0 l 2
 73 0 67 27 67 37 c 0
EndSplineSet
EndChar

StartChar: j
Encoding: 106 106 117
Width: 286
Flags: HW
TeX: 720 194
ItalicCorrection: 124
HStem: -206 86<-68.7786 57.9546> 438 20G<217.5 289.5> 580 143<233.716 349.432>
VStem: 215 156<597.652 708.097>
DStem2: 47.817 -206 182.653 -206 0.207912 0.978148<97.0571 669.552>
AnchorPoint: "affricate-below" 245 -195 basechar 0
AnchorPoint: "affricate-above" 439 722 basechar 0
AnchorPoint: "below" 72 -195 basechar 0
LayerCount: 2
Fore
SplineSet
-103 -158 m 0
 -103 -156 -84 -100 -69 -100 c 0
 -57 -100 -44 -120 1 -120 c 0
 47 -120 70 -97 78 -64 c 1
 180 419 l 2
 189 459 208 457 227 458 c 1
 274 458 l 2
 305 458 315 436 315 422 c 0
 315 416 313 411 312 405 c 2
 219 -35 l 1
 198 -123 154 -206 34 -206 c 0
 -19 -206 -103 -180 -103 -158 c 0
EndSplineSet
Refer: 22 729 S 1 0 0 1 -13 0 2
EndChar

StartChar: k
Encoding: 107 107 118
Width: 530
Flags: HW
TeX: 720 0
ItalicCorrection: 85
HStem: 0 21G<100.5 170 397.5 475.5> 438 20G<465 552.5> 702 20G<240.5 302.5>
DStem2: 67.3094 0 183.479 0 0.207912 0.978148<37.2963 180.571 336.526 725.35> 370 272 271 195 0.478303 -0.878195<20.2691 253.661>
AnchorPoint: "affricate-below" 489 -195 basechar 0
AnchorPoint: "affricate-above" 683 722 basechar 0
AnchorPoint: "below" 281 0 basechar 0
AnchorPoint: "above" 434 722 basechar 0
LayerCount: 2
Fore
SplineSet
76 36 m 0
 76 42 78 49 79 55 c 2
 212 678 l 2
 217 702 221 722 260 722 c 2
 285 722 l 2
 320 722 330 707 330 686 c 0
 330 680 329 673 328 667 c 2
 251 305 l 1
 450 459 440 458 490 458 c 2
 549 458 l 1
 556 457 574 458 574 441 c 0
 574 425 580 434 370 272 c 1
 492 48 l 2
 497 39 499 31 499 25 c 0
 499 9 485 0 466 0 c 2
 410 0 l 2
 385 0 376 4 362 30 c 2
 271 195 l 1
 216 153 l 1
 189 23 193 0 147 -0 c 0
 138 0 129 0 120 -0 c 0
 81 0 76 26 76 36 c 0
EndSplineSet
EndChar

StartChar: l
Encoding: 108 108 119
Width: 255
Flags: HW
TeX: 720 0
ItalicCorrection: 124
HStem: 0 21G<107 167> 702 20G<238.5 313.5>
DStem2: 59.7345 0 195.222 0 0.207912 0.978148<37.4143 728.842>
AnchorPoint: "affricate-below" 214 -195 basechar 0
AnchorPoint: "affricate-above" 408 722 basechar 0
AnchorPoint: "below" 127 0 basechar 0
AnchorPoint: "above" 280 722 basechar 0
LayerCount: 2
Fore
SplineSet
69 36 m 0
 69 42 70 47 71 53 c 2
 203 675 l 2
 213 721 225 722 252 722 c 2
 299 722 l 2
 328 722 339 703 339 686 c 0
 339 681 338 675 337 670 c 2
 205 46 l 2
 195 -1 179 1 155 0 c 1
 113 0 l 2
 101 0 69 1 69 36 c 0
EndSplineSet
EndChar

StartChar: m
Encoding: 109 109 120
Width: 866
Flags: HW
TeX: 458 0
ItalicCorrection: 46
HStem: -0 21G<92.5 166.5 397.5 493 705 784> 396 73<346.296 479.39 652.609 784.474>
VStem: 744 138<252.581 392.214>
DStem2: 58.0258 -0 191.34 -0 0.207912 0.978148<38.5608 378.416 439.721 464.638>
AnchorPoint: "affricate-below" 825 -195 basechar 0
AnchorPoint: "affricate-above" 1019 722 basechar 0
AnchorPoint: "below" 432 0 basechar 0
AnchorPoint: "above" 533 474 basechar 0
LayerCount: 2
Fore
SplineSet
67 37 m 0
 67 48 71 57 73 67 c 2
 149 428 l 2
 157 463 181 464 194 464 c 2
 240 464 l 2
 269 464 281 444 281 428 c 0
 281 420 279 411 277 403 c 1
 321 439 374 469 449 469 c 0
 523 469 562 451 575 396 c 1
 618 435 676 469 755 469 c 0
 827 469 882 450 882 375 c 0
 882 342 872 307 815 37 c 0
 809 11 798 0 770 -0 c 2
 725 -0 l 2
 685 0 678 22 678 37 c 0
 678 46 681 55 683 64 c 2
 737 319 l 2
 740 331 744 346 744 359 c 0
 744 386 730 396 698 396 c 0
 637 396 581 343 564 289 c 1
 501 27 521 0 465 -0 c 0
 449 0 433 0 417 -0 c 0
 378 0 373 25 373 36 c 0
 373 43 375 49 376 56 c 2
 433 324 l 2
 436 335 438 347 438 359 c 0
 438 385 425 396 393 396 c 0
 321 396 273 335 258 289 c 0
 253 275 205 35 200 23 c 0
 191 2 174 0 159 -0 c 2
 112 -0 l 2
 73 0 67 24 67 37 c 0
EndSplineSet
EndChar

StartChar: n
Encoding: 110 110 121
Width: 561
Flags: HW
TeX: 458 0
ItalicCorrection: 46
HStem: -0 21G<92.5 179.5 401.5 479.5> 396 68<335.843 478.479>
VStem: 149 131<404 459.546> 438 138<249.083 392.372>
DStem2: 58.1596 -0 196.648 -0 0.207912 0.978148<37.2807 387.456 440.671 463.38>
AnchorPoint: "affricate-below" 520 -195 basechar 0
AnchorPoint: "affricate-above" 714 722 basechar 0
AnchorPoint: "below" 279 0 basechar 0
AnchorPoint: "above" 380 474 basechar 0
LayerCount: 2
Fore
SplineSet
67 36 m 0
 67 41 68 46 69 51 c 2
 149 428 l 2
 157 463 181 464 194 464 c 2
 236 464 l 2
 255 464 280 459 280 427 c 0
 280 418 278 410 277 404 c 1
 321 439 374 469 449 469 c 0
 521 469 576 450 576 375 c 0
 576 342 567 308 510 40 c 0
 504 14 496 0 463 -0 c 2
 417 -0 l 2
 386 0 373 14 373 36 c 0
 373 41 374 47 375 53 c 2
 431 320 l 2
 434 332 438 346 438 359 c 0
 438 386 424 396 393 396 c 0
 332 396 276 344 258 286 c 1
 206 44 l 2
 202 24 200 0 159 -0 c 2
 113 -0 l 2
 72 0 67 24 67 36 c 0
EndSplineSet
EndChar

StartChar: o
Encoding: 111 111 122
Width: 550
Flags: HW
TeX: 458 0
ItalicCorrection: 68
HStem: -11 78<224.029 360.271> 402 72<284.923 423.751>
VStem: 69 135<87.1606 271.833> 445 131<199.42 381.322>
AnchorPoint: "ogonek" 282 0 basechar 0
AnchorPoint: "affricate-below" 509 -195 basechar 0
AnchorPoint: "affricate-above" 703 722 basechar 0
AnchorPoint: "below" 282 0 basechar 0
AnchorPoint: "above" 374 474 basechar 0
LayerCount: 2
Fore
SplineSet
69 151 m 0
 69 211 94 337 174 408 c 0
 224 453 292 474 374 474 c 0
 479 474 576 441 576 306 c 0
 576 215 537 -11 285 -11 c 2
 274 -11 l 2
 212 -11 69 -6 69 151 c 0
204 146 m 0
 204 99 226 67 288 67 c 0
 398 67 418 157 441 281 c 0
 442 290 445 307 445 324 c 0
 445 381 410 402 359 402 c 0
 255 402 230 325 207 185 c 0
 206 174 204 161 204 146 c 0
EndSplineSet
EndChar

StartChar: p
Encoding: 112 112 123
Width: 561
Flags: HW
TeX: 458 194
ItalicCorrection: 42
HStem: -195 21G<51 144> -11 73<231.016 352.787> 391 78<325.176 473> 438 20G<175.5 239.5>
VStem: 445 137<185.819 368.887>
DStem2: 18.7345 -195 156.6 -195 0.207912 0.978148<38.1846 256.646 312.507 613.399>
AnchorPoint: "affricate-below" 520 -195 basechar 0
AnchorPoint: "affricate-above" 714 722 basechar 0
AnchorPoint: "below" 249 -195 basechar 0
AnchorPoint: "above" 392 474 basechar 0
LayerCount: 2
Fore
SplineSet
27 -158 m 0
 27 -152 29 -147 30 -142 c 2
 149 421 l 2
 152 436 158 458 193 458 c 2xd8
 233 458 l 1xd8
 246 456 273 464 283 428 c 1
 325 450 376 469 438 469 c 0xe8
 508 469 583 439 583 319 c 1
 582 293 l 1
 570 196 535 -11 311 -11 c 0
 265 -11 234 2 204 28 c 1
 160 -176 169 -195 119 -195 c 2
 70 -195 l 2
 32 -195 27 -168 27 -158 c 0
219 98 m 1
 229 84 245 62 285 62 c 0
 421 62 445 255 445 303 c 0xe8
 445 350 430 391 370 391 c 0
 331 391 297 373 273 356 c 1
 219 98 l 1
EndSplineSet
EndChar

StartChar: q
Encoding: 113 113 124
Width: 561
Flags: HW
TeX: 458 194
ItalicCorrection: 68
HStem: -195 21G<354.5 428> -11 73<232.535 332.9> 391 78<300.791 419.229>
VStem: 75 136<83.1827 268.256> 435 156<329.095 450.5>
AnchorPoint: "affricate-below" 520 -195 basechar 0
AnchorPoint: "affricate-above" 714 722 basechar 0
AnchorPoint: "below" 226 -195 basechar 0
AnchorPoint: "above" 368 474 basechar 0
LayerCount: 2
Fore
SplineSet
75 146 m 0
 75 207 96 327 164 398 c 0
 212 449 280 469 343 469 c 0
 390 469 426 454 454 421 c 1
 460 442 459 469 502 469 c 2
 545 469 l 2
 558 469 591 468 591 433 c 0
 591 425 589 417 587 409 c 2
 465 -162 l 1
 457 -194 435 -195 421 -195 c 2
 374 -195 l 2
 335 -195 330 -169 330 -158 c 0
 330 -149 329 -157 369 32 c 1
 335 9 294 -11 241 -11 c 0
 163 -11 75 21 75 146 c 0
211 150 m 0
 211 74 255 62 285 62 c 0
 293 62 329 62 367 95 c 0
 388 113 389 117 393 135 c 0
 407 201 435 326 435 333 c 0
 435 343 423 391 370 391 c 0
 234 391 211 199 211 150 c 0
EndSplineSet
EndChar

StartChar: r
Encoding: 114 114 125
Width: 372
Flags: HW
TeX: 458 0
ItalicCorrection: 112
HStem: -0 21G<95 161.5> 356 113<352.085 434.861>
VStem: 150 129<393.934 448.673>
AnchorPoint: "affricate-below" 331 -195 basechar 0
AnchorPoint: "affricate-above" 525 722 basechar 0
AnchorPoint: "below" 136 0 basechar 0
AnchorPoint: "above" 311 474 basechar 0
LayerCount: 2
Fore
SplineSet
68 36 m 0
 68 47 72 58 74 68 c 2
 150 427 l 2
 158 462 175 464 198 464 c 2
 230 464 l 2
 251 464 259 463 272 449 c 1
 277 442 279 436 279 428 c 0
 279 418 276 407 273 391 c 1
 345 462 410 469 433 469 c 0
 443 469 452 467 452 454 c 0
 452 448 438 381 434 375 c 0
 426 363 404 371 362 356 c 0
 310 338 258 297 246 242 c 0
 196 17 203 21 187 8 c 0
 178 1 167 0 156 -0 c 2
 115 -0 l 2
 75 0 68 22 68 36 c 0
EndSplineSet
EndChar

StartChar: s
Encoding: 115 115 126
Width: 422
Flags: HW
TeX: 458 0
ItalicCorrection: 79
HStem: -11 79<145.534 303.574> 401 74<226.374 384.179>
VStem: 104 107<296 384.587> 323 106<87.8392 179>
AnchorPoint: "affricate-below" 381 -195 basechar 0
AnchorPoint: "affricate-above" 575 722 basechar 0
AnchorPoint: "below" 222 0 basechar 0
AnchorPoint: "above" 313 474 basechar 0
LayerCount: 2
Fore
SplineSet
41 49 m 0
 41 58 69 124 75 137 c 1
 79 143 82 143 85 144 c 1
 89 143 l 1
 106 134 128 68 231 68 c 0
 306 68 323 107 323 132 c 0
 323 204 171 152 116 255 c 0
 108 271 104 287 104 305 c 0
 104 344 125 404 166 435 c 0
 202 463 248 475 313 475 c 0
 400 475 468 447 468 429 c 0
 468 422 446 364 438 349 c 1
 434 348 431 347 429 347 c 0
 407 347 407 394 305 401 c 1
 287 401 l 1
 220 398 211 361 211 344 c 0
 211 279 345 326 408 236 c 0
 423 214 429 189 429 169 c 0
 429 132 410 65 360 27 c 0
 317 -5 262 -11 220 -11 c 0
 119 -11 65 25 51 34 c 0
 45 39 41 43 41 49 c 0
EndSplineSet
EndChar

StartChar: t
Encoding: 116 116 127
Width: 404
Flags: HW
TeX: 589 0
ItalicCorrection: 72
HStem: -11 79<163.5 318.407> 385 73<125.469 168 316 439.625> 385 66<113.375 156.484>
VStem: 108 135<69.1474 201.726>
AnchorPoint: "affricate-below" 363 -195 basechar 0
AnchorPoint: "affricate-above" 557 722 basechar 0
AnchorPoint: "below" 169 0 basechar 0
AnchorPoint: "above" 277 589 basechar 0
LayerCount: 2
Fore
SplineSet
108 78 m 0
 108 109 112 117 168 385 c 1
 154 385 l 2xd0
 114 385 110 413 110 422 c 0
 110 433 115 444 125 451 c 0xb0
 135 458 146 458 157 458 c 2
 186 458 l 1
 212 581 207 567 223 582 c 1
 230 587 235 589 252 589 c 2xd0
 290 589 l 2
 329 589 335 564 335 552 c 0
 335 543 332 533 316 458 c 1
 400 458 l 2
 438 458 443 431 443 422 c 0
 443 413 439 385 399 385 c 2xd0
 300 385 l 1xb0
 245 124 243 123 243 102 c 0
 243 74 255 68 271 68 c 0
 323 68 354 102 368 102 c 0
 381 102 380 87 382 55 c 1
 381 42 382 38 364 29 c 0
 301 0 243 -11 191 -11 c 0
 136 -11 108 19 108 78 c 0
EndSplineSet
EndChar

StartChar: u
Encoding: 117 117 128
Width: 561
Flags: HW
TeX: 458 0
ItalicCorrection: 68
HStem: -11 62<216.06 323.557> -0 21G<399.5 481.5> 438 20G<177.5 255 478 565.5>
VStem: 80 135<53.4853 191.25>
DStem2: 55.2035 -11 193.667 -11 0.207912 0.978148<122.925 469.9> 360.301 -11 498.639 -11 0.207912 0.978148<105.033 470.765>
AnchorPoint: "ogonek" 433 0 basechar 0
AnchorPoint: "affricate-below" 520 -195 basechar 0
AnchorPoint: "affricate-above" 714 722 basechar 0
AnchorPoint: "below" 279 0 basechar 0
AnchorPoint: "above" 380 474 basechar 0
LayerCount: 2
Fore
SplineSet
80 83 m 0
 80 105 85 128 89 148 c 2
 147 419 l 2
 153 446 161 458 194 458 c 2
 240 458 l 2
 270 458 284 444 284 421 c 0
 284 416 283 411 282 405 c 2
 223 127 l 2
 220 112 215 95 215 80 c 0
 215 57 229 51 266 51 c 0xb0
 341 51 383 114 396 157 c 1
 450 411 l 2
 455 435 458 458 498 458 c 0
 514 458 530 458 546 458 c 0
 585 458 589 432 589 422 c 0
 589 415 588 407 586 400 c 2
 511 47 l 2
 505 19 501 0 462 -0 c 2x70
 416 -0 l 2x70
 383 0 374 22 375 42 c 1
 301 -15 244 -10 220 -11 c 1
 144 -11 80 5 80 83 c 0
EndSplineSet
EndChar

StartChar: v
Encoding: 118 118 129
Width: 500
Flags: HW
TeX: 458 0
ItalicCorrection: 112
HStem: -0 21G<186 311> 438 20G<142 216 495.5 547>
DStem2: 243 397 116 425 0.111893 -0.99372<-59.8647 285.797> 275 113 363 53 0.473658 0.880709<0 400.993>
AnchorPoint: "affricate-below" 459 -195 basechar 0
AnchorPoint: "affricate-above" 653 722 basechar 0
AnchorPoint: "below" 249 0 basechar 0
AnchorPoint: "above" 349 474 basechar 0
LayerCount: 2
Fore
SplineSet
116 425 m 1
 120 440 125 458 159 458 c 2
 190 458 l 2
 242 458 239 424 243 397 c 2
 275 113 l 1
 436 412 l 2
 460 456 483 458 508 458 c 2
 534 458 l 2
 560 458 565 445 565 436 c 0
 565 427 559 418 555 410 c 2
 363 53 l 2
 347 24 333 0 289 -0 c 2
 209 -0 l 2
 163 0 161 29 158 52 c 2
 116 425 l 1
EndSplineSet
EndChar

StartChar: w
Encoding: 119 119 130
Width: 744
Flags: HW
TeX: 458 0
ItalicCorrection: 112
HStem: -0 21G<169.5 242.5 452.5 579> 438 20G<140 202 443 493.5 742 783>
DStem2: 237 413 116 414 0.0647288 -0.997903<-15.7858 284.699> 538 114 628 56 0.441221 0.897399<0 391.649>
AnchorPoint: "affricate-below" 703 -195 basechar 0
AnchorPoint: "affricate-above" 897 722 basechar 0
AnchorPoint: "below" 372 0 basechar 0
AnchorPoint: "above" 473 474 basechar 0
LayerCount: 2
Fore
SplineSet
115 421 m 0
 115 433 121 458 159 458 c 0
 169 458 179 458 189 458 c 0
 215 458 234 452 237 413 c 0
 243 318 256 138 257 129 c 1
 395 410 l 2
 411 441 422 458 464 458 c 2
 469 458 l 2
 518 458 516 426 517 408 c 2
 535 149 l 2
 536 137 536 126 538 114 c 1
 685 414 l 2
 706 455 730 458 754 458 c 2
 777 458 l 2
 789 458 811 458 811 435 c 0
 811 428 808 422 805 416 c 2
 628 56 l 2
 615 29 603 0 555 -0 c 2
 476 -0 l 2
 429 0 429 31 428 50 c 0
 421 180 418 224 418 267 c 0
 418 278 418 272 420 320 c 1
 409 277 346 148 298 51 c 0
 276 7 258 0 227 -0 c 2
 189 -0 l 2
 150 0 142 18 140 44 c 2
 116 414 l 2
 116 416 115 419 115 421 c 0
EndSplineSet
EndChar

StartChar: x
Encoding: 120 120 131
Width: 500
Flags: HW
TeX: 458 0
ItalicCorrection: 94
HStem: -0 21G<54.5 124 373.5 455.5> 438 20G<141.5 229 455 532.5>
AnchorPoint: "affricate-below" 459 -195 basechar 0
AnchorPoint: "affricate-above" 653 722 basechar 0
AnchorPoint: "below" 248 0 basechar 0
AnchorPoint: "above" 349 474 basechar 0
LayerCount: 2
Fore
SplineSet
29 18 m 0
 29 31 25 25 242 237 c 1
 143 395 124 422 124 433 c 0
 124 438 127 457 156 458 c 1
 209 458 l 2
 249 458 243 454 315 328 c 1
 316 328 l 1
 441 458 434 458 476 458 c 2
 523 458 l 2
 542 458 548 451 548 440 c 0
 548 426 544 425 351 237 c 1
 364 218 375 199 470 46 c 0
 474 39 477 32 477 25 c 0
 477 11 467 0 444 -0 c 0
 427 0 410 0 393 -0 c 0
 354 0 361 1 281 165 c 1
 126 -11 146 1 102 0 c 1
 60 0 l 1
 49 1 29 -3 29 18 c 0
EndSplineSet
EndChar

StartChar: y
Encoding: 121 121 132
Width: 500
Flags: HW
TeX: 458 194
ItalicCorrection: 112
HStem: -205 108<10.9961 93.0495> 438 20G<143.5 220.5 482 544.5>
AnchorPoint: "affricate-below" 459 -195 basechar 0
AnchorPoint: "affricate-above" 653 722 basechar 0
AnchorPoint: "below" 209 -195 basechar 0
AnchorPoint: "above" 362 474 basechar 0
LayerCount: 2
Fore
SplineSet
4 -185 m 1
 6 -128 12 -97 25 -97 c 0
 41 -97 35 -113 102 -120 c 1
 164 -112 176 -83 223 0 c 1
 126 402 l 2
 124 410 121 419 121 427 c 0
 121 436 126 458 161 458 c 2
 193 458 l 2
 248 458 247 429 255 400 c 0
 266 355 297 234 299 167 c 1
 298 137 l 1
 312 192 399 346 427 396 c 0
 447 432 456 458 508 458 c 2
 533 458 l 2
 556 458 564 449 564 437 c 0
 564 430 562 423 558 415 c 2
 303 -41 l 2
 284 -74 214 -205 80 -205 c 0
 12 -205 6 -193 4 -185 c 1
EndSplineSet
EndChar

StartChar: z
Encoding: 122 122 133
Width: 476
Flags: HW
TeX: 458 0
ItalicCorrection: 91
HStem: -0 75<194 445.983> 385 73<139.017 373>
DStem2: 68 86 194 74 0.714073 0.700071<81.5723 427.114>
AnchorPoint: "affricate-below" 435 -195 basechar 0
AnchorPoint: "affricate-above" 629 722 basechar 0
AnchorPoint: "below" 237 0 basechar 0
AnchorPoint: "above" 337 474 basechar 0
LayerCount: 2
Fore
SplineSet
38 29 m 0
 38 62 65 83 68 86 c 2
 373 385 l 1
 177 383 l 1
 139 384 135 410 135 419 c 0
 135 429 140 458 179 458 c 2
 496 458 l 1
 524 457 529 439 529 429 c 0
 529 397 505 379 500 374 c 2
 194 74 l 1
 281 75 l 1
 307 75 l 1
 408 76 l 1
 445 75 450 50 450 39 c 0
 450 29 445 0 406 -0 c 2
 71 -0 l 1
 42 1 38 18 38 29 c 0
EndSplineSet
EndChar

StartChar: braceleft
Encoding: 123 123 134
Width: 550
Flags: HW
TeX: 746 249
ItalicCorrection: 134
HStem: -250 73<328.61 445.164> 213 70<110.155 196.375> 677 73<503.142 642.634>
VStem: 178 138<-161.46 -30.2908> 232 136<23.3358 179.805>
LayerCount: 2
Fore
SplineSet
104 229 m 1
 104 229 110 276 119 283 c 0
 126 289 141 284 173 292 c 0
 220 303 267 332 285 377 c 0
 295 403 333 616 346 647 c 0
 391 751 565 750 584 750 c 2
 627 750 l 2
 644 750 649 744 649 734 c 0
 649 725 646 711 642 695 c 0
 638 677 630 677 617 677 c 0
 575 676 511 675 484 640 c 0
 475 628 479 634 428 401 c 0
 410 318 369 282 264 249 c 1
 309 235 368 203 368 134 c 0xe8
 368 107 316 -106 316 -133 c 0
 316 -168 366 -175 433 -177 c 0
 447 -178 452 -182 452 -192 c 1
 452 -192 448 -236 436 -247 c 1
 431 -249 430 -250 422 -250 c 0xf0
 411 -250 400 -250 389 -250 c 0
 334 -250 178 -246 178 -142 c 0xf0
 178 -113 232 104 232 131 c 0
 232 187 171 209 130 213 c 0
 119 214 104 212 104 229 c 1
EndSplineSet
EndChar

StartChar: bar
Encoding: 124 124 135
Width: 305
Flags: HW
TeX: 746 249
ItalicCorrection: 78
VStem: 66 86<-243.453 -167.148> 259 85<671.148 744.339>
LayerCount: 2
Fore
SplineSet
66 -208 m 0
 66 -200 68 -191 70 -183 c 2
 259 704 l 2
 260 710 265 750 302 750 c 0
 323 750 344 733 344 708 c 0
 344 701 342 694 341 687 c 2
 152 -200 l 2
 150 -209 146 -250 108 -250 c 0
 87 -250 66 -233 66 -208 c 0
EndSplineSet
EndChar

StartChar: braceright
Encoding: 125 125 136
Width: 550
Flags: HW
TeX: 746 249
ItalicCorrection: 28
HStem: -250 73<13.2657 151.858> 217 70<459.125 545.574> 677 73<210.152 326.39>
VStem: 287 137<319.64 481.291> 340 137<530.097 661.453>
LayerCount: 2
Fore
SplineSet
6 -234 m 0
 6 -230 8 -223 14 -195 c 0
 18 -177 26 -177 39 -177 c 0
 81 -176 144 -175 171 -140 c 0
 180 -128 177 -134 227 98 c 0
 243 172 277 215 391 251 c 1
 344 265 287 300 287 366 c 0xf0
 287 384 285 373 336 611 c 0
 338 618 340 626 340 633 c 0
 340 673 273 676 222 677 c 0
 208 678 204 681 204 692 c 0
 204 700 207 713 211 733 c 0
 215 748 221 750 233 750 c 2
 266 750 l 2
 321 750 477 746 477 642 c 0xe8
 477 613 424 395 424 369 c 0
 424 313 484 291 525 287 c 0
 534 286 551 288 551 271 c 1
 551 271 546 224 537 217 c 0
 530 211 515 216 483 208 c 0
 436 197 389 168 371 123 c 0
 361 97 322 -117 309 -148 c 0
 264 -252 90 -250 71 -250 c 2xf0
 28 -250 l 2
 17 -250 6 -248 6 -234 c 0
EndSplineSet
EndChar

StartChar: asciitilde
Encoding: 126 126 137
Width: 672
Flags: HW
TeX: 720 0
ItalicCorrection: 91
HStem: 582 73<515.442 634.125> 647 73<315.188 433.818>
VStem: 219 76<582.128 627.303> 653 76<675.098 719.907>
LayerCount: 2
Fore
SplineSet
219 597 m 0
 219 635 282 720 384 720 c 0x70
 486 720 510 656 582 655 c 1xb0
 611 657 641 675 653 699 c 0
 659 712 658 720 678 720 c 2x70
 709 720 l 2x70
 725 720 729 714 729 705 c 0
 729 668 667 582 564 582 c 0xb0
 469 582 433 642 379 647 c 1
 365 647 l 1x70
 336 645 307 627 295 603 c 0
 288 589 290 582 269 582 c 2
 239 582 l 2xb0
 231 582 219 583 219 597 c 0
EndSplineSet
EndChar

StartChar: Abreve
Encoding: 258 258 139
Width: 733
Flags: HW
TeX: 902 0
HStem: 0 21<63 146 571.5 673> 150 87<296 521> 674 20<451 582> 735 94<410.387 617.701>
VStem: 334 74<837.338 898.21>
DStem2: 69 69 247 150 0.491263 0.871012<-23.5735 157.997 257.847 636.923> 612 638 483 519 0.138845 -0.990314<49.8653 384.481 472.305 609.627>
AnchorPoint: "below" 366 0 basechar 0
AnchorPoint: "above" 558 904 basechar 0
LayerCount: 2
Fore
SplineSet
334 850 m 0
 334 893 357 902 372 902 c 0
 382 902 406 897 408 862 c 0
 408 850 403 829 510 829 c 0
 645 829 636 869 647 885 c 0
 654 896 666 902 678 902 c 0
 695 902 713 889 713 866 c 0
 713 819 650 735 504 735 c 0
 400 735 334 781 334 850 c 0
EndSplineSet
Refer: 76 65 S 1 0 0 1 -0 0 3
AlternateSubs2: "Stilistic set 01 subtable" Abreve.vn
AlternateSubs2: "Latin alternatives subtable" Abreve.vn
Substitution2: "Latin Vietnamese substitutions subtable" Abreve.vn
EndChar

StartChar: Aogonek
Encoding: 260 260 140
Width: 733
Flags: HW
TeX: 694 194
HStem: -217 86<536 671.145> -210 91<616.263 685.089> -0 21G<70.5 145> 150 87<296 521> 674 20G<447 581>
VStem: 481 102<-151.5 -60.6985>
DStem2: 53 41 296 237 0.491489 0.870884<9.11981 190.275 290.125 669.201> 612 643 483 519 0.138386 -0.990378<54.8826 389.5 477.324 602.622>
AnchorPoint: "above" 518 716 basechar 0
LayerCount: 2
Fore
SplineSet
47 22 m 0
 47 29 50 35 53 41 c 2
 395 647 l 2
 411 675 426 694 468 694 c 2
 558 694 l 2
 604 694 608 670 612 643 c 2
 695 49 l 2
 695 47 696 42 696 36 c 0
 696 -3 664 5 644 -8 c 0
 618 -25 583 -67 583 -104 c 0
 583 -112 586 -117 588 -122 c 1
 592 -125 596 -131 615 -131 c 0xbc
 642 -131 665 -119 678 -119 c 0
 698 -119 700 -143 700 -164 c 0
 700 -188 677 -195 623 -210 c 1x7c
 608 -213 593 -217 572 -217 c 0xbc
 500 -217 481 -168 481 -135 c 0
 481 -83 517 -26 561 10 c 1
 551 26 l 1
 547 45 l 1
 537 115 l 1
 533 150 l 1
 247 150 l 1
 179 29 173 0 117 -0 c 2
 76 -0 l 2
 65 0 47 2 47 22 c 0
296 237 m 1x3c
 521 237 l 1
 483 519 l 1
 479 569 l 1
 296 237 l 1x3c
EndSplineSet
Ligature2: "Latin ligatures subtable" A uni0328
EndChar

StartChar: Cacute
Encoding: 262 262 141
Width: 703
Flags: HW
TeX: 863 0
ItalicCorrection: 117
HStem: -22 100<337.261 568.942> 616 100<451.874 661.391>
VStem: 121 143<150.517 382.481>
AnchorPoint: "below" 419 0 basechar 0
AnchorPoint: "above" 610 858 basechar 0
LayerCount: 2
Fore
SplineSet
428 775 m 1
 429 787 426 782 556 868 c 0
 571 878 573 878 584 878 c 2
 725 878 l 2
 734 878 745 876 745 865 c 0
 745 853 749 858 536 774 c 0
 513 765 512 764 496 764 c 2
 452 764 l 2
 441 764 430 765 428 775 c 1
EndSplineSet
Refer: 78 67 S 1 0 0 1 0 0 3
EndChar

StartChar: Ccaron
Encoding: 268 268 142
Width: 703
Flags: HW
TeX: 902 0
ItalicCorrection: 117
HStem: -22 100<337.261 568.942> 616 100<451.874 661.391>
VStem: 121 143<150.517 382.481>
AnchorPoint: "below" 419 0 basechar 0
AnchorPoint: "above" 615 882 basechar 0
LayerCount: 2
Fore
SplineSet
438 891 m 1
 440 897 441 901 456 902 c 1
 487 902 l 2
 506 902 502 902 598 810 c 1
 727 899 728 902 743 902 c 2
 772 902 l 2
 779 902 794 903 794 890 c 0
 794 880 793 881 652 748 c 0
 639 736 634 735 623 735 c 2
 549 735 l 2
 536 735 531 737 522 751 c 0
 436 887 438 881 438 891 c 1
EndSplineSet
Refer: 78 67 S 1 0 0 1 0 0 3
EndChar

StartChar: Dcaron
Encoding: 270 270 143
Width: 794
Flags: HW
TeX: 902 0
ItalicCorrection: 72
HStem: 0 86<250 505.061> 608 86<361 606.78>
VStem: 680 139<314.61 539.873>
DStem2: 89.9713 0 231.72 0 0.207912 0.978148<117.393 651.064>
AnchorPoint: "below" 387 0 basechar 0
AnchorPoint: "above" 580 904 basechar 0
LayerCount: 2
Fore
SplineSet
340 891 m 1
 342 897 343 901 358 902 c 1
 389 902 l 2
 408 902 403 902 499 810 c 1
 628 899 629 902 644 902 c 0
 654 902 664 902 674 902 c 0
 681 902 696 903 696 890 c 0
 696 880 695 881 554 748 c 0
 541 736 536 735 525 735 c 2
 451 735 l 2
 438 735 433 737 424 751 c 0
 338 887 340 881 340 891 c 1
EndSplineSet
Refer: 79 68 S 1 0 0 1 0 0 3
EndChar

StartChar: Ecaron
Encoding: 282 282 144
Width: 642
Flags: HW
TeX: 902 0
ItalicCorrection: 117
HStem: 0 111<257 594.622> 310 95<321 618.426> 590 101<359 709.419>
DStem2: 90.3094 0 234.256 0 0.207912 0.978148<139.319 346.823 444.113 632.971>
AnchorPoint: "below" 343 0 basechar 0
AnchorPoint: "above" 536 907 basechar 0
LayerCount: 2
Fore
SplineSet
330 891 m 1
 332 897 334 901 349 902 c 0
 359 902 369 902 379 902 c 0
 398 902 394 902 490 810 c 1
 619 899 620 902 635 902 c 2
 664 902 l 2
 671 902 687 903 687 890 c 0
 687 880 685 881 544 748 c 0
 531 736 526 735 515 735 c 2
 441 735 l 2
 428 735 423 737 414 751 c 0
 328 887 330 881 330 891 c 1
EndSplineSet
Refer: 80 69 S 1 0 0 1 0 0 3
EndChar

StartChar: Eogonek
Encoding: 280 280 145
Width: 642
Flags: HW
TeX: 694 194
ItalicCorrection: 117
HStem: -217 86<367.5 492.892> 0 107<257 372 449.251 594.491> 310 95<321 619.661> 590 101<359 709.269>
VStem: 304 101<-161.5 -58.6568>
DStem2: 44.4842 -217 188.132 -217 0.207912 0.978148<361.104 568.609 665.899 854.757>
AnchorPoint: "above" 480 716 basechar 0
LayerCount: 2
Fore
SplineSet
99 37 m 0
 99 46 102 54 104 63 c 2
 227 644 l 2
 232 665 233 691 275 691 c 2
 673 691 l 2
 713 691 718 670 718 655 c 0
 718 644 711 615 709 610 c 0
 700 588 682 587 667 587 c 2
 360 590 l 1
 359 590 l 1
 321 405 l 1
 582 405 l 2
 598 405 627 403 627 368 c 0
 627 313 594 310 581 310 c 2
 300 310 l 1
 257 107 l 1
 567 111 l 2
 604 111 610 86 610 74 c 0
 610 68 603 28 595 16 c 1
 584 4 582 0 552 0 c 2
 494 0 l 2
 448 0 405 -70 405 -105 c 0
 405 -115 410 -131 438 -131 c 0
 463 -131 488 -119 501 -119 c 0
 520 -119 521 -140 522 -155 c 0
 523 -176 520 -178 515 -184 c 1
 504 -194 437 -217 394 -217 c 0
 341 -217 304 -188 304 -135 c 0
 304 -108 313 -58 372 0 c 1
 150 0 l 2
 120 0 119 3 107 14 c 1
 102 22 99 27 99 37 c 0
EndSplineSet
EndChar

StartChar: Gbreve
Encoding: 286 286 146
Width: 733
Flags: HW
TeX: 902 0
ItalicCorrection: 117
HStem: -22 100<338.32 542.956> 228 95<490.546 571> 616 100<450.361 662.258> 735 94<496.529 704.9>
VStem: 121 143<152.632 382.444> 420 74<837.338 898.21> 479 245<228.688 321.07>
LayerCount: 2
Fore
SplineSet
420 850 m 0
 420 893 443 902 458 902 c 0
 468 902 492 897 494 862 c 0
 494 850 489 829 596 829 c 0
 731 829 722 869 733 885 c 0
 740 896 752 902 764 902 c 0
 781 902 800 889 800 866 c 0xfc
 800 819 736 735 591 735 c 0
 486 735 420 781 420 850 c 0
EndSplineSet
Refer: 82 71 S 1 0 0 1 -0 0 3
EndChar

StartChar: Lacute
Encoding: 313 313 147
Width: 580
Flags: HW
TeX: 863 0
HStem: 0 105<256 537.068> 674 20<263 343>
DStem2: 90.6089 0 234.319 0 0.207912 0.978148<134.158 699.94>
LayerCount: 2
Fore
SplineSet
168 775 m 1
 169 787 166 782 296 868 c 0
 311 878 313 878 324 878 c 2
 465 878 l 2
 474 878 485 876 485 865 c 0
 485 853 489 858 276 774 c 0
 253 765 252 764 236 764 c 2
 192 764 l 2
 181 764 170 765 168 775 c 1
EndSplineSet
Refer: 87 76 S 1 0 0 1 0 0 3
EndChar

StartChar: Lcaron
Encoding: 317 317 148
Width: 580
Flags: HW
TeX: 902 0
HStem: -0 105<256 537.068> 674 20<263 343>
VStem: 413 151<672.835 778.279>
DStem2: 90.6089 -0 234.319 -0 0.207912 0.978148<134.158 699.94>
LayerCount: 2
Fore
SplineSet
398 601 m 0
 398 609 408 620 438 658 c 1
 419 658 413 662 413 672 c 0
 413 676 414 682 415 689 c 0
 436 786 431 788 454 789 c 1
 544 789 l 2
 560 789 564 782 564 774 c 0
 564 767 561 760 560 753 c 0
 539 656 543 667 528 652 c 1
 457 590 460 589 442 588 c 0
 434 588 426 588 418 588 c 0
 401 588 398 596 398 601 c 0
EndSplineSet
Refer: 87 76 S 1 0 0 1 0 -0 3
EndChar

StartChar: Lslash
Encoding: 321 321 149
Width: 672
Flags: HW
TeX: 694 0
HStem: -0 105<348 629.139> 674 20G<347.5 438.5>
DStem2: 163 304 233 239 0.830178 0.557499<-42.933 18.4645 319.789 482.93> 182.199 -0 326.319 -0 0.207912 0.978148<137.642 244.339 356.632 406.078 523.55 702.487>
LayerCount: 2
Fore
SplineSet
129 262 m 0
 129 285 152 297 163 304 c 0
 278 382 258 362 266 398 c 2
 320 649 l 2
 325 674 328 694 367 694 c 0
 385 694 403 694 421 694 c 0
 456 694 464 672 464 659 c 0
 464 644 455 611 428 483 c 1
 559 571 557 572 572 572 c 0
 601 572 618 533 618 519 c 2
 618 513 l 2
 618 494 609 493 400 352 c 1
 348 102 l 1
 543 105 568 105 592 105 c 2
 597 105 l 2
 610 105 639 102 639 69 c 0
 639 57 632 28 630 23 c 0
 621 2 606 0 589 -0 c 2
 235 -0 l 2
 197 0 192 24 192 35 c 0
 192 56 203 101 233 239 c 1
 203 219 191 208 175 208 c 0
 145 208 129 248 129 262 c 0
EndSplineSet
EndChar

StartChar: Nacute
Encoding: 323 323 150
Width: 794
Flags: HW
TeX: 863 0
ItalicCorrection: 86
HStem: 0 21<124 197.5 537 685> 674 20<264.5 401.5 744 815.5>
VStem: 100 126<5.93262 84.982>
DStem2: 90.5629 0 214.78 0 0.207912 0.978148<37.4513 613.672> 442 639 337 575 0.294976 -0.955505<30.1798 543.398> 577.493 0 702.01 0 0.207912 0.978148<122.681 698.085>
LayerCount: 2
Fore
SplineSet
428 775 m 1
 429 787 425 782 555 868 c 0
 570 878 573 878 584 878 c 2
 725 878 l 2
 734 878 745 876 745 865 c 0
 745 853 748 858 535 774 c 0
 512 765 512 764 496 764 c 2
 451 764 l 2
 440 764 430 765 428 775 c 1
EndSplineSet
Refer: 89 78 S 1 0 0 1 0 0 3
EndChar

StartChar: Ncaron
Encoding: 327 327 151
Width: 794
Flags: HW
TeX: 902 0
ItalicCorrection: 86
HStem: 0 21<124 197.5 537 685> 674 20<264.5 401.5 744 815.5>
VStem: 100 126<5.93262 84.982>
DStem2: 90.5629 0 214.78 0 0.207912 0.978148<37.4513 613.672> 442 639 337 575 0.294976 -0.955505<30.1798 543.398> 577.493 0 702.01 0 0.207912 0.978148<122.681 698.085>
LayerCount: 2
Fore
SplineSet
407 891 m 1
 409 897 411 901 426 902 c 1
 457 902 l 2
 476 902 471 902 567 810 c 1
 696 899 697 902 712 902 c 0
 722 902 732 902 742 902 c 0
 749 902 764 903 764 890 c 0
 764 880 762 881 621 748 c 0
 608 736 604 735 593 735 c 2
 518 735 l 2
 505 735 500 737 491 751 c 0
 405 887 407 881 407 891 c 1
EndSplineSet
Refer: 89 78 S 1 0 0 1 0 0 3
EndChar

StartChar: Eng
Encoding: 330 330 152
Width: 825
Flags: HW
TeX: 694 0
ItalicCorrection: 147
HStem: -22 100<526.648 625.688> -0 21G<136 206.5> 613 134<455.552 659.226> 674 20G<255 332>
VStem: 723 143<384.985 554.138>
DStem2: 86.0825 -22 229.609 -22 0.207912 0.978148<59.9225 602.131>
LayerCount: 2
Fore
SplineSet
99 36 m 0
 99 47 103 57 105 67 c 2
 229 654 l 2
 232 669 238 694 272 694 c 2x58
 320 694 l 2x58
 344 694 347 694 360 686 c 1
 421 720 492 747 580 747 c 0
 740 747 866 652 866 509 c 2
 866 499 l 2
 866 468 793 136 784 110 c 0
 764 55 710 -22 599 -22 c 0
 526 -22 456 12 451 29 c 0
 449 36 453 43 455 49 c 0
 488 133 487 140 500 140 c 0
 516 140 511 78 574 78 c 0
 645 78 654 158 654 158 c 1
 716 454 l 2
 719 468 723 480 723 496 c 0
 723 566 653 613 563 613 c 0xa8
 471 613 379 565 343 498 c 0
 336 484 334 468 330 452 c 2
 243 41 l 2
 234 1 219 0 194 -0 c 2
 150 -0 l 2
 122 0 121 2 109 12 c 1
 103 20 99 24 99 36 c 0
EndSplineSet
EndChar

StartChar: Ohungarumlaut
Encoding: 336 336 153
Width: 794
Flags: HW
TeX: 863 0
ItalicCorrection: 72
HStem: -22 81<325.521 500.111> 638 78<435.888 620.088> 764 114<575 585 634 703.74> 850 28<839.078 879.815>
VStem: 118 142<123 369.255> 683 137<339.124 573.733>
AnchorPoint: "below" 395 0 basechar 0
AnchorPoint: "above" 580 858 basechar 0
LayerCount: 2
Fore
SplineSet
382 776 m 0
 382 785 391 790 397 794 c 0
 524 878 519 878 539 878 c 2xdc
 677 878 l 2xec
 692 878 695 874 698 872 c 1
 699 872 l 1
 707 877 709 878 723 878 c 2
 859 878 l 2
 869 878 882 877 882 864 c 0
 882 863 881 862 880 859 c 1
 876 854 876 854 867 850 c 0xdc
 659 768 656 764 634 764 c 2xec
 585 764 l 2
 575 764 565 765 565 776 c 0
 565 786 582 795 638 832 c 1
 464 764 472 764 452 764 c 2
 400 764 l 2xec
 389 764 382 768 382 776 c 0
EndSplineSet
Refer: 90 79 S 1 0 0 1 -0 0 3
EndChar

StartChar: Racute
Encoding: 340 340 154
Width: 703
Flags: HW
TeX: 863 0
ItalicCorrection: 80
HStem: 0 21<126 205 549.5 633.5> 311 73<313 415> 608 86<361 592.131>
VStem: 616 135<447.905 584.711>
DStem2: 90.7345 0 231.71 0 0.207912 0.978148<37.2072 347.297 421.82 650.905> 549 320 415 311 0.342801 -0.939408<0 301.006>
AnchorPoint: "below" 342 0 basechar 0
AnchorPoint: "above" 529 880 basechar 0
LayerCount: 2
Fore
SplineSet
367 775 m 1
 368 787 364 782 494 868 c 0
 509 878 511 878 522 878 c 2
 664 878 l 2
 673 878 683 876 683 865 c 0
 683 853 687 858 474 774 c 0
 451 765 450 764 434 764 c 2
 390 764 l 2
 379 764 369 765 367 775 c 1
EndSplineSet
Refer: 93 82 S 1 0 0 1 0 0 3
EndChar

StartChar: Rcaron
Encoding: 344 344 155
Width: 703
Flags: HW
TeX: 902 0
ItalicCorrection: 80
HStem: 0 21<126 205 549.5 633.5> 311 73<313 415> 608 86<361 592.131>
VStem: 616 135<447.905 584.711>
DStem2: 90.7345 0 231.71 0 0.207912 0.978148<37.2072 347.297 421.82 650.905> 549 320 415 311 0.342801 -0.939408<0 301.006>
AnchorPoint: "below" 342 0 basechar 0
AnchorPoint: "above" 534 904 basechar 0
LayerCount: 2
Fore
SplineSet
340 891 m 1
 342 897 344 901 359 902 c 0
 369 902 379 902 389 902 c 0
 408 902 404 902 500 810 c 1
 629 899 630 902 645 902 c 2
 674 902 l 2
 681 902 697 903 697 890 c 0
 697 880 695 881 554 748 c 0
 541 736 536 735 525 735 c 2
 451 735 l 2
 438 735 433 737 424 751 c 0
 338 887 340 881 340 891 c 1
EndSplineSet
Refer: 93 82 S 1 0 0 1 0 0 3
EndChar

StartChar: Sacute
Encoding: 346 346 156
Width: 611
Flags: HW
TeX: 863 0
ItalicCorrection: 86
HStem: -22 108<214.549 409.919> 613 103<345.703 536.838>
VStem: 164 133<464.415 565.144> 465 131<140.126 256.83>
AnchorPoint: "below" 309 0 basechar 0
AnchorPoint: "above" 486 858 basechar 0
LayerCount: 2
Fore
SplineSet
321 775 m 1
 322 787 318 782 448 868 c 0
 463 878 466 878 477 878 c 2
 618 878 l 2
 627 878 638 876 638 865 c 0
 638 853 641 858 428 774 c 0
 405 765 405 764 389 764 c 2
 344 764 l 2
 333 764 323 765 321 775 c 1
EndSplineSet
Refer: 94 83 S 1 0 0 1 0 0 3
EndChar

StartChar: Scaron
Encoding: 352 352 157
Width: 611
Flags: HW
TeX: 902 0
ItalicCorrection: 86
HStem: -22 108<214.549 409.919> 613 103<345.703 536.838>
VStem: 164 133<464.415 565.144> 465 131<140.126 256.83>
AnchorPoint: "below" 309 0 basechar 0
AnchorPoint: "above" 491 882 basechar 0
LayerCount: 2
Fore
SplineSet
316 891 m 1
 318 897 319 901 334 902 c 1
 365 902 l 2
 384 902 380 902 476 810 c 1
 605 899 606 902 621 902 c 2
 650 902 l 2
 657 902 672 903 672 890 c 0
 672 880 671 881 530 748 c 0
 517 736 512 735 501 735 c 2
 427 735 l 2
 414 735 409 737 400 751 c 0
 314 887 316 881 316 891 c 1
EndSplineSet
Refer: 94 83 S 1 0 0 1 0 0 3
EndChar

StartChar: Scedilla
Encoding: 350 350 158
Width: 611
Flags: HW
TeX: 694 170
ItalicCorrection: 86
HStem: -43 20G<271.5 316> -22 108<214.549 409.919> 613 103<345.336 537.575>
VStem: 164 133<463.926 567.45> 465 131<140.126 256.83>
LayerCount: 2
Fore
SplineSet
62 60 m 1
 62 70 85 126 103 169 c 0
 107 176 110 178 114 178 c 0
 134 178 175 86 323 86 c 0
 452 86 465 183 465 206 c 0
 465 242 440 265 416 275 c 0
 398 283 317 298 285 310 c 0
 226 331 164 384 164 469 c 0
 164 514 187 716 457 716 c 0
 537 716 591 698 637 671 c 0
 642 668 651 664 651 654 c 0
 651 650 651 652 614 556 c 0
 608 542 607 540 600 537 c 1
 570 539 568 613 447 613 c 0
 392 613 332 607 305 545 c 0
 299 532 297 521 297 510 c 0
 297 477 321 456 348 446 c 0
 405 424 511 429 569 339 c 0
 587 310 596 276 596 242 c 0
 596 188 564 -22 304 -22 c 0
 183 -22 69 33 62 60 c 1
140 -179 m 0
 140 -171 147 -165 167 -141 c 0
 261 -31 263 -23 280 -23 c 0
 290 -23 300 -23 310 -23 c 0
 322 -23 332 -25 332 -35 c 0
 332 -44 323 -55 247 -176 c 0
 238 -190 234 -192 221 -192 c 2
 159 -192 l 2
 149 -192 140 -190 140 -179 c 0
EndSplineSet
EndChar

StartChar: Tcaron
Encoding: 356 356 159
Width: 733
Flags: HW
TeX: 902 0
ItalicCorrection: 132
HStem: 0 21<329 419.5> 584 105<181.981 419 563 820.915>
DStem2: 294.229 0 438.435 0 0.207912 0.978148<37.5207 600.114>
AnchorPoint: "below" 366 0 basechar 0
AnchorPoint: "above" 559 909 basechar 0
LayerCount: 2
Fore
SplineSet
377 891 m 1
 379 897 381 901 396 902 c 0
 406 902 416 902 426 902 c 0
 445 902 441 902 537 810 c 1
 666 899 667 902 682 902 c 2
 711 902 l 2
 718 902 734 903 734 890 c 0
 734 880 732 881 591 748 c 0
 578 736 573 735 562 735 c 2
 488 735 l 2
 475 735 470 737 461 751 c 0
 375 887 377 881 377 891 c 1
EndSplineSet
Refer: 95 84 S 1 0 0 1 0 0 3
EndChar

StartChar: Tcommaaccent
Encoding: 354 354 160
Width: 733
Flags: HW
TeX: 694 170
ItalicCorrection: 132
HStem: -43 20G<332.5 377> 0 21<329 419.5> 584 105<181.981 419 563 820.915>
DStem2: 294.229 0 438.435 0 0.207912 0.978148<37.5207 600.114>
LayerCount: 2
Fore
SplineSet
201 -179 m 0
 201 -171 208 -165 228 -141 c 0
 322 -31 324 -23 341 -23 c 0
 351 -23 361 -23 371 -23 c 0
 383 -23 394 -25 394 -35 c 0
 394 -44 385 -55 309 -176 c 0
 300 -190 296 -192 283 -192 c 2
 220 -192 l 2
 210 -192 201 -190 201 -179 c 0
EndSplineSet
Refer: 95 84 S 1 0 0 1 0 0 3
EndChar

StartChar: Uhungarumlaut
Encoding: 368 368 161
Width: 764
Flags: HW
TeX: 863 0
ItalicCorrection: 86
HStem: -22 86<300.901 486.285> 674 20<268.5 334.5 710.5 787.5> 764 114<560 570 619 683.859> 850 28<824.078 864.815>
VStem: 134 140<90.5176 286.414>
DStem2: 86.0447 -22 230.247 -22 0.207912 0.978148<213.727 723.411> 532.233 -22 667.31 -22 0.207912 0.978148<158.588 722.87>
AnchorPoint: "below" 386 0 basechar 0
AnchorPoint: "above" 568 880 basechar 0
LayerCount: 2
Fore
SplineSet
367 776 m 0
 367 785 376 790 382 794 c 0
 509 878 504 878 524 878 c 2xd8
 662 878 l 2xe8
 677 878 681 874 684 872 c 1
 692 877 694 878 708 878 c 2
 844 878 l 2
 854 878 867 877 867 864 c 0
 867 863 866 862 865 859 c 1
 861 854 861 854 852 850 c 0xd8
 644 768 641 764 619 764 c 2xe8
 570 764 l 2
 560 764 550 765 550 776 c 0
 550 786 568 795 624 832 c 1
 450 764 457 764 437 764 c 2
 385 764 l 2xe8
 374 764 367 768 367 776 c 0
EndSplineSet
Refer: 96 85 S 1 0 0 1 -0 0 3
EndChar

StartChar: Uring
Encoding: 366 366 162
Width: 764
Flags: HW
TeX: 902 0
ItalicCorrection: 86
HStem: -22 86<300.901 486.285> 662 73<489.527 599.077> 674 20<268.5 334.5 710.5 787.5> 830 72<499.617 610.987>
VStem: 134 140<90.5176 286.414> 423 64<738.107 819.388> 613 63<746.06 827.833>
DStem2: 86.0447 -22 230.247 -22 0.207912 0.978148<213.727 723.411> 532.233 -22 667.31 -22 0.207912 0.978148<158.588 722.87>
LayerCount: 2
Fore
SplineSet
423 745 m 0
 423 802 452 902 577 902 c 0
 641 902 676 876 676 820 c 0
 676 771 653 667 534 662 c 1
 517 662 l 1
 472 664 423 679 423 745 c 0
487 765 m 0
 487 735 515 735 537 735 c 0
 575 736 602 734 611 786 c 0
 612 790 613 795 613 800 c 0xde
 613 830 586 830 564 830 c 0
 528 829 498 832 488 779 c 0
 487 775 487 770 487 765 c 0
EndSplineSet
Refer: 96 85 S 1 0 0 1 0 0 3
EndChar

StartChar: Ydieresis
Encoding: 376 376 163
Width: 733
Flags: HW
TeX: 902 0
ItalicCorrection: 175
HStem: 0 21<331 408.5> 674 20<187 278 752.5 832> 760 142<376.081 494.483 589.528 706.432>
VStem: 358 155<773.89 887.094> 358 144<763.87 864.482> 572 156<776.607 888.434>
DStem2: 335 665 177 639 0.444233 -0.895911<-40.2373 289.814> 459 403 501 283 0.675084 0.737741<0 412.807>
AnchorPoint: "below" 366 0 basechar 0
AnchorPoint: "above" 558 904 basechar 0
LayerCount: 2
Fore
SplineSet
358 796 m 0
 358 801 370 871 377 883 c 0
 388 902 405 901 418 902 c 1
 469 902 l 2
 508 902 513 879 513 865 c 0xf4
 513 854 510 840 502 805 c 0xec
 492 760 480 761 454 760 c 1
 402 760 l 2
 362 760 358 787 358 796 c 0
572 797 m 0
 572 809 576 824 582 854 c 0
 592 902 604 902 631 902 c 2
 683 902 l 2
 723 902 728 878 728 866 c 0
 728 862 716 788 707 776 c 0
 695 759 676 760 668 760 c 2xe4
 616 760 l 2
 577 760 572 784 572 797 c 0
EndSplineSet
Refer: 100 89 S 1 0 0 1 -0 0 3
EndChar

StartChar: Zacute
Encoding: 377 377 164
Width: 672
Flags: HW
TeX: 863 0
ItalicCorrection: 117
HStem: 0 102<257 620.13> 595 99<219.889 563>
DStem2: 92 95 257 102 0.683507 0.729944<117.888 689.094>
AnchorPoint: "below" 338 0 basechar 0
AnchorPoint: "above" 525 880 basechar 0
LayerCount: 2
Fore
SplineSet
382 775 m 1
 383 787 379 782 509 868 c 0
 524 878 527 878 538 878 c 2
 679 878 l 2
 688 878 699 876 699 865 c 0
 699 853 702 858 489 774 c 0
 466 765 466 764 450 764 c 2
 405 764 l 2
 394 764 384 765 382 775 c 1
EndSplineSet
Refer: 101 90 S 1 0 0 1 0 0 3
EndChar

StartChar: Zcaron
Encoding: 381 381 165
Width: 672
Flags: HW
TeX: 902 0
ItalicCorrection: 117
HStem: 0 102<257 620.13> 595 99<219.889 563>
DStem2: 92 95 257 102 0.683507 0.729944<117.888 689.094>
AnchorPoint: "below" 338 0 basechar 0
AnchorPoint: "above" 530 904 basechar 0
LayerCount: 2
Fore
SplineSet
353 891 m 1
 355 897 356 901 371 902 c 1
 402 902 l 2
 421 902 416 902 512 810 c 1
 641 899 642 902 657 902 c 0
 667 902 677 902 687 902 c 0
 694 902 709 903 709 890 c 0
 709 880 708 881 567 748 c 0
 554 736 549 735 538 735 c 2
 464 735 l 2
 451 735 446 737 437 751 c 0
 351 887 353 881 353 891 c 1
EndSplineSet
Refer: 101 90 S 1 0 0 1 0 0 3
EndChar

StartChar: Zdotaccent
Encoding: 379 379 166
Width: 672
Flags: HW
TeX: 863 0
ItalicCorrection: 117
HStem: 0 102<257 620.13> 595 99<219.889 563> 786 142<488.716 604.433>
VStem: 470 156<802.652 913.02>
DStem2: 92 95 257 102 0.683507 0.729944<117.888 689.094>
AnchorPoint: "below" 338 0 basechar 0
AnchorPoint: "above" 535 930 basechar 0
LayerCount: 2
Fore
SplineSet
470 822 m 0
 470 829 483 898 489 909 c 0
 500 928 517 927 530 928 c 1
 582 928 l 2
 622 928 626 902 626 892 c 0
 626 887 614 815 605 802 c 0
 593 785 575 786 567 786 c 2
 514 786 l 2
 473 786 470 813 470 822 c 0
EndSplineSet
Refer: 101 90 S 1 0 0 1 0 -0 3
EndChar

StartChar: IJ
Encoding: 306 306 167
Width: 814
Flags: HW
TeX: 694 0
ItalicCorrection: 86
HStem: -22 100<437.395 578.517> 0 21<94 176> 674 20G<233 316 754 836>
VStem: 69 144<4.25634 77.9677> 197 145<615.089 690.148>
DStem2: 575.952 -22 716.991 -22 0.207912 0.978148<120.481 723.921>
LayerCount: 2
Fore
SplineSet
348 33 m 0
 348 41 354 51 381 121 c 0
 383 127 387 139 396 139 c 0
 414 139 422 78 503 78 c 0
 546 78 589 95 606 130 c 0
 610 139 612 147 614 157 c 2
 719 652 l 1
 729 694 742 694 766 694 c 2xa0
 816 694 l 2
 856 694 860 669 860 658 c 0
 860 652 858 645 857 639 c 2
 751 138 l 1
 720 16 615 -22 528 -22 c 0
 445 -22 348 11 348 33 c 0
EndSplineSet
Refer: 84 73 S 1 0 0 1 -31 0 2
Ligature2: "Latin Dutch ligatures subtable" I J
EndChar

StartChar: dcroat
Encoding: 273 273 169
Width: 561
Flags: HW
TeX: 720 0
ItalicCorrection: 124
HStem: -11 73<225.581 332.303> 0 21G<397.5 473.5> 396 73<294.51 432.674> 551 73<288.081 482 633 742.919> 702 20G<532.5 620>
VStem: 75 134<78.6758 266.2>
DStem2: 360.281 -11 498.034 -11 0.207912 0.978148<95.1663 381.968 453.428 575.026 677.825 740.689>
LayerCount: 2
Fore
SplineSet
75 145 m 0
 75 198 94 326 165 400 c 0
 211 449 277 469 338 469 c 0
 410 469 447 439 457 432 c 1
 482 551 l 1
 330 551 l 2
 289 551 285 578 285 588 c 0
 285 597 289 623 329 624 c 1
 498 624 l 1
 512 691 510 722 555 722 c 0
 570 722 585 722 600 722 c 0
 640 722 645 697 645 686 c 0
 645 680 643 673 633 624 c 1
 701 624 l 2
 742 624 746 598 746 588 c 0
 746 578 742 551 701 551 c 2
 617 551 l 1
 511 50 l 2
 501 2 491 0 456 0 c 2x7c
 415 0 l 2x7c
 380 0 375 18 371 32 c 1
 331 8 294 -11 237 -11 c 0xbc
 161 -11 75 20 75 145 c 0
209 135 m 0
 209 76 246 62 284 62 c 0
 325 62 356 80 386 110 c 1
 439 359 439 358 439 363 c 0xbc
 439 376 412 396 372 396 c 0
 255 396 235 288 226 247 c 0
 211 181 209 157 209 135 c 0
EndSplineSet
AlternateSubs2: "Stilistic set 01 subtable" dcroat.vn
AlternateSubs2: "Latin alternatives subtable" dcroat.vn
Substitution2: "Latin Vietnamese substitutions subtable" dcroat.vn
EndChar

StartChar: section
Encoding: 167 167 170
Width: 533
Flags: HW
TeX: 720 194
HStem: -206 73<142.138 295.704> 660 73<348.857 490.987>
VStem: 130 103<218.284 314.071> 191 103<507.747 601.684> 350 103<-75.2514 21.0956> 412 103<213.741 309.149>
LayerCount: 2
Fore
SplineSet
24 -119 m 0
 24 -116 51 -33 65 -25 c 1
 70 -25 l 1
 86 -30 78 -40 102 -74 c 0
 120 -99 154 -133 232 -133 c 0
 310 -133 350 -51 350 -16 c 0
 350 51 224 33 156 141 c 0
 140 166 130 196 130 233 c 0
 130 303 168 367 233 407 c 1xe8
 212 436 191 467 191 521 c 0
 191 632 293 733 424 733 c 0
 516 733 559 697 578 683 c 0
 594 671 592 669 593 662 c 1
 592 655 588 647 565 587 c 0
 560 576 555 571 550 571 c 0
 528 571 529 660 412 660 c 0
 338 660 294 582 294 545 c 0xd4
 294 512 329 496 374 477 c 0
 435 452 515 395 515 295 c 0
 515 190 432 135 411 120 c 1
 437 90 453 51 453 6 c 0
 453 -107 348 -206 221 -206 c 0
 95 -206 24 -135 24 -119 c 0
233 257 m 0
 233 217 286 199 332 179 c 0
 339 176 343 174 347 174 c 0xe4
 365 174 412 231 412 271 c 0
 412 318 341 332 298 356 c 1
 261 335 233 289 233 257 c 0
EndSplineSet
EndChar

StartChar: aogonek
Encoding: 261 261 172
Width: 525
Flags: HW
TeX: 458 194
ItalicCorrection: 38
HStem: -217 85<296 434.577> -11 73<136.5 282.996> 231 60<264.142 376> 404 71<245.54 394.043>
VStem: 56 132<71.1683 170.673> 239 99<-153.5 -68.7844> 400 136<291.966 397.965>
AnchorPoint: "above" 358 474 basechar 0
LayerCount: 2
Fore
SplineSet
56 109 m 0
 56 255 249 291 390 291 c 1
 394 312 400 333 400 356 c 0
 400 395 377 404 346 404 c 0
 237 404 183 339 166 335 c 1
 156 335 153 341 153 352 c 0
 153 364 157 382 160 409 c 0
 163 430 163 431 187 441 c 0
 266 473 324 475 358 475 c 0
 454 475 536 451 536 354 c 0
 536 325 529 305 490 116 c 0
 470 17 471 24 464 15 c 0
 450 -3 437 6 416 -5 c 0
 375 -26 338 -72 338 -103 c 0
 338 -115 344 -132 376 -132 c 0
 405 -132 427 -120 441 -120 c 0
 452 -120 457 -126 457 -169 c 0
 457 -179 455 -180 454 -183 c 1
 440 -199 371 -217 333 -217 c 0
 259 -217 239 -170 239 -137 c 0
 239 -77 294 -17 346 13 c 1
 340 26 l 1
 338 39 l 1
 297 14 246 -11 176 -11 c 0
 97 -11 56 46 56 109 c 0
188 118 m 0
 188 96 198 62 241 62 c 0
 284 62 331 88 351 126 c 0
 360 143 366 184 376 231 c 1
 227 224 188 163 188 118 c 0
EndSplineSet
EndChar

StartChar: dcaron
Encoding: 271 271 175
Width: 732
Flags: HW
TeX: 720 0
ItalicCorrection: 124
HStem: -11 73<225.581 332.303> 0 21<408.5 481.5> 396 73<294.51 432.674> 702 20<532 621>
VStem: 75 134<78.6758 266.2> 645 166<563 736> 660 151<631.469 736.383>
LayerCount: 2
Fore
SplineSet
645 563 m 0x3c
 645 571 657 585 685 621 c 1
 665 621 660 625 660 635 c 0x3a
 660 640 662 645 663 652 c 0
 684 748 680 751 702 752 c 1
 790 752 l 2
 804 752 811 749 811 736 c 0
 811 721 803 694 792 642 c 0
 788 622 788 626 724 570 c 0
 706 554 704 551 689 550 c 1x3c
 666 550 l 2
 649 550 645 558 645 563 c 0x3c
EndSplineSet
Refer: 111 100 S 1 0 0 1 -0 0 2
EndChar

StartChar: eogonek
Encoding: 281 281 177
Width: 511
Flags: HW
TeX: 458 194
ItalicCorrection: 75
HStem: -217 85<255 383.717> -10 72<221.201 263> 214 65<221 429.572> 402 73<290.965 417.593>
VStem: 72 125<86.0156 213.109> 190 100<-161 -68.6211> 432 109<279.78 388.183>
AnchorPoint: "above" 361 474 basechar 0
LayerCount: 2
Fore
SplineSet
72 169 m 0
 72 277 130 475 361 475 c 0
 490 475 541 413 541 320 c 0
 541 294 537 274 534 254 c 0
 527 215 507 214 488 214 c 2
 204 214 l 1
 201 194 197 173 197 152 c 0xfa
 197 101 217 62 293 62 c 0
 402 62 458 124 478 128 c 1
 482 127 491 126 491 114 c 0
 491 107 489 93 485 61 c 0
 482 36 477 38 452 26 c 0
 397 0 390 9 357 -13 c 0
 320 -38 290 -79 290 -106 c 0
 290 -122 300 -132 326 -132 c 0
 359 -132 380 -120 393 -120 c 0
 402 -120 408 -125 408 -164 c 0
 408 -173 407 -182 404 -185 c 0
 398 -192 333 -217 284 -217 c 0
 226 -217 190 -185 190 -137 c 0xf6
 190 -81 233 -38 263 -10 c 1
 146 -5 72 55 72 169 c 0
221 279 m 1
 426 279 l 1
 429 296 432 313 432 331 c 0xf2
 432 372 419 402 362 402 c 0
 305 402 251 370 221 279 c 1
EndSplineSet
EndChar

StartChar: lacute
Encoding: 314 314 179
Width: 255
Flags: HW
TeX: 863 0
ItalicCorrection: 124
HStem: 0 21<107 167> 702 20<238.5 313.5>
DStem2: 59.7345 0 195.222 0 0.207912 0.978148<37.4143 728.842>
LayerCount: 2
Fore
SplineSet
204 775 m 1
 205 787 200 782 331 868 c 0
 346 878 349 878 360 878 c 2
 501 878 l 2
 509 878 521 876 521 865 c 0
 521 853 524 858 290 766 c 0
 284 764 278 764 272 764 c 2
 229 764 l 2
 217 764 206 765 204 775 c 1
EndSplineSet
Refer: 119 108 S 1 0 0 1 0 -0 3
EndChar

StartChar: lcaron
Encoding: 318 318 180
Width: 426
Flags: HW
TeX: 720 0
ItalicCorrection: 124
HStem: 0 21<107 167> 702 20<238.5 313.5>
VStem: 340 165<563 736> 355 150<630.038 739.903>
DStem2: 59.7345 0 195.222 0 0.207912 0.978148<37.4143 728.842>
LayerCount: 2
Fore
SplineSet
340 563 m 0xe0
 340 571 352 585 380 621 c 1
 360 621 355 625 355 635 c 0xd0
 355 640 356 645 357 652 c 0
 378 748 374 751 396 752 c 1
 485 752 l 2
 499 752 505 749 505 736 c 0
 505 721 498 694 487 642 c 0
 483 623 482 626 418 570 c 0
 400 554 398 551 383 550 c 1xe0
 360 550 l 2
 343 550 340 558 340 563 c 0xe0
EndSplineSet
Refer: 119 108 S 1 0 0 1 -0 0 2
EndChar

StartChar: lslash
Encoding: 322 322 181
Width: 381
Flags: HW
TeX: 720 0
ItalicCorrection: 124
HStem: -0 21G<155 238.5> 702 20G<292.5 374>
VStem: 129 137<5.5603 83.0135>
DStem2: 108 330 183 293 0.829902 0.557909<-36.3248 38.8228 307.585 408.486> 120.721 -0 255.19 -0 0.207912 0.978148<38.4396 299.546 382.266 457.398 541.403 727.695>
AnchorPoint: "above" 341 722 basechar 0
LayerCount: 2
Fore
SplineSet
78 294 m 1
 80 314 95 321 108 330 c 0
 206 396 203 392 207 410 c 2
 264 676 l 2
 269 701 273 722 312 722 c 0
 327 722 342 722 357 722 c 0
 391 722 400 702 400 685 c 0
 400 676 401 684 363 502 c 1
 426 545 436 553 451 553 c 0
 470 553 487 537 487 517 c 0
 487 493 481 494 340 399 c 1
 266 50 l 2
 261 24 259 0 218 -0 c 2
 175 -0 l 2
 135 0 129 22 129 37 c 0
 129 46 165 208 183 293 c 1
 131 257 128 255 114 255 c 0
 110 255 80 256 78 294 c 1
EndSplineSet
EndChar

StartChar: nacute
Encoding: 324 324 182
Width: 561
Flags: HW
TeX: 666 0
ItalicCorrection: 46
HStem: -0 21<92.5 179.5 401.5 479.5> 396 68<335.843 478.479>
VStem: 149 131<404 459.546> 438 138<249.083 392.372>
DStem2: 58.1596 -0 196.648 -0 0.207912 0.978148<37.2807 387.456 440.671 463.38>
LayerCount: 2
Fore
SplineSet
299 540 m 0
 299 547 304 553 328 577 c 0
 429 678 425 679 445 679 c 2
 533 679 l 2
 545 679 555 679 557 669 c 1
 557 664 l 1
 555 655 560 660 381 541 c 0
 364 530 361 528 348 528 c 2
 320 528 l 2
 313 528 299 528 299 540 c 0
EndSplineSet
Refer: 121 110 S 1 0 0 1 -0 -0 3
EndChar

StartChar: ncaron
Encoding: 328 328 183
Width: 561
Flags: HW
TeX: 666 0
ItalicCorrection: 46
HStem: 0 21<92.5 179.5 401.5 479.5> 396 68<335.843 478.479> 617 34<267.539 521.671>
VStem: 149 131<404 459.546> 438 138<249.083 392.372>
DStem2: 58.1596 0 196.648 0 0.207912 0.978148<37.2807 387.456 440.671 463.38>
LayerCount: 2
Fore
SplineSet
222 653 m 1
 223 662 227 666 241 666 c 2
 266 666 l 1
 299 665 379 651 389 651 c 0
 420 651 452 666 537 666 c 2
 544 666 l 2
 558 666 562 662 565 654 c 1
 563 649 l 1
 558 642 562 640 434 617 c 1
 360 617 l 1
 340 618 l 1
 224 643 227 640 222 653 c 1
EndSplineSet
Refer: 121 110 S 1 0 0 1 0 0 3
EndChar

StartChar: eng
Encoding: 331 331 184
Width: 561
Flags: HW
TeX: 458 194
ItalicCorrection: 46
HStem: -206 86<176.315 320.575> 0 21G<92.5 170> 396 68<335.925 478.424>
VStem: 148 132<404 459.287> 438 138<250.931 392.372>
DStem2: 14.3972 -206 152.436 -206 0.207912 0.978148<249.085 598.457 651.268 673.977>
AnchorPoint: "affricate-below" 520 -195 basechar 0
AnchorPoint: "affricate-above" 714 722 basechar 0
AnchorPoint: "below" 238 -195 basechar 0
AnchorPoint: "above" 381 474 basechar 0
LayerCount: 2
Fore
SplineSet
67 37 m 0
 67 47 70 56 72 65 c 2
 148 421 l 2
 153 443 157 464 194 464 c 2
 236 464 l 2
 255 464 280 459 280 427 c 0
 280 418 278 410 277 404 c 1
 321 439 374 469 449 469 c 0
 521 469 576 450 576 375 c 0
 576 349 564 287 508 31 c 1
 490 -27 457 -206 290 -206 c 0
 222 -206 135 -178 135 -160 c 0
 135 -151 147 -137 169 -108 c 0
 174 -102 175 -102 181 -100 c 1
 195 -101 216 -120 261 -120 c 0
 306 -120 355 -104 373 44 c 1
 431 319 l 2
 433 329 438 344 438 359 c 0
 438 389 420 396 393 396 c 0
 322 396 273 334 258 288 c 0
 256 281 223 127 206 46 c 0
 197 4 188 0 152 0 c 2
 111 0 l 2
 74 0 67 25 67 37 c 0
EndSplineSet
EndChar

StartChar: ohungarumlaut
Encoding: 337 337 185
Width: 550
Flags: HW
TeX: 666 0
ItalicCorrection: 68
HStem: -11 78<224.029 360.271> 402 72<284.923 423.751> 528 151
VStem: 69 135<87.1606 271.833> 232 259 445 131<199.42 381.322>
AnchorPoint: "below" 282 0 basechar 0
AnchorPoint: "above" 413 659 basechar 0
LayerCount: 2
Fore
SplineSet
415 540 m 0
 415 552 422 553 534 666 c 0
 546 678 550 679 561 679 c 2
 649 679 l 2
 669 679 671 676 674 669 c 1
 674 664 l 1
 672 655 676 660 497 541 c 0
 480 530 478 528 465 528 c 2
 436 528 l 2xf0
 431 528 415 528 415 540 c 0
EndSplineSet
Refer: 13 180 S 1 0 0 1 -91 0 2
Refer: 122 111 S 1 0 0 1 -0 0 3
EndChar

StartChar: rcaron
Encoding: 345 345 187
Width: 372
Flags: HW
TeX: 666 0
ItalicCorrection: 112
HStem: 0 21<95 161.5> 356 113<352.085 434.861> 617 49<223.367 368.48 370.454 522.591> 617 34<320 501.598>
VStem: 150 129<393.934 448.673>
AnchorPoint: "below" 136 0 basechar 0
AnchorPoint: "above" 349 651 basechar 0
LayerCount: 2
Fore
SplineSet
201 653 m 1
 202 662 207 666 221 666 c 2xe8
 246 666 l 1xe8
 279 665 359 651 369 651 c 0xd8
 400 651 432 666 517 666 c 2
 524 666 l 2
 536 666 541 663 544 657 c 1
 544 654 l 1
 543 649 l 1
 538 642 541 640 413 617 c 1
 339 617 l 1
 320 618 l 1
 204 643 206 640 201 653 c 1
EndSplineSet
Refer: 125 114 S 1 0 0 1 0 0 3
EndChar

StartChar: sacute
Encoding: 347 347 188
Width: 422
Flags: HW
TeX: 666 0
ItalicCorrection: 79
HStem: -11 79<143.744 305.311> 402 73<225.068 384.007> 528 151
VStem: 104 106<297 384.83> 235 259 323 106<86.309 202.5>
AnchorPoint: "below" 222 0 basechar 0
AnchorPoint: "above" 352 658 basechar 0
LayerCount: 2
Fore
SplineSet
41 49 m 0
 41 58 68 122 75 137 c 1
 79 143 83 144 86 144 c 0
 111 139 112 68 237 68 c 0
 313 68 323 113 323 132 c 0
 323 205 166 150 114 259 c 0
 107 273 104 289 104 305 c 0
 104 344 124 404 165 436 c 0
 201 464 247 475 312 475 c 0
 360 475 400 471 449 448 c 0
 463 442 468 437 468 429 c 0
 468 419 444 361 438 349 c 1
 434 348 433 347 430 347 c 0
 409 347 399 402 292 402 c 0
 225 402 210 366 210 343 c 0
 210 306 263 305 331 289 c 1
 377 276 429 236 429 169 c 0
 429 126 407 66 369 33 c 0
 328 -3 272 -11 220 -11 c 0xf4
 125 -11 41 29 41 49 c 0
EndSplineSet
Refer: 13 180 S 1 0 0 1 -88 0 2
EndChar

StartChar: scaron
Encoding: 353 353 189
Width: 422
Flags: HW
TeX: 666 0
ItalicCorrection: 79
HStem: -11 79<144.944 303.413> 402 73<225.432 384.007> 617 49<197.367 342.392 344.454 496.591> 617 34<294 475.598>
VStem: 104 106<283.5 385.449> 323 106<87.4329 200.5>
AnchorPoint: "below" 222 0 basechar 0
AnchorPoint: "above" 349 645 basechar 0
LayerCount: 2
Fore
SplineSet
41 49 m 0
 41 58 68 122 75 137 c 1
 79 143 83 144 86 144 c 0
 110 139 119 68 232 68 c 2
 238 68 l 1
 314 70 323 114 323 132 c 0
 323 181 243 176 193 193 c 0
 132 214 104 261 104 306 c 0
 104 345 124 404 165 436 c 0
 201 464 247 475 312 475 c 0
 360 475 400 471 449 448 c 0
 463 442 468 437 468 429 c 0
 468 419 444 361 438 349 c 1
 434 348 433 347 430 347 c 0
 409 347 399 402 292 402 c 0
 221 402 210 362 210 343 c 0
 210 294 304 308 361 277 c 0
 381 266 429 233 429 168 c 0
 429 131 410 68 369 33 c 0
 328 -3 272 -11 220 -11 c 0
 125 -11 41 29 41 49 c 0
175 653 m 1
 176 662 180 666 194 666 c 2xec
 220 666 l 1xec
 257 665 331 651 343 651 c 0xdc
 374 651 406 666 491 666 c 2
 498 666 l 2
 512 666 515 662 518 654 c 1
 517 649 l 1
 512 642 515 640 387 617 c 1
 313 617 l 1
 294 618 l 1
 178 643 180 640 175 653 c 1
EndSplineSet
EndChar

StartChar: scedilla
Encoding: 351 351 190
Width: 422
Flags: HW
TeX: 458 170
ItalicCorrection: 79
HStem: -43 20G<182.5 227> -11 79<143.499 305.311> 402 73<225.432 383.785>
VStem: 104 106<297 385.257> 323 106<86.309 202.5>
LayerCount: 2
Fore
SplineSet
41 49 m 0
 41 58 68 122 75 137 c 1
 79 142 83 144 85 144 c 0
 111 139 111 68 237 68 c 0
 313 68 323 113 323 132 c 0
 323 205 166 150 114 259 c 0
 107 273 104 289 104 305 c 0
 104 344 124 404 165 436 c 0
 201 464 247 475 312 475 c 0
 400 475 468 447 468 429 c 0
 468 422 446 364 438 349 c 1
 434 348 433 347 430 347 c 0
 409 347 399 402 292 402 c 0
 221 402 210 362 210 343 c 0
 210 306 263 305 331 289 c 1
 377 276 429 236 429 169 c 0
 429 126 407 66 369 33 c 0
 328 -3 272 -11 220 -11 c 0
 125 -11 41 29 41 49 c 0
51 -179 m 0
 51 -171 58 -165 78 -141 c 0
 172 -31 174 -23 191 -23 c 0
 201 -23 211 -23 221 -23 c 0
 233 -23 244 -25 244 -35 c 0
 244 -44 234 -55 158 -176 c 0
 149 -190 146 -192 133 -192 c 2
 70 -192 l 2
 60 -192 51 -190 51 -179 c 0
EndSplineSet
EndChar

StartChar: tcaron
Encoding: 357 357 191
Width: 404
Flags: HW
TeX: 720 0
ItalicCorrection: 129
HStem: -11 78<170 318.428> 385 73<125.469 168 316 439.717> 385 66<113.296 156.484>
VStem: 108 135<68.6825 204.956> 374 151<567.835 671.161>
LayerCount: 2
Fore
SplineSet
108 75 m 2
 108 83 l 2
 108 108 110 111 168 385 c 1
 154 385 l 2xd8
 115 385 110 412 110 422 c 0
 110 433 115 444 125 451 c 0xb8
 135 458 146 458 157 458 c 2
 186 458 l 1xd8
 208 564 203 589 251 589 c 2
 294 589 l 2
 326 589 335 565 335 552 c 0
 335 543 332 533 316 458 c 1
 400 458 l 2
 438 458 443 431 443 422 c 0
 443 412 438 385 399 385 c 2xd8
 300 385 l 1xb8
 260 196 243 133 243 102 c 0
 243 84 249 67 270 67 c 0
 324 67 353 102 367 102 c 0
 383 102 381 68 382 55 c 1
 381 42 382 38 364 29 c 0
 301 0 244 -11 192 -11 c 0
 148 -11 108 6 108 75 c 2
359 496 m 0
 359 504 369 515 399 553 c 1
 380 553 374 557 374 567 c 0
 374 571 375 577 376 584 c 0
 397 681 393 683 416 684 c 1
 505 684 l 2
 521 684 525 677 525 669 c 0
 525 662 522 655 521 648 c 0
 500 551 504 562 489 547 c 1
 419 486 420 484 403 483 c 0x98
 395 483 387 483 379 483 c 0
 362 483 359 491 359 496 c 0
EndSplineSet
EndChar

StartChar: tcommaaccent
Encoding: 355 355 192
Width: 404
Flags: HW
TeX: 589 170
ItalicCorrection: 72
HStem: -43 20G<220.5 259.5> -11 78<170 318.85> 385 73<125.469 168 316 439.81> 385 66<113.296 156.484>
VStem: 108 136<68.6825 204.956>
LayerCount: 2
Fore
SplineSet
88 -179 m 0
 88 -172 94 -165 115 -141 c 0
 215 -23 211 -23 230 -23 c 2
 257 -23 l 2
 262 -23 280 -23 280 -36 c 0
 280 -46 270 -58 195 -176 c 0
 185 -191 182 -192 169 -192 c 2
 106 -192 l 2
 96 -192 88 -190 88 -179 c 0
108 75 m 2
 108 83 l 2
 108 108 110 111 168 385 c 1
 154 385 l 2xe8
 115 385 110 412 110 422 c 0
 110 433 115 444 125 451 c 0xd8
 135 458 146 458 157 458 c 2
 186 458 l 1
 212 581 207 567 223 582 c 1
 230 587 235 589 252 589 c 2xe8
 290 589 l 2
 329 589 335 564 335 552 c 0
 335 543 332 533 316 458 c 1
 401 458 l 2
 438 458 443 431 443 422 c 0
 443 413 440 385 400 385 c 2xe8
 300 385 l 1xd8
 260 196 244 133 244 102 c 0
 244 84 249 67 270 67 c 0
 324 67 353 102 367 102 c 0
 383 102 381 68 382 55 c 1
 381 42 383 38 365 29 c 0
 302 0 244 -11 192 -11 c 0
 148 -11 108 6 108 75 c 2
EndSplineSet
EndChar

StartChar: uhungarumlaut
Encoding: 369 369 193
Width: 561
Flags: HW
TeX: 666 0
ItalicCorrection: 68
HStem: -11 62<216.06 323.557> -0 21<399.5 481.5> 438 20<177.5 255 478 565.5> 528 151
VStem: 80 135<53.4853 191.25> 237 259
DStem2: 55.2035 -11 193.667 -11 0.207912 0.978148<122.925 469.9> 360.301 -11 498.639 -11 0.207912 0.978148<105.033 470.765>
AnchorPoint: "below" 279 0 basechar 0
AnchorPoint: "above" 423 675 basechar 0
LayerCount: 2
Fore
SplineSet
420 540 m 0
 420 551 424 550 539 667 c 0
 551 679 555 679 566 679 c 2
 655 679 l 2x3c
 667 679 677 679 679 669 c 1
 679 664 l 1
 677 655 681 660 502 541 c 0
 485 530 483 528 470 528 c 2
 441 528 l 2
 436 528 420 528 420 540 c 0
EndSplineSet
Refer: 13 180 S 1 0 0 1 -86 0 2
Refer: 128 117 S 1 0 0 1 -0 -0 3
EndChar

StartChar: uring
Encoding: 367 367 194
Width: 561
Flags: HW
TeX: 666 0
ItalicCorrection: 68
HStem: -11 62<216.06 323.557> 0 21<399.5 481.5> 438 20<177.5 255 478 565.5> 493 35<344.046 447.543> 631 35<356.553 462.681>
VStem: 80 135<53.4853 191.25> 278 61<531.708 617.19> 466 61<542.24 627.485>
DStem2: 55.2035 -11 193.667 -11 0.207912 0.978148<122.925 469.9> 360.301 -11 498.639 -11 0.207912 0.978148<105.033 470.765>
LayerCount: 2
Fore
SplineSet
278 560 m 0
 278 603 303 666 422 666 c 0
 479 666 527 653 527 599 c 0
 527 556 502 493 382 493 c 0
 325 493 278 507 278 560 c 0
339 561 m 0
 339 530 366 528 390 528 c 2
 391 528 l 2
 411 528 466 527 466 598 c 0
 466 629 439 631 415 631 c 0x3f
 395 631 339 634 339 561 c 0
EndSplineSet
Refer: 128 117 S 1 0 0 1 0 0 3
EndChar

StartChar: ydieresis
Encoding: 255 255 195
Width: 500
Flags: HW
TeX: 694 194
ItalicCorrection: 112
HStem: -205 108<10.9961 93.0495> 438 20<143.5 220.5 482 544.5> 552 142<215.452 332.432 429.517 545.433>
VStem: 197 156<569.606 679.02> 411 156<569.606 679.269>
AnchorPoint: "below" 209 -195 basechar 0
AnchorPoint: "above" 408 690 basechar 0
LayerCount: 2
Fore
SplineSet
197 588 m 0
 197 595 210 664 216 675 c 0
 227 694 245 693 257 694 c 1
 309 694 l 2
 349 694 353 668 353 658 c 0
 353 653 341 581 333 569 c 0
 321 551 302 552 294 552 c 2
 242 552 l 2
 201 552 197 579 197 588 c 0
411 588 m 0
 411 602 416 620 422 649 c 0
 432 694 447 694 469 694 c 2
 522 694 l 2
 562 694 567 669 567 657 c 0
 567 653 554 581 546 569 c 0
 534 551 516 552 508 552 c 2
 455 552 l 2
 416 552 411 576 411 588 c 0
EndSplineSet
Refer: 132 121 S 1 0 0 1 -0 -0 3
EndChar

StartChar: zacute
Encoding: 378 378 196
Width: 476
Flags: HW
TeX: 666 0
ItalicCorrection: 91
HStem: 0 75<194 445.983> 385 73<139.017 373>
DStem2: 68 86 194 74 0.714073 0.700071<81.5723 427.114>
AnchorPoint: "below" 237 0 basechar 0
AnchorPoint: "above" 380 675 basechar 0
LayerCount: 2
Fore
SplineSet
263 540 m 0
 263 547 269 553 293 578 c 0
 393 679 387 679 408 679 c 2
 497 679 l 2
 509 679 519 679 521 669 c 1
 521 664 l 1
 519 655 523 660 345 541 c 0
 328 530 325 528 312 528 c 2
 284 528 l 2
 277 528 263 528 263 540 c 0
EndSplineSet
Refer: 133 122 S 1 0 0 1 0 0 3
EndChar

StartChar: zcaron
Encoding: 382 382 197
Width: 476
Flags: HW
TeX: 666 0
ItalicCorrection: 91
HStem: 0 75<194 445.983> 385 73<139.017 373> 617 49<232.367 377.48 379.454 531.591> 617 34<329 510.598>
DStem2: 68 86 194 74 0.714073 0.700071<81.5723 427.114>
AnchorPoint: "below" 237 0 basechar 0
AnchorPoint: "above" 377 662 basechar 0
LayerCount: 2
Fore
SplineSet
210 653 m 1
 211 662 216 666 230 666 c 2xe0
 255 666 l 1xe0
 288 665 368 651 378 651 c 0xd0
 409 651 441 666 526 666 c 2
 533 666 l 2
 545 666 550 663 553 657 c 1
 553 654 l 1
 552 649 l 1
 547 642 550 640 422 617 c 1
 348 617 l 1
 329 618 l 1
 213 643 215 640 210 653 c 1
EndSplineSet
Refer: 133 122 S 1 0 0 1 0 0 3
EndChar

StartChar: ij
Encoding: 307 307 199
Width: 592
Flags: HW
TeX: 720 194
ItalicCorrection: 127
HStem: -206 86<250.716 371.432> 0 21<100 173> 438 20G<192.5 266 530 601.5> 580 143<213.081 330.435 546.25 661.432>
VStem: 76 135<4.23438 72.9091> 156 135<385.182 454.062> 195 156<597.652 708.097> 526 157<597.652 705.795>
DStem2: 359.189 -206 494.764 -206 0.207912 0.978148<94.6081 669.683>
LayerCount: 2
Fore
SplineSet
195 617 m 0
 195 624 208 693 214 704 c 0
 225 723 243 722 256 723 c 1
 273 723 290 723 307 723 c 0
 348 723 351 696 351 687 c 0xf3
 351 682 339 610 331 597 c 0
 319 579 303 581 292 580 c 1
 239 580 l 2
 199 580 195 608 195 617 c 0
217 -158 m 0
 217 -151 223 -140 236 -113 c 0
 241 -104 244 -102 251 -100 c 1
 266 -103 279 -120 318 -120 c 0
 387 -120 389 -66 400 -14 c 2
 492 420 l 2
 501 460 521 457 539 458 c 1
 586 458 l 2
 617 458 627 436 627 422 c 0
 627 416 625 411 624 405 c 2
 536 -12 l 2
 525 -66 499 -206 350 -206 c 0
 298 -206 217 -180 217 -158 c 0
526 614 m 0
 526 623 530 638 538 675 c 0
 548 722 561 723 587 723 c 0
 604 723 621 723 638 723 c 0
 678 723 683 697 683 687 c 0
 683 682 671 610 662 597 c 0
 650 580 631 580 623 580 c 2xf1
 571 580 l 2
 529 580 526 611 526 614 c 0
EndSplineSet
Refer: 36 305 S 1 0 0 1 8 0 2
Ligature2: "Latin Dutch ligatures subtable" i j
EndChar

StartChar: exclamdown
Encoding: 161 161 200
Width: 367
Flags: HW
TeX: 527 194
ItalicCorrection: 24
HStem: -195 21G<100 192> 397 131<226.188 335.481>
VStem: 197 105<283.823 331.988> 210 143<416.548 515.219>
LayerCount: 2
Fore
SplineSet
80 -180 m 0
 80 -176 81 -173 84 -158 c 2
 197 313 l 2
 200 326 202 332 219 332 c 2
 279 332 l 2
 297 332 302 328 302 318 c 0xe0
 302 312 301 304 299 294 c 2
 212 -173 l 2
 209 -188 206 -188 203 -191 c 1
 197 -194 197 -195 187 -195 c 2
 104 -195 l 2
 96 -195 80 -195 80 -180 c 0
210 433 m 0
 210 444 222 499 226 507 c 0
 237 528 255 527 267 528 c 1
 310 528 l 2
 349 528 353 500 353 492 c 0
 353 483 342 427 336 416 c 0
 325 397 309 398 296 397 c 1xd0
 253 397 l 2
 215 397 210 424 210 433 c 0
EndSplineSet
EndChar

StartChar: questiondown
Encoding: 191 191 201
Width: 519
Flags: HW
TeX: 527 194
HStem: -205 72<178.922 311.984> 397 131<286.188 395.481>
VStem: 45 132<-130.475 -7.60675> 270 143<416.548 515.219>
LayerCount: 2
Fore
SplineSet
45 -91 m 0
 45 -55 59 21 110 66 c 1
 146 96 l 1
 237 178 248 273 257 314 c 0
 261 332 271 332 280 332 c 2
 340 332 l 2
 357 332 363 328 363 316 c 0
 363 304 357 286 350 256 c 0
 322 138 227 41 208 11 c 0
 193 -12 177 -77 177 -105 c 0
 177 -125 191 -133 215 -133 c 0
 284 -133 341 -102 387 -67 c 0
 399 -58 401 -57 408 -59 c 1
 412 -62 l 1
 415 -66 l 1
 418 -80 426 -129 426 -136 c 0
 426 -150 419 -151 409 -157 c 1
 326 -196 261 -205 190 -205 c 0
 85 -205 45 -159 45 -91 c 0
270 433 m 0
 270 444 282 499 286 507 c 0
 297 528 315 527 327 528 c 1
 370 528 l 2
 409 528 413 500 413 492 c 0
 413 483 402 427 396 416 c 0
 385 397 369 398 356 397 c 1
 313 397 l 2
 275 397 270 424 270 433 c 0
EndSplineSet
EndChar

StartChar: sterling
Encoding: 163 163 202
Width: 818
Flags: HW
TeX: 720 0
HStem: -11 156<130.567 265.484> -11 96<425.77 555.569> 325 73<250.369 306 458 543.969> 684 73<543.161 630.876>
VStem: 634 127<526.374 682.704>
DStem2: 233.266 -11 370.581 -11 0.207912 0.978148<158.911 343.78 446.787 685.745>
LayerCount: 2
Fore
SplineSet
71 45 m 0
 71 84 115 145 232 145 c 0xb8
 243 145 255 144 266 143 c 1
 306 325 l 1
 268 325 l 2
 249 325 243 328 243 339 c 0
 243 347 247 360 251 380 c 0
 255 397 261 398 273 398 c 0
 289 398 305 398 321 398 c 1
 353 552 361 622 422 686 c 0
 474 740 547 757 612 757 c 0
 713 757 761 679 761 592 c 0
 761 501 719 486 691 486 c 0
 678 486 648 491 643 529 c 1
 625 529 620 533 620 544 c 0
 620 563 634 597 634 640 c 0
 634 673 623 684 603 684 c 0
 585 684 562 677 545 665 c 0
 502 633 496 579 458 398 c 1
 533 398 l 2
 545 398 551 393 551 382 c 0
 551 378 550 374 543 341 c 1
 539 328 534 326 522 325 c 1
 442 325 l 1
 407 158 409 154 391 116 c 1
 443 101 495 86 550 85 c 1
 570 137 557 157 585 157 c 2
 675 157 l 2x78
 695 157 695 154 700 148 c 1
 700 146 701 145 701 143 c 0
 701 106 636 -11 495 -11 c 0x78
 420 -11 326 24 312 24 c 0
 301 24 261 -11 157 -11 c 0
 87 -11 71 22 71 45 c 0
EndSplineSet
EndChar

StartChar: Agrave
Encoding: 192 192 203
Width: 733
Flags: HW
TeX: 863 0
HStem: 0 21<63 146 571.5 673> 150 87<296 521> 674 20<451 582> 764 114<536.066 584.25> 774 104<514.519 584.163>
DStem2: 69 69 247 150 0.491263 0.871012<-23.5735 157.997 257.847 636.923> 612 638 483 519 0.138845 -0.990314<49.8653 384.481 472.305 609.627>
AnchorPoint: "below" 366 0 basechar 0
AnchorPoint: "above" 553 880 basechar 0
LayerCount: 2
Fore
SplineSet
385 867 m 0
 385 879 398 877 411 878 c 1xe8
 548 878 l 2
 564 878 562 876 654 792 c 1
 662 783 l 1
 664 780 l 1
 664 775 l 1
 662 769 660 764 645 764 c 2xf0
 596 764 l 2xf0
 582 764 580 765 560 774 c 0
 381 858 393 851 386 861 c 0
 385 864 385 866 385 867 c 0
EndSplineSet
Refer: 76 65 S 1 0 0 1 0 0 3
AlternateSubs2: "Stilistic set 01 subtable" Agrave.vn
AlternateSubs2: "Latin alternatives subtable" Agrave.vn
Substitution2: "Latin Vietnamese substitutions subtable" Agrave.vn
EndChar

StartChar: Aacute
Encoding: 193 193 204
Width: 733
Flags: HW
TeX: 863 0
ItalicCorrection: 15
HStem: 0 21<63 146 571.5 673> 150 87<296 521> 674 20<451 582>
DStem2: 69 69 247 150 0.491263 0.871012<-23.5735 157.997 257.847 636.923> 612 638 483 519 0.138845 -0.990314<49.8653 384.481 472.305 609.627>
AnchorPoint: "below" 366 0 basechar 0
AnchorPoint: "above" 553 880 basechar 0
LayerCount: 2
Fore
SplineSet
397 775 m 1
 398 787 395 782 525 868 c 0
 540 878 542 878 553 878 c 2
 694 878 l 2
 703 878 714 876 714 865 c 0
 714 853 718 858 505 774 c 0
 482 765 481 764 465 764 c 2
 421 764 l 2
 410 764 399 765 397 775 c 1
EndSplineSet
Refer: 76 65 S 1 0 0 1 0 0 3
AlternateSubs2: "Stilistic set 01 subtable" Aacute.vn
AlternateSubs2: "Latin alternatives subtable" Aacute.vn
Substitution2: "Latin Vietnamese substitutions subtable" Aacute.vn
EndChar

StartChar: Acircumflex
Encoding: 194 194 205
Width: 733
Flags: HW
TeX: 902 0
HStem: -0 21<63 146 571.5 673> 150 87<296 521> 674 20<451 582>
DStem2: 69 69 247 150 0.491263 0.871012<-23.5735 157.997 257.847 636.923> 612 638 483 519 0.138845 -0.990314<49.8653 384.481 472.305 609.627>
AnchorPoint: "below" 366 0 basechar 0
AnchorPoint: "above" 561 916 basechar 0
LayerCount: 2
Fore
SplineSet
327 747 m 0
 327 757 325 752 465 896 c 0
 480 911 481 914 498 914 c 2
 619 914 l 1
 636 913 638 907 641 895 c 0
 670 764 672 756 672 749 c 0
 672 735 665 736 646 735 c 1
 620 735 l 2
 604 735 605 738 520 834 c 1
 391 735 397 735 377 735 c 2
 345 735 l 1
 330 736 327 742 327 747 c 0
EndSplineSet
Refer: 76 65 S 1 0 0 1 -0 -0 3
AlternateSubs2: "Stilistic set 01 subtable" Acircumflex.vn
AlternateSubs2: "Latin alternatives subtable" Acircumflex.vn
Substitution2: "Latin Vietnamese substitutions subtable" Acircumflex.vn
EndChar

StartChar: Atilde
Encoding: 195 195 206
Width: 733
Flags: HW
TeX: 902 0
HStem: -0 21<63 146 571.5 673> 150 87<296 521> 674 20<451 582> 735 73<575.418 640.699> 830 73<443.32 502.844>
VStem: 671 66<843.22 903>
DStem2: 69 69 247 150 0.491263 0.871012<-23.5735 157.997 257.847 636.923> 612 638 483 519 0.138845 -0.990314<49.8653 384.481 472.305 609.627>
AnchorPoint: "below" 366 0 basechar 0
AnchorPoint: "above" 558 905 basechar 0
LayerCount: 2
Fore
SplineSet
342 750 m 0
 342 776 390 903 479 903 c 0
 561 903 561 808 609 808 c 1
 658 816 658 889 671 899 c 0
 675 902 681 903 686 903 c 2
 719 903 l 2
 730 903 737 899 737 887 c 0
 737 866 695 735 599 735 c 0
 519 735 514 830 472 830 c 0
 461 830 453 824 446 819 c 1
 390 739 442 735 371 735 c 2
 363 735 l 2
 352 735 342 738 342 750 c 0
EndSplineSet
Refer: 76 65 S 1 0 0 1 0 -0 3
AlternateSubs2: "Stilistic set 01 subtable" Atilde.vn
AlternateSubs2: "Latin alternatives subtable" Atilde.vn
Substitution2: "Latin Vietnamese substitutions subtable" Atilde.vn
EndChar

StartChar: Adieresis
Encoding: 196 196 207
Width: 733
Flags: HW
TeX: 902 0
HStem: 0 21<63 146 571.5 673> 150 87<296 521> 674 20<451 582> 760 142<374.844 494.483 590.575 705.433>
VStem: 357 156<774.838 887.094> 357 145<764.359 864.482> 571 156<776.607 886.355>
DStem2: 69 69 247 150 0.491263 0.871012<-23.5735 157.997 257.847 636.923> 612 638 483 519 0.138845 -0.990314<49.8653 384.481 472.305 609.627>
AnchorPoint: "below" 366 0 basechar 0
AnchorPoint: "above" 558 904 basechar 0
LayerCount: 2
Fore
SplineSet
357 796 m 0
 357 801 369 871 376 883 c 0
 387 902 404 901 417 902 c 1
 469 902 l 2
 508 902 513 879 513 865 c 0xfa
 513 854 510 840 502 805 c 0xf6
 492 760 479 761 454 760 c 1
 402 760 l 2
 362 760 357 787 357 796 c 0
571 797 m 0
 571 809 576 824 582 854 c 0
 592 900 604 902 631 902 c 2
 682 902 l 2
 722 902 727 878 727 866 c 0
 727 862 715 788 706 776 c 0
 694 759 676 760 668 760 c 2xf2
 615 760 l 2
 576 760 571 784 571 797 c 0
EndSplineSet
Refer: 76 65 S 1 0 0 1 0 0 3
EndChar

StartChar: Aring
Encoding: 197 197 208
Width: 733
Flags: HW
TeX: 863 0
HStem: -0 21G<68 144.5 571.5 673.5> 150 87<296 521> 830 72<459.144 564.889>
VStem: 374 63<697.136 807.59> 568 63<716.758 825.777>
DStem2: 56 47 247 150 0.492391 0.870374<2.09139 183.695 283.545 662.617> 611 650 483 519 0.137747 -0.990467<62.0452 396.666 484.489 621.651>
LayerCount: 2
Fore
SplineSet
47 22 m 0
 47 32 53 42 56 47 c 2
 396 648 l 1
 388 658 374 674 374 712 c 0
 374 750 389 831 439 872 c 0
 468 895 505 902 533 902 c 0
 581 902 631 884 631 812 c 0
 631 783 623 730 595 684 c 1
 605 673 608 668 611 650 c 2
 695 46 l 2
 695 42 696 38 696 34 c 0
 696 23 691 1 656 -0 c 1
 600 -0 l 2
 543 0 549 26 533 150 c 1
 247 150 l 1
 179 29 174 0 115 -0 c 2
 76 -0 l 2
 60 0 47 4 47 22 c 0
296 237 m 1
 521 237 l 1
 483 519 l 1
 479 569 l 1
 296 237 l 1
437 731 m 0
 437 697 462 694 486 694 c 0
 514 694 530 697 544 713 c 0
 564 736 568 788 568 793 c 0
 568 826 543 830 519 830 c 0
 485 830 478 826 462 812 c 1
 442 789 437 739 437 731 c 0
EndSplineSet
EndChar

StartChar: AE
Encoding: 198 198 209
Width: 947
Flags: HW
TeX: 694 0
ItalicCorrection: 117
HStem: -0 107<626 904.06> 191 87<340 500> 312 95<689 916.531> 594 100<538 586 729 1015.82>
VStem: 468 447<7.38858 106.781>
DStem2: 83 85 285 191 0.531102 0.847308<-39.2772 197.097 300.024 672.931> 459.402 -0 603.256 -0 0.207912 0.978148<142.847 195.267 284.108 348.76 445.842 607.341>
AnchorPoint: "below" 472 0 basechar 0
AnchorPoint: "above" 683 716 basechar 0
LayerCount: 2
Fore
SplineSet
49 21 m 0
 49 33 60 49 83 85 c 2
 429 637 l 2
 444 661 459 694 512 694 c 2
 980 694 l 2
 1020 694 1024 668 1024 657 c 0
 1024 646 1017 618 1015 613 c 0
 1006 593 989 590 975 590 c 2
 729 593 l 1
 689 407 l 1
 878 407 l 2
 887 407 896 407 905 405 c 0
 925 400 933 382 933 372 c 0
 933 363 930 334 917 322 c 0
 907 312 896 312 883 312 c 2
 669 312 l 1
 669 311 l 1
 626 107 l 1
 873 111 l 2
 910 111 915 85 915 75 c 0
 915 65 907 28 905 23 c 0
 896 2 880 0 863 -0 c 2
 512 -0 l 2
 472 0 468 27 468 36 c 0
 468 43 476 79 500 191 c 1
 285 191 l 1
 182 26 178 0 120 -0 c 2
 74 -0 l 2
 65 0 49 3 49 21 c 0
340 278 m 1
 518 278 l 1
 586 594 l 1
 538 594 l 1
 340 278 l 1
EndSplineSet
EndChar

StartChar: Ccedilla
Encoding: 199 199 210
Width: 703
Flags: HW
TeX: 694 170
ItalicCorrection: 117
HStem: -43 20G<393.5 438> -22 100<337.573 568.942> 616 100<447.504 660.742>
VStem: 121 143<150.517 382.481>
AnchorPoint: "above" 580 716 basechar 0
LayerCount: 2
Fore
SplineSet
121 235 m 0
 121 306 145 448 217 551 c 0
 264 619 362 716 580 716 c 0
 687 716 762 687 773 676 c 1
 776 670 l 1
 776 660 751 599 735 560 c 0
 732 554 728 551 724 551 c 0
 702 551 681 616 561 616 c 0
 329 616 286 401 272 322 c 0
 267 296 264 271 264 245 c 0
 264 112 350 78 436 78 c 0
 528 78 564 90 637 136 c 0
 644 140 651 142 656 142 c 0
 663 142 666 137 666 127 c 0
 666 117 663 98 658 59 c 0
 656 44 657 38 642 30 c 0
 562 -10 517 -22 434 -22 c 2
 394 -22 l 1
 260 -12 121 29 121 235 c 0
262 -179 m 0
 262 -172 268 -165 289 -141 c 0
 383 -31 385 -23 402 -23 c 0
 412 -23 422 -23 432 -23 c 0
 444 -23 454 -25 454 -35 c 0
 454 -44 445 -55 369 -176 c 0
 359 -191 356 -192 343 -192 c 2
 281 -192 l 2
 271 -192 262 -190 262 -179 c 0
EndSplineSet
EndChar

StartChar: Egrave
Encoding: 200 200 211
Width: 642
Flags: HW
TeX: 863 0
ItalicCorrection: 117
HStem: -0 111<257 594.622> 310 95<321 618.426> 590 101<359 709.419> 764 114<475.162 522.705> 774 104<453.631 522.705>
DStem2: 90.3094 -0 234.256 -0 0.207912 0.978148<139.319 346.823 444.113 632.971>
AnchorPoint: "below" 343 0 basechar 0
AnchorPoint: "above" 530 883 basechar 0
LayerCount: 2
Fore
SplineSet
325 866 m 1
 327 875 333 878 342 878 c 2xe8
 485 878 l 2xf0
 503 878 500 878 593 793 c 0
 602 785 602 782 603 779 c 1
 603 774 l 2xe8
 603 773 602 764 585 764 c 0xf0
 568 764 551 764 534 764 c 0xf0
 520 764 519 765 499 774 c 0
 321 858 327 852 325 866 c 1
EndSplineSet
Refer: 80 69 S 1 0 0 1 0 -0 3
AlternateSubs2: "Stilistic set 01 subtable" Egrave.vn
AlternateSubs2: "Latin alternatives subtable" Egrave.vn
Substitution2: "Latin Vietnamese substitutions subtable" Egrave.vn
EndChar

StartChar: Eacute
Encoding: 201 201 212
Width: 642
Flags: HW
TeX: 863 0
ItalicCorrection: 117
HStem: 0 111<257 594.622> 310 95<321 618.426> 590 101<359 709.419>
DStem2: 90.3094 0 234.256 0 0.207912 0.978148<139.319 346.823 444.113 632.971>
AnchorPoint: "below" 343 0 basechar 0
AnchorPoint: "above" 530 883 basechar 0
LayerCount: 2
Fore
SplineSet
382 775 m 1
 383 787 378 782 509 868 c 0
 524 878 527 878 538 878 c 2
 679 878 l 2
 687 878 699 876 699 865 c 0
 699 853 702 858 468 766 c 0
 462 764 456 764 450 764 c 2
 407 764 l 2
 395 764 384 765 382 775 c 1
EndSplineSet
Refer: 80 69 S 1 0 0 1 0 0 3
AlternateSubs2: "Stilistic set 01 subtable" Eacute.vn
AlternateSubs2: "Latin alternatives subtable" Eacute.vn
Substitution2: "Latin Vietnamese substitutions subtable" Eacute.vn
EndChar

StartChar: Ecircumflex
Encoding: 202 202 213
Width: 642
Flags: HW
TeX: 902 0
ItalicCorrection: 117
HStem: -0 111<257 594.622> 310 95<321 618.426> 590 101<359 709.419>
DStem2: 90.3094 -0 234.256 -0 0.207912 0.978148<139.319 346.823 444.113 632.971>
AnchorPoint: "below" 343 0 basechar 0
AnchorPoint: "above" 538 919 basechar 0
LayerCount: 2
Fore
SplineSet
291 748 m 0
 291 757 289 753 432 900 c 0
 445 913 450 914 461 914 c 2
 536 914 l 2
 552 914 552 907 629 766 c 0
 634 756 636 753 636 748 c 0
 636 737 627 735 618 735 c 2
 583 735 l 2
 569 735 569 738 484 834 c 1
 355 735 360 735 340 735 c 2
 314 735 l 2
 306 735 291 735 291 748 c 0
EndSplineSet
Refer: 80 69 S 1 0 0 1 0 -0 3
AlternateSubs2: "Stilistic set 01 subtable" Ecircumflex.vn
AlternateSubs2: "Latin alternatives subtable" Ecircumflex.vn
Substitution2: "Latin Vietnamese substitutions subtable" Ecircumflex.vn
EndChar

StartChar: Edieresis
Encoding: 203 203 214
Width: 642
Flags: HW
TeX: 902 0
ItalicCorrection: 117
HStem: 0 111<257 594.622> 310 95<321 618.426> 590 101<359 709.419> 760 142<529.575 645.432> 760 143<315.716 431.432>
VStem: 297 156<777.652 888.097> 510 156<777.606 885.291>
DStem2: 90.3094 0 234.256 0 0.207912 0.978148<139.319 346.823 444.113 632.971>
AnchorPoint: "below" 343 0 basechar 0
AnchorPoint: "above" 536 908 basechar 0
LayerCount: 2
Fore
SplineSet
510 796 m 0
 510 810 516 828 522 857 c 0
 532 902 546 902 568 902 c 2
 622 902 l 2
 662 902 666 876 666 866 c 0
 666 861 654 789 646 777 c 0
 634 759 615 760 607 760 c 2xf6
 554 760 l 2
 515 760 510 783 510 796 c 0
EndSplineSet
Refer: 22 729 S 1 0 0 1 69 180 2
Refer: 80 69 S 1 0 0 1 -0 0 3
EndChar

StartChar: Igrave
Encoding: 204 204 215
Width: 325
Flags: HW
TeX: 863 0
ItalicCorrection: 132
HStem: 0 21<125 207> 674 20<264 347> 764 114<317.162 366.006> 774 104<295.631 366.006>
VStem: 100 144<4.25634 77.9677> 228 145<615.089 690.148>
AnchorPoint: "below" 162 0 basechar 0
AnchorPoint: "above" 349 880 basechar 0
LayerCount: 2
Fore
SplineSet
167 866 m 1
 169 874 174 878 184 878 c 2xd0
 330 878 l 2xe0
 346 878 344 876 435 793 c 0
 444 785 444 782 445 779 c 1
 445 774 l 2xd0
 445 773 444 764 427 764 c 2xe0
 377 764 l 2xe0
 363 764 361 765 341 774 c 0
 163 858 169 852 167 866 c 1
EndSplineSet
Refer: 84 73 S 1 0 0 1 0 -0 3
AlternateSubs2: "Stilistic set 01 subtable" Igrave.vn
AlternateSubs2: "Latin alternatives subtable" Igrave.vn
Substitution2: "Latin Vietnamese substitutions subtable" Igrave.vn
EndChar

StartChar: Iacute
Encoding: 205 205 216
Width: 325
Flags: HW
TeX: 863 0
ItalicCorrection: 132
HStem: 0 21<125 207> 674 20<264 347>
VStem: 100 144<4.25634 77.9677> 228 145<615.089 690.148>
AnchorPoint: "below" 162 0 basechar 0
AnchorPoint: "above" 349 880 basechar 0
LayerCount: 2
Fore
SplineSet
239 775 m 1
 240 787 235 782 366 868 c 0
 381 878 384 878 395 878 c 2
 536 878 l 2
 544 878 556 876 556 865 c 0
 556 853 559 858 325 766 c 0
 319 764 313 764 307 764 c 2xc0
 264 764 l 2
 252 764 241 765 239 775 c 1
EndSplineSet
Refer: 84 73 S 1 0 0 1 0 -0 3
AlternateSubs2: "Stilistic set 01 subtable" Iacute.vn
AlternateSubs2: "Latin alternatives subtable" Iacute.vn
Substitution2: "Latin Vietnamese substitutions subtable" Iacute.vn
EndChar

StartChar: Icircumflex
Encoding: 206 206 217
Width: 325
Flags: HW
TeX: 902 0
ItalicCorrection: 132
HStem: 0 21<125 207> 674 20<264 347>
VStem: 100 144<4.25634 77.9677> 228 145<615.089 690.148>
AnchorPoint: "below" 162 0 basechar 0
AnchorPoint: "above" 357 916 basechar 0
LayerCount: 2
Fore
SplineSet
149 748 m 0
 149 757 147 753 290 900 c 0
 303 913 307 914 318 914 c 2
 394 914 l 2
 409 914 409 907 487 766 c 0
 492 756 493 753 493 748 c 0
 493 737 484 736 475 735 c 1
 442 735 l 1
 424 736 430 734 341 834 c 1
 212 735 218 735 198 735 c 2xc0
 173 735 l 2
 165 735 149 735 149 748 c 0
EndSplineSet
Refer: 84 73 S 1 0 0 1 -0 0 3
EndChar

StartChar: Idieresis
Encoding: 207 207 218
Width: 325
Flags: HW
TeX: 902 0
ItalicCorrection: 132
HStem: 0 21<125 207> 674 20<264 347> 760 142<386.081 504.714> 760 143<173.716 289.432>
VStem: 100 144<4.25634 77.9677> 155 156<777.652 888.097> 228 145<615.089 690.148> 368 155<774.25 886.813> 368 144<763.802 864.482>
AnchorPoint: "below" 162 0 basechar 0
AnchorPoint: "above" 354 905 basechar 0
LayerCount: 2
Fore
SplineSet
368 796 m 0
 368 805 381 872 387 883 c 0
 398 902 415 901 428 902 c 1
 479 902 l 2
 514 902 523 883 523 865 c 0xe1
 523 854 519 840 512 805 c 0
 502 760 490 761 464 760 c 1xe080
 412 760 l 2
 372 760 368 786 368 796 c 0
EndSplineSet
Refer: 22 729 S 1 0 0 1 -73 180 2
Refer: 84 73 S 1 0 0 1 0 0 3
EndChar

StartChar: Eth
Encoding: 208 208 219
Width: 794
Flags: HW
TeX: 694 0
ItalicCorrection: 72
HStem: 0 86<250 506.23> 305 72<39.2832 156 312 501.951> 608 86<361 606.159>
VStem: 680 139<310.668 537.673>
DStem2: 91.1702 0 231.72 0 0.207912 0.978148<117.882 311.814 414.675 650.815>
LayerCount: 2
Fore
SplineSet
36 341 m 0
 36 350 41 377 80 377 c 2
 171 377 l 1
 229 650 l 2
 236 681 241 694 278 694 c 2
 544 694 l 2
 615 694 819 688 819 459 c 0
 819 375 791 219 702 120 c 0
 620 29 516 0 376 0 c 2
 144 0 l 2
 106 0 100 24 100 34 c 0
 100 55 114 108 156 305 c 1
 92 305 l 2
 88 305 84 304 80 304 c 0
 41 304 36 331 36 341 c 0
250 86 m 1
 360 86 l 2
 367 86 373 87 426 89 c 1
 589 105 638 212 665 338 c 0
 671 365 680 411 680 453 c 0
 680 603 557 608 475 608 c 2
 361 608 l 1
 312 377 l 1
 453 377 l 2
 460 377 468 377 475 376 c 0
 489 373 505 361 505 341 c 0
 505 331 500 306 461 305 c 1
 296 305 l 1
 250 86 l 1
EndSplineSet
EndChar

StartChar: Ntilde
Encoding: 209 209 220
Width: 794
Flags: HW
TeX: 902 0
ItalicCorrection: 86
HStem: 0 21<124 197.5 537 685> 674 20<264.5 401.5 744 815.5> 735 73<605.699 670.966> 829 73<469.497 535.164>
VStem: 100 126<5.93262 84.982> 373 68<735 797.562> 694 74<832.483 902.98>
DStem2: 90.5629 0 214.78 0 0.207912 0.978148<37.4513 613.672> 442 639 337 575 0.294976 -0.955505<30.1798 543.398> 577.493 0 702.01 0 0.207912 0.978148<122.681 698.085>
LayerCount: 2
Fore
SplineSet
373 750 m 0
 373 772 416 902 511 902 c 0
 591 902 594 808 639 808 c 0
 675 808 690 870 694 885 c 0
 697 897 701 903 717 903 c 2
 746 903 l 2
 766 903 767 896 768 887 c 1
 767 865 724 735 629 735 c 0
 551 735 547 829 502 829 c 0
 461 829 448 755 441 739 c 1
 433 736 433 735 420 735 c 2
 392 735 l 2
 381 735 373 738 373 750 c 0
EndSplineSet
Refer: 89 78 S 1 0 0 1 -0 0 3
EndChar

StartChar: Ograve
Encoding: 210 210 221
Width: 794
Flags: HW
TeX: 863 0
ItalicCorrection: 72
HStem: -22 81<325.521 500.111> 638 78<435.888 620.088> 764 114<566.066 615.25> 774 104<544.519 615.035>
VStem: 118 142<123 369.255> 683 137<339.124 573.733>
AnchorPoint: "below" 395 0 basechar 0
AnchorPoint: "above" 580 858 basechar 0
LayerCount: 2
Fore
SplineSet
415 867 m 0
 415 879 429 877 442 878 c 1xdc
 579 878 l 2
 595 878 593 876 685 792 c 1
 693 783 l 1
 694 780 l 1
 695 775 l 1
 693 769 691 764 676 764 c 2xec
 626 764 l 2xec
 612 764 610 765 590 774 c 0
 411 858 423 851 416 861 c 0
 415 864 415 866 415 867 c 0
EndSplineSet
Refer: 90 79 S 1 0 0 1 0 0 3
AlternateSubs2: "Stilistic set 01 subtable" Ograve.vn
AlternateSubs2: "Latin alternatives subtable" Ograve.vn
Substitution2: "Latin Vietnamese substitutions subtable" Ograve.vn
EndChar

StartChar: Oacute
Encoding: 211 211 222
Width: 794
Flags: HW
TeX: 863 0
ItalicCorrection: 72
HStem: -22 81<325.521 500.111> 638 78<435.888 620.088>
VStem: 118 142<123 369.255> 683 137<339.124 573.733>
AnchorPoint: "below" 395 0 basechar 0
AnchorPoint: "above" 580 858 basechar 0
LayerCount: 2
Fore
SplineSet
428 775 m 1
 429 787 425 782 555 868 c 0
 570 878 573 878 584 878 c 2
 725 878 l 2
 734 878 745 876 745 865 c 0
 745 853 748 858 535 774 c 0
 512 765 512 764 496 764 c 2
 451 764 l 2
 440 764 430 765 428 775 c 1
EndSplineSet
Refer: 90 79 S 1 0 0 1 0 0 3
AlternateSubs2: "Stilistic set 01 subtable" Oacute.vn
AlternateSubs2: "Latin alternatives subtable" Oacute.vn
Substitution2: "Latin Vietnamese substitutions subtable" Oacute.vn
EndChar

StartChar: Ocircumflex
Encoding: 212 212 223
Width: 794
Flags: HW
TeX: 902 0
ItalicCorrection: 72
HStem: -22 81<325.521 500.111> 638 78<435.888 620.088>
VStem: 118 142<123 369.255> 683 137<339.124 573.733>
AnchorPoint: "below" 395 0 basechar 0
AnchorPoint: "above" 588 894 basechar 0
LayerCount: 2
Fore
SplineSet
383 747 m 0
 383 756 381 752 522 897 c 0
 537 912 537 914 554 914 c 2
 623 914 l 2
 638 914 641 910 647 900 c 0
 726 756 728 755 728 747 c 0
 728 735 718 736 702 735 c 0
 693 735 684 735 675 735 c 0
 659 735 660 738 575 834 c 1
 446 735 452 735 432 735 c 2
 401 735 l 1
 386 736 383 742 383 747 c 0
EndSplineSet
Refer: 90 79 S 1 0 0 1 -0 0 3
AlternateSubs2: "Stilistic set 01 subtable" Ocircumflex.vn
AlternateSubs2: "Latin alternatives subtable" Ocircumflex.vn
Substitution2: "Latin Vietnamese substitutions subtable" Ocircumflex.vn
EndChar

StartChar: Otilde
Encoding: 213 213 224
Width: 794
Flags: HW
TeX: 902 0
ItalicCorrection: 72
HStem: -22 81<325.521 500.111> 638 78<435.888 620.088> 735 73<606.418 671.699> 830 73<473.82 533.844>
VStem: 118 142<123 369.255> 683 137<339.124 573.733> 702 66<843.22 903>
AnchorPoint: "below" 395 0 basechar 0
AnchorPoint: "above" 585 883 basechar 0
LayerCount: 2
Fore
SplineSet
373 750 m 0
 373 776 421 903 510 903 c 0
 592 903 592 808 640 808 c 1
 689 816 689 889 702 899 c 0
 706 902 711 903 716 903 c 2
 750 903 l 2
 760 903 768 900 768 887 c 0xfa
 768 867 726 735 630 735 c 0
 550 735 545 830 503 830 c 0
 492 830 483 824 476 819 c 1
 421 740 472 735 402 735 c 2
 394 735 l 2
 383 735 373 738 373 750 c 0
EndSplineSet
Refer: 90 79 S 1 0 0 1 0 -0 3
AlternateSubs2: "Stilistic set 01 subtable" Otilde.vn
AlternateSubs2: "Latin alternatives subtable" Otilde.vn
Substitution2: "Latin Vietnamese substitutions subtable" Otilde.vn
EndChar

StartChar: Odieresis
Encoding: 214 214 225
Width: 794
Flags: HW
TeX: 902 0
ItalicCorrection: 72
HStem: -22 81<325.521 500.111> 638 78<435.888 620.088> 760 142<405.645 525.284 620.528 736.435>
VStem: 118 142<123 369.255> 388 156<775 887.094> 388 145<764.5 866.621> 602 156<777.607 887.02> 683 137<339.124 573.733>
AnchorPoint: "below" 395 0 basechar 0
AnchorPoint: "above" 585 882 basechar 0
LayerCount: 2
Fore
SplineSet
388 796 m 0
 388 801 400 871 407 883 c 0
 418 902 435 901 448 902 c 1
 500 902 l 2
 541 902 544 875 544 867 c 0xf8
 544 859 542 845 533 805 c 0xf4
 523 760 509 761 484 760 c 1
 432 760 l 2
 391 760 388 788 388 796 c 0
602 797 m 0
 602 808 607 824 613 854 c 0
 623 902 635 902 662 902 c 2
 714 902 l 2
 754 902 758 876 758 866 c 0
 758 862 745 789 737 777 c 0
 725 759 709 761 698 760 c 1xf2
 646 760 l 2
 607 760 602 785 602 797 c 0
EndSplineSet
Refer: 90 79 S 1 0 0 1 -0 0 3
EndChar

StartChar: OE
Encoding: 338 338 226
Width: 1069
Flags: HW
TeX: 694 0
ItalicCorrection: 117
HStem: -22 72<310.62 500.922> -0 107<683 1025.85> 312 95<747 1046.15> 590 104<786 1136.18> 644 72<425.427 618.475>
VStem: 89 142<135.603 376.79>
DStem2: 512.899 -22 655.58 -22 0.207912 0.978148<164.35 370.029 468.298 604.657>
AnchorPoint: "above" 741 716 basechar 0
LayerCount: 2
Fore
SplineSet
89 225 m 0
 89 318 123 483 218 588 c 0
 302 681 422 716 545 716 c 0xac
 629 716 640 694 766 694 c 2
 1096 694 l 2
 1126 694 1129 691 1140 679 c 0
 1145 673 1147 665 1147 657 c 0
 1147 649 1140 619 1135 609 c 0
 1124 590 1107 591 1094 590 c 1x34
 786 593 l 1
 747 407 l 1
 1010 407 l 2
 1025 407 1054 405 1054 369 c 0
 1054 340 1044 312 1005 312 c 2
 727 312 l 1
 726 311 l 1
 683 107 l 1
 996 111 l 1
 1032 110 1038 84 1038 74 c 0
 1038 68 1031 31 1025 20 c 0
 1015 1 997 0 985 -0 c 2
 617 -0 l 2x74
 496 0 474 -22 387 -22 c 0
 238 -22 89 27 89 225 c 0
231 247 m 1
 231 179 239 50 411 50 c 0xac
 511 50 535 84 562 209 c 2
 622 492 l 2
 626 511 633 543 633 572 c 0
 633 629 605 644 537 644 c 0
 306 644 252 436 232 275 c 1
 231 247 l 1
EndSplineSet
EndChar

StartChar: Oslash
Encoding: 216 216 227
Width: 855
Flags: HW
TeX: 746 48
ItalicCorrection: 72
HStem: -22 72<330.226 559.239> 644 72<442.105 671.125>
VStem: 120 122<125.079 364.131> 759 122<322.197 567.054>
DStem2: 202 35 273 -1 0.623973 0.781446<-97.1887 0 105.814 752.686 859.353 958.531>
LayerCount: 2
Fore
SplineSet
120 226 m 0
 120 328 160 504 266 606 c 0
 301 640 391 716 579 716 c 0
 630 716 680 711 729 695 c 1
 787 768 792 780 814 780 c 0
 834 780 855 762 855 741 c 0
 855 724 843 714 799 658 c 1
 832 633 881 581 881 464 c 0
 881 415 871 357 858 307 c 0
 804 103 671 -22 421 -22 c 0
 371 -22 321 -17 273 -1 c 1
 212 -85 201 -86 188 -86 c 0
 167 -86 148 -68 148 -47 c 0
 148 -31 155 -24 202 35 c 1
 168 62 120 111 120 226 c 0
242 220 m 0
 242 171 253 144 268 117 c 1
 673 625 l 1
 633 641 598 644 566 644 c 0
 341 644 288 481 258 337 c 0
 252 309 242 263 242 220 c 0
329 69 m 1
 359 58 388 50 437 50 c 0
 657 50 713 197 745 355 c 0
 750 382 759 429 759 471 c 0
 759 521 748 548 733 575 c 1
 732 575 l 1
 329 69 l 1
EndSplineSet
EndChar

StartChar: Ugrave
Encoding: 217 217 228
Width: 764
Flags: HW
TeX: 863 0
ItalicCorrection: 86
HStem: -22 86<300.901 486.285> 674 20<268.5 334.5 710.5 787.5> 764 114<552.066 600.25> 774 104<530.519 600.163>
VStem: 134 140<90.5176 286.414>
DStem2: 86.0447 -22 230.247 -22 0.207912 0.978148<213.727 723.411> 532.233 -22 667.31 -22 0.207912 0.978148<158.588 722.87>
AnchorPoint: "below" 386 0 basechar 0
AnchorPoint: "above" 568 880 basechar 0
LayerCount: 2
Fore
SplineSet
401 867 m 0
 401 879 415 877 428 878 c 1xd8
 564 878 l 2
 580 878 578 876 670 792 c 1
 678 783 l 1
 680 780 l 1
 680 775 l 1
 678 769 676 764 661 764 c 2xe8
 612 764 l 2xe8
 598 764 596 765 576 774 c 0
 397 858 409 851 402 861 c 0
 401 864 401 866 401 867 c 0
EndSplineSet
Refer: 96 85 S 1 0 0 1 0 0 3
AlternateSubs2: "Stilistic set 01 subtable" Ugrave.vn
AlternateSubs2: "Latin alternatives subtable" Ugrave.vn
Substitution2: "Latin Vietnamese substitutions subtable" Ugrave.vn
EndChar

StartChar: Uacute
Encoding: 218 218 229
Width: 764
Flags: HW
TeX: 863 0
ItalicCorrection: 86
HStem: -22 86<300.901 486.285> 674 20<268.5 334.5 710.5 787.5>
VStem: 134 140<90.5176 286.414>
DStem2: 86.0447 -22 230.247 -22 0.207912 0.978148<213.727 723.411> 532.233 -22 667.31 -22 0.207912 0.978148<158.588 722.87>
AnchorPoint: "below" 386 0 basechar 0
AnchorPoint: "above" 568 880 basechar 0
LayerCount: 2
Fore
SplineSet
459 775 m 1
 460 787 456 782 586 868 c 0
 601 878 604 878 615 878 c 2
 756 878 l 2
 765 878 776 876 776 865 c 0
 776 853 779 858 566 774 c 0
 543 765 543 764 527 764 c 2
 482 764 l 2
 471 764 461 765 459 775 c 1
EndSplineSet
Refer: 96 85 S 1 0 0 1 0 0 3
AlternateSubs2: "Stilistic set 01 subtable" Uacute.vn
AlternateSubs2: "Latin alternatives subtable" Uacute.vn
Substitution2: "Latin Vietnamese substitutions subtable" Uacute.vn
EndChar

StartChar: Ucircumflex
Encoding: 219 219 230
Width: 764
Flags: HW
TeX: 902 0
ItalicCorrection: 86
HStem: -22 86<300.901 486.285> 674 20<268.5 334.5 710.5 787.5>
VStem: 134 140<90.5176 286.414>
DStem2: 86.0447 -22 230.247 -22 0.207912 0.978148<213.727 723.411> 532.233 -22 667.31 -22 0.207912 0.978148<158.588 722.87>
AnchorPoint: "below" 386 0 basechar 0
AnchorPoint: "above" 576 916 basechar 0
LayerCount: 2
Fore
SplineSet
371 747 m 0
 371 757 369 753 509 897 c 0
 524 912 525 914 542 914 c 2
 607 914 l 2
 622 914 625 910 631 900 c 0
 714 757 715 756 715 747 c 0
 715 735 705 736 689 735 c 1
 663 735 l 2
 647 735 648 738 563 834 c 1
 434 735 440 735 420 735 c 2
 389 735 l 2
 380 735 371 737 371 747 c 0
EndSplineSet
Refer: 96 85 S 1 0 0 1 -0 0 3
EndChar

StartChar: Udieresis
Encoding: 220 220 231
Width: 764
Flags: HW
TeX: 902 0
ItalicCorrection: 86
HStem: -22 86<300.901 486.285> 674 20<268.5 334.5 710.5 787.5> 760 142<391.285 508.432 605.517 721.433>
VStem: 134 140<90.5176 286.414> 373 156<776.652 887.097> 587 156<776.653 887.375>
DStem2: 86.0447 -22 230.247 -22 0.207912 0.978148<213.727 723.411> 532.233 -22 667.31 -22 0.207912 0.978148<158.588 722.87>
AnchorPoint: "below" 386 0 basechar 0
AnchorPoint: "above" 573 904 basechar 0
LayerCount: 2
Fore
SplineSet
373 796 m 0
 373 803 386 872 392 883 c 0
 403 902 421 901 434 902 c 1
 451 902 468 902 485 902 c 0
 525 902 529 875 529 866 c 0
 529 861 518 789 509 776 c 0
 497 759 478 760 470 760 c 2
 418 760 l 2
 379 760 373 785 373 796 c 0
587 797 m 0
 587 809 592 824 598 854 c 0
 608 902 619 902 647 902 c 2
 699 902 l 2
 740 902 743 875 743 866 c 0
 743 862 731 789 722 776 c 0
 710 759 692 760 684 760 c 2
 631 760 l 2
 592 760 587 785 587 797 c 0
EndSplineSet
Refer: 96 85 S 1 0 0 1 0 0 3
EndChar

StartChar: Yacute
Encoding: 221 221 232
Width: 733
Flags: HW
TeX: 863 0
ItalicCorrection: 175
HStem: 0 21<331 408.5> 674 20<187 278 752.5 832>
DStem2: 335 665 177 639 0.444233 -0.895911<-40.2373 289.814> 459 403 501 283 0.675084 0.737741<0 412.807>
AnchorPoint: "below" 366 0 basechar 0
AnchorPoint: "above" 553 880 basechar 0
LayerCount: 2
Fore
SplineSet
443 775 m 1
 444 787 441 782 571 868 c 0
 586 878 588 878 599 878 c 2
 740 878 l 2
 749 878 760 876 760 865 c 0
 760 853 764 858 551 774 c 0
 528 765 527 764 511 764 c 2
 467 764 l 2
 456 764 445 765 443 775 c 1
EndSplineSet
Refer: 100 89 S 1 0 0 1 0 0 3
AlternateSubs2: "Stilistic set 01 subtable" Yacute.vn
AlternateSubs2: "Latin alternatives subtable" Yacute.vn
Substitution2: "Latin Vietnamese substitutions subtable" Yacute.vn
EndChar

StartChar: Thorn
Encoding: 222 222 233
Width: 642
Flags: HW
TeX: 694 0
ItalicCorrection: 80
HStem: -0 21G<123 214.5> 180 87<286 466.797> 505 86<354 500.247> 674 20G<257 342.5>
VStem: 531 137<339.405 477.667>
DStem2: 90.5219 -0 228.74 -0 0.207912 0.978148<37.4592 212.758 301.808 545.002 632.865 701.526>
LayerCount: 2
Fore
SplineSet
100 36 m 0
 100 42 101 48 102 54 c 2
 229 654 l 2
 233 673 239 694 275 694 c 2
 323 694 l 2
 362 694 367 670 367 659 c 0
 367 647 362 628 354 591 c 1
 492 591 l 1
 580 589 668 563 668 447 c 0
 668 422 664 403 661 385 c 0
 617 182 451 180 377 180 c 2
 267 180 l 1
 233 18 238 0 191 -0 c 2
 142 -0 l 2
 104 0 100 25 100 36 c 0
286 267 m 1
 373 267 l 2
 456 267 502 293 526 381 c 0
 529 393 531 406 531 419 c 0
 531 503 451 505 409 505 c 2
 336 505 l 1
 286 267 l 1
EndSplineSet
EndChar

StartChar: Germandbls
Encoding: 61699 61699 234
Width: 1222
Flags: HW
TeX: 694 0
ItalicCorrection: 86
HStem: -22 108<214.549 410.033 825.549 1016.93> 613 103<345.2 537.222 956.316 1148.44>
VStem: 164 133<464.381 567.45> 465 131<140.375 256.857> 775 132<464.381 566.66> 1076 131<141.585 256.057>
LayerCount: 2
Fore
SplineSet
62 60 m 1
 62 70 85 126 103 169 c 0
 107 176 110 178 114 178 c 0
 134 178 175 86 323 86 c 0
 451 86 465 182 465 206 c 0
 465 242 440 265 416 275 c 0
 398 283 318 298 287 309 c 0
 227 330 164 383 164 469 c 0
 164 514 187 716 457 716 c 0
 537 716 591 698 637 671 c 0
 642 668 651 664 651 654 c 0
 651 650 651 652 614 556 c 0
 608 542 607 540 600 537 c 1
 570 539 567 613 446 613 c 0
 391 613 332 607 305 545 c 0
 299 532 297 521 297 510 c 0
 297 477 321 456 348 446 c 0
 409 423 510 430 569 340 c 0
 588 311 596 276 596 242 c 0
 596 190 566 -22 304 -22 c 0
 183 -22 69 33 62 60 c 1
673 60 m 1
 673 70 696 126 714 169 c 0
 718 176 721 178 725 178 c 0
 745 178 786 86 934 86 c 0
 1063 86 1076 183 1076 206 c 0
 1076 242 1050 265 1026 275 c 0
 1008 283 929 298 898 309 c 0
 838 330 775 383 775 469 c 0
 775 514 798 716 1068 716 c 0
 1148 716 1202 698 1248 671 c 0
 1253 668 1262 664 1262 654 c 0
 1262 650 1262 652 1225 556 c 0
 1219 542 1218 540 1211 537 c 1
 1181 539 1179 613 1057 613 c 0
 1003 613 943 607 916 546 c 0
 910 533 907 521 907 510 c 0
 907 477 932 456 959 446 c 0
 1020 423 1121 431 1180 340 c 0
 1199 311 1207 277 1207 243 c 0
 1207 194 1179 -22 915 -22 c 0
 794 -22 680 33 673 60 c 1
EndSplineSet
EndChar

StartChar: agrave
Encoding: 224 224 235
Width: 525
Flags: HW
TeX: 666 0
ItalicCorrection: 38
HStem: -11 73<136.5 283.371> 0 21<369 450> 231 60<264.142 376> 404 71<245.629 394.574>
VStem: 56 132<71.1683 170.673> 400 136<291.473 397.392>
AnchorPoint: "below" 264 0 basechar 0
AnchorPoint: "above" 404 658 basechar 0
LayerCount: 2
Fore
SplineSet
310 665 m 0
 311 678 319 679 330 679 c 2
 424 679 l 1
 444 678 437 683 510 555 c 1
 515 545 l 1
 515 541 l 1
 513 531 509 528 497 528 c 2x3c
 462 528 l 2
 448 528 447 534 325 646 c 0
 313 657 310 661 310 665 c 0
EndSplineSet
Refer: 108 97 S 1 0 0 1 0 0 3
AlternateSubs2: "Stilistic set 01 subtable" agrave.vn
AlternateSubs2: "Latin alternatives subtable" agrave.vn
Substitution2: "Latin Vietnamese substitutions subtable" agrave.vn
EndChar

StartChar: acircumflex
Encoding: 226 226 237
Width: 525
Flags: HW
TeX: 666 0
ItalicCorrection: 38
HStem: -11 73<136.5 283.371> -0 21<369 450> 231 60<264.142 376> 404 71<245.629 394.574>
VStem: 56 132<71.1683 170.673> 400 136<291.473 397.392>
AnchorPoint: "below" 264 0 basechar 0
AnchorPoint: "above" 404 656 basechar 0
LayerCount: 2
Fore
SplineSet
204 540 m 0
 204 549 204 547 341 666 c 0
 353 677 356 677 367 677 c 2
 463 677 l 2
 476 677 480 675 488 661 c 0
 550 544 548 547 549 542 c 1
 548 529 538 528 530 528 c 2
 499 528 l 2
 481 528 486 527 393 608 c 1
 276 534 274 527 252 527 c 0x3c
 248 527 243 528 236 528 c 2
 234 528 l 2
 220 528 204 527 204 540 c 0
EndSplineSet
Refer: 108 97 S 1 0 0 1 0 -0 3
AlternateSubs2: "Stilistic set 01 subtable" acircumflex.vn
AlternateSubs2: "Latin alternatives subtable" acircumflex.vn
Substitution2: "Latin Vietnamese substitutions subtable" acircumflex.vn
EndChar

StartChar: adieresis
Encoding: 228 228 239
Width: 525
Flags: HW
TeX: 694 0
ItalicCorrection: 38
HStem: -11 73<136.5 283.371> -0 21<369 450> 231 60<264.142 376> 404 71<245.629 394.574> 552 142<240.541 356.432 454.324 570.432>
VStem: 56 132<71.1683 170.673> 221 157<569.606 677.542> 400 136<291.473 397.392> 435 156<569.606 677.291>
AnchorPoint: "below" 264 0 basechar 0
AnchorPoint: "above" 407 673 basechar 0
LayerCount: 2
Fore
SplineSet
221 588 m 0
 221 595 235 664 241 675 c 0
 252 694 269 693 281 694 c 1
 333 694 l 2
 374 694 378 667 378 658 c 0
 378 653 365 581 357 569 c 0
 345 551 326 552 318 552 c 2
 266 552 l 2
 225 552 221 579 221 588 c 0
435 588 m 0
 435 602 441 620 447 649 c 0
 457 694 471 694 493 694 c 0
 511 694 529 694 547 694 c 0
 587 694 591 669 591 657 c 0
 591 653 579 581 571 569 c 0
 559 551 540 552 532 552 c 2x3e80
 480 552 l 2
 441 552 435 576 435 588 c 0
EndSplineSet
Refer: 108 97 S 1 0 0 1 0 -0 3
EndChar

StartChar: aring
Encoding: 229 229 240
Width: 525
Flags: HW
TeX: 666 0
ItalicCorrection: 38
HStem: -11 73<136.5 283.371> 0 21<369 450> 231 60<264.142 376> 404 71<245.629 394.574> 493 35<325.683 430.263> 631 35<339.205 443.833>
VStem: 56 132<71.1683 170.673> 261 61<531.554 617.19> 400 136<291.473 397.392> 448 61<541.891 627.296>
LayerCount: 2
Fore
SplineSet
261 560 m 0
 261 603 285 666 405 666 c 0
 462 666 509 652 509 599 c 0
 509 556 485 493 364 493 c 0
 307 493 261 507 261 560 c 0
322 561 m 0
 322 529 350 528 372 528 c 0x3f40
 396 528 448 528 448 598 c 0
 448 630 419 631 397 631 c 0
 377 631 322 634 322 561 c 0
EndSplineSet
Refer: 108 97 S 1 0 0 1 -0 0 3
EndChar

StartChar: ae
Encoding: 230 230 241
Width: 794
Flags: HW
TeX: 458 0
ItalicCorrection: 75
HStem: -11 73<125 330.06 524.18 687.043> 193 65<244.099 371> 214 65<527 710.973> 402 73<240.898 394.57 593.076 703.848>
VStem: 54 132<71.2699 153.243> 372 131<98.014 192.07> 714 111<279.717 393.439>
AnchorPoint: "below" 397 0 basechar 0
AnchorPoint: "above" 495 474 basechar 0
LayerCount: 2
Fore
SplineSet
54 101 m 0
 54 226 226 257 383 258 c 1xde
 395 316 400 336 400 356 c 0
 400 401 367 404 345 404 c 0
 234 404 187 338 164 335 c 1
 160 336 153 339 153 351 c 0
 153 359 155 372 160 409 c 0
 162 427 162 430 184 439 c 0
 216 452 271 475 358 475 c 0
 452 475 482 453 503 436 c 1
 504 436 l 1
 555 468 620 475 658 475 c 0
 788 475 825 401 825 324 c 0
 825 289 816 244 813 236 c 0
 803 213 782 214 766 214 c 2
 511 214 l 1xbe
 507 193 503 171 503 150 c 0
 503 99 521 62 590 62 c 0
 696 62 743 127 764 128 c 1
 767 127 774 125 774 113 c 0
 774 106 772 93 768 61 c 0
 766 44 767 42 744 30 c 0
 706 10 646 -11 582 -11 c 0
 482 -11 436 24 414 46 c 1
 339 -2 267 -11 178 -11 c 0
 72 -11 54 63 54 101 c 0
186 112 m 0
 186 93 197 62 242 62 c 0
 316 62 372 103 372 131 c 0
 372 138 370 148 370 169 c 0
 370 177 370 185 371 193 c 1xde
 271 189 186 169 186 112 c 0
527 279 m 1
 707 279 l 1
 711 298 714 317 714 336 c 0xbe
 714 378 701 402 659 402 c 0
 591 402 547 346 527 279 c 1
EndSplineSet
EndChar

StartChar: ccedilla
Encoding: 231 231 242
Width: 489
Flags: HW
TeX: 458 170
ItalicCorrection: 85
HStem: -43 20G<240.5 280.5> -11 78<228.147 388.49> 396 79<290.443 455.485>
VStem: 76 134<85.3217 271.122>
AnchorPoint: "above" 373 474 basechar 0
LayerCount: 2
Fore
SplineSet
76 155 m 0
 76 190 83 218 88 244 c 1
 123 392 215 475 374 475 c 0
 452 475 485 462 531 434 c 1
 536 429 l 1
 539 424 l 1
 539 419 l 1
 538 412 523 375 511 347 c 0
 508 342 505 339 501 339 c 0
 487 339 468 375 431 388 c 0
 409 396 386 396 359 396 c 0
 249 396 232 279 217 208 c 0
 213 189 210 169 210 149 c 0
 210 105 225 67 288 67 c 0
 390 67 441 126 462 131 c 1
 465 131 l 1
 473 128 475 126 475 118 c 0
 475 110 473 94 469 59 c 0
 466 38 463 37 441 27 c 0
 388 2 335 -11 273 -11 c 0
 148 -11 76 43 76 155 c 0
108 -179 m 0
 108 -172 116 -165 136 -141 c 0
 236 -23 231 -23 250 -23 c 2
 278 -23 l 2
 283 -23 301 -23 301 -36 c 0
 301 -46 291 -58 216 -176 c 0
 206 -191 203 -192 190 -192 c 2
 127 -192 l 2
 117 -192 108 -190 108 -179 c 0
EndSplineSet
EndChar

StartChar: egrave
Encoding: 232 232 243
Width: 511
Flags: HW
TeX: 666 0
ItalicCorrection: 75
HStem: -11 73<222.617 397.362> 214 65<221 429.572> 402 73<293.902 417.446>
VStem: 72 125<87.8162 211.252> 432 109<279.78 388.748>
AnchorPoint: "below" 288 0 basechar 0
AnchorPoint: "above" 402 658 basechar 0
LayerCount: 2
Fore
SplineSet
322 665 m 0
 323 678 333 679 342 679 c 2
 436 679 l 1
 456 678 450 683 522 555 c 1
 526 545 l 1
 526 541 l 1
 524 531 520 528 508 528 c 2
 474 528 l 2
 464 528 462 529 447 543 c 0
 322 660 322 657 322 665 c 0
EndSplineSet
Refer: 112 101 S 1 0 0 1 0 0 3
AlternateSubs2: "Stilistic set 01 subtable" egrave.vn
AlternateSubs2: "Latin alternatives subtable" egrave.vn
Substitution2: "Latin Vietnamese substitutions subtable" egrave.vn
EndChar

StartChar: ecircumflex
Encoding: 234 234 245
Width: 511
Flags: HW
TeX: 666 0
ItalicCorrection: 75
HStem: -11 73<222.617 397.362> 214 65<221 429.572> 402 73<293.902 417.446>
VStem: 72 125<87.8162 211.252> 432 109<279.78 388.748>
AnchorPoint: "below" 288 0 basechar 0
AnchorPoint: "above" 402 656 basechar 0
LayerCount: 2
Fore
SplineSet
197 541 m 0
 197 548 203 552 213 561 c 0
 347 677 341 677 361 677 c 2
 434 677 l 2
 451 677 450 673 530 562 c 0
 541 546 542 544 542 540 c 0
 542 527 528 529 517 528 c 1
 491 528 l 2
 474 528 477 528 386 608 c 1
 267 532 263 528 251 528 c 2
 222 528 l 2
 210 528 197 528 197 541 c 0
EndSplineSet
Refer: 112 101 S 1 0 0 1 0 -0 3
AlternateSubs2: "Stilistic set 01 subtable" ecircumflex.vn
AlternateSubs2: "Latin alternatives subtable" ecircumflex.vn
Substitution2: "Latin Vietnamese substitutions subtable" ecircumflex.vn
EndChar

StartChar: edieresis
Encoding: 235 235 246
Width: 511
Flags: HW
TeX: 694 0
ItalicCorrection: 75
HStem: -11 73<222.617 397.362> 214 65<221 429.572> 402 73<293.902 417.446> 552 142<219.798 337.432 435.575 550.432>
VStem: 72 125<87.8162 211.252> 202 156<569.651 679> 416 156<569.606 678.266> 432 109<279.78 388.748>
AnchorPoint: "below" 288 0 basechar 0
AnchorPoint: "above" 405 673 basechar 0
LayerCount: 2
Fore
SplineSet
202 588 m 0
 202 596 215 665 221 675 c 0
 232 694 250 693 262 694 c 1
 314 694 l 2
 355 694 358 666 358 658 c 0
 358 653 346 582 338 569 c 0
 326 551 307 552 299 552 c 2
 246 552 l 2
 205 552 202 579 202 588 c 0
416 589 m 0
 416 601 420 616 427 647 c 0
 437 693 450 694 476 694 c 2
 527 694 l 2
 568 694 572 667 572 658 c 0
 572 653 559 581 551 569 c 0
 539 551 520 552 512 552 c 2xfe
 460 552 l 2
 421 552 416 577 416 589 c 0
EndSplineSet
Refer: 112 101 S 1 0 0 1 0 -0 3
EndChar

StartChar: igrave
Encoding: 236 236 247
Width: 255
Flags: HW
TeX: 666 0
ItalicCorrection: 112
HStem: 0 21<92 165> 438 20<184.5 258>
VStem: 68 135<4.23438 72.9091> 148 135<385.182 454.062>
AnchorPoint: "below" 126 0 basechar 0
AnchorPoint: "above" 270 675 basechar 0
LayerCount: 2
Fore
SplineSet
103 665 m 0
 104 678 114 679 123 679 c 2
 217 679 l 1
 237 678 231 683 303 555 c 1
 307 545 l 1
 307 541 l 1
 305 531 301 528 289 528 c 2xc0
 255 528 l 2
 245 528 243 529 228 543 c 0
 103 660 103 657 103 665 c 0
EndSplineSet
Refer: 36 305 S 1 0 0 1 0 0 3
AlternateSubs2: "Stilistic set 01 subtable" igrave.vn
AlternateSubs2: "Latin alternatives subtable" igrave.vn
Substitution2: "Latin Vietnamese substitutions subtable" igrave.vn
Ligature2: "Latin ligatures excepting Turkic subtable" i gravecomb
EndChar

StartChar: icircumflex
Encoding: 238 238 249
Width: 255
Flags: HW
TeX: 666 0
ItalicCorrection: 112
HStem: 0 21<92 165> 438 20<184.5 258>
VStem: 68 135<4.23438 72.9091> 148 135<385.182 454.062>
AnchorPoint: "below" 126 0 basechar 0
AnchorPoint: "above" 269 673 basechar 0
LayerCount: 2
Fore
SplineSet
70 541 m 0
 70 548 76 553 86 562 c 0
 219 678 213 677 233 677 c 2
 307 677 l 2
 324 677 322 673 403 562 c 0
 411 550 414 547 414 540 c 0
 414 527 401 529 390 528 c 1xc0
 365 528 l 2
 347 528 350 528 259 608 c 1
 133 528 140 528 118 528 c 2
 95 528 l 2
 83 528 70 528 70 541 c 0
EndSplineSet
Refer: 36 305 S 1 0 0 1 0 0 3
Ligature2: "Latin ligatures excepting Turkic subtable" i uni0302
EndChar

StartChar: idieresis
Encoding: 239 239 250
Width: 317
Flags: HW
TeX: 694 0
ItalicCorrection: 112
HStem: 0 21<123 196> 438 20<215.5 289> 552 142<124.818 242.271 337.682 453.433>
VStem: 99 135<4.23438 72.9091> 106 155<566.623 679.346> 179 135<385.182 454.062> 319 156<568.652 678.385>
AnchorPoint: "above" 301 674 basechar 0
LayerCount: 2
Fore
SplineSet
106 590 m 0
 106 599 109 610 117 646 c 0
 127 694 139 694 166 694 c 2
 217 694 l 2
 251 694 261 675 261 656 c 0xea
 261 645 257 632 250 597 c 0
 240 552 227 552 203 552 c 2
 150 552 l 2
 114 552 106 572 106 590 c 0
319 586 m 0
 319 595 322 609 330 646 c 0
 340 694 352 694 379 694 c 2
 431 694 l 2
 471 694 475 667 475 658 c 0
 475 653 463 581 454 568 c 0
 442 551 424 552 416 552 c 2xe2
 364 552 l 2
 321 552 319 584 319 586 c 0
EndSplineSet
Refer: 36 305 S 1 0 0 1 31 0 2
Ligature2: "Latin ligatures excepting Turkic subtable" i uni0308
EndChar

StartChar: eth
Encoding: 240 240 251
Width: 550
Flags: HW
TeX: 720 0
ItalicCorrection: 97
HStem: -11 78<223.11 359.705> 402 73<288.384 424.72> 541 180<297.001 362.789>
VStem: 70 134<86.1011 272.531> 444 144<225.126 381.18>
LayerCount: 2
Fore
SplineSet
70 155 m 0
 70 217 93 313 143 376 c 0
 197 445 278 475 372 475 c 0
 391 475 411 473 430 470 c 1
 411 516 394 538 370 566 c 1
 338 550 322 541 313 541 c 0
 305 541 302 548 297 562 c 0
 282 604 277 616 277 622 c 0
 277 626 278 627 280 631 c 1
 228 651 237 644 229 654 c 1
 227 662 228 661 230 668 c 1
 299 717 302 721 313 721 c 0
 335 721 389 694 397 694 c 0
 411 694 448 721 462 721 c 0
 470 721 473 714 478 701 c 0
 490 668 498 652 498 642 c 0
 498 635 494 631 485 626 c 1
 551 554 588 469 588 365 c 0
 588 319 581 296 572 250 c 0
 555 168 521 -11 274 -11 c 0
 127 -11 70 55 70 155 c 0
204 147 m 0
 204 103 221 67 287 67 c 0
 386 67 420 141 442 290 c 0
 443 303 444 309 444 320 c 0
 444 364 427 402 361 402 c 0
 240 402 226 278 210 199 c 0
 207 183 204 165 204 147 c 0
EndSplineSet
EndChar

StartChar: ntilde
Encoding: 241 241 252
Width: 561
Flags: HW
TeX: 666 0
ItalicCorrection: 46
HStem: -0 21<92.5 179.5 401.5 479.5> 396 68<335.843 478.479> 542 73<434.327 518.778> 593 73<298.619 382.102>
VStem: 149 131<404 459.546> 216 385<557 653> 438 138<249.083 392.372>
DStem2: 58.1596 -0 196.648 -0 0.207912 0.978148<37.2807 387.456 440.671 463.38>
LayerCount: 2
Fore
SplineSet
216 557 m 0
 216 584 262 666 347 666 c 0xd4
 422 666 444 615 481 615 c 0xe4
 518 615 528 656 534 662 c 0
 539 666 545 666 551 666 c 2xd4
 581 666 l 2xd4
 597 666 601 661 601 653 c 0
 601 622 552 542 469 542 c 0xe4
 395 542 372 593 336 593 c 0xd4
 299 593 289 553 283 547 c 0
 278 543 272 542 266 542 c 2
 237 542 l 2xe4
 228 542 216 542 216 557 c 0
EndSplineSet
Refer: 121 110 S 1 0 0 1 0 -0 3
EndChar

StartChar: ograve
Encoding: 242 242 253
Width: 550
Flags: HW
TeX: 666 0
ItalicCorrection: 68
HStem: -11 78<224.029 360.271> 402 72<284.923 423.751>
VStem: 69 135<87.1606 271.833> 445 131<199.42 381.322>
AnchorPoint: "below" 282 0 basechar 0
AnchorPoint: "above" 413 659 basechar 0
LayerCount: 2
Fore
SplineSet
310 665 m 0
 311 678 319 679 330 679 c 2
 424 679 l 1
 444 678 438 683 511 555 c 1
 515 545 l 1
 516 541 l 1
 514 531 509 528 497 528 c 2
 462 528 l 2
 448 528 447 534 325 646 c 0
 313 657 310 661 310 665 c 0
EndSplineSet
Refer: 122 111 S 1 0 0 1 0 0 3
AlternateSubs2: "Stilistic set 01 subtable" ograve.vn
AlternateSubs2: "Latin alternatives subtable" ograve.vn
Substitution2: "Latin Vietnamese substitutions subtable" ograve.vn
EndChar

StartChar: oacute
Encoding: 243 243 254
Width: 550
Flags: HW
TeX: 666 0
ItalicCorrection: 68
HStem: -11 78<224.029 360.271> 402 72<284.923 423.751>
VStem: 69 135<87.1606 271.833> 445 131<199.42 381.322>
AnchorPoint: "below" 282 0 basechar 0
AnchorPoint: "above" 413 659 basechar 0
LayerCount: 2
Fore
SplineSet
324 540 m 0
 324 547 330 553 354 578 c 0
 454 678 448 679 469 679 c 2
 558 679 l 2
 570 679 580 679 582 669 c 1
 582 664 l 1
 580 655 584 660 405 541 c 0
 388 530 386 528 373 528 c 2
 344 528 l 2
 337 528 324 528 324 540 c 0
EndSplineSet
Refer: 122 111 S 1 0 0 1 -0 0 3
AlternateSubs2: "Stilistic set 01 subtable" oacute.vn
AlternateSubs2: "Latin alternatives subtable" oacute.vn
Substitution2: "Latin Vietnamese substitutions subtable" oacute.vn
EndChar

StartChar: odieresis
Encoding: 246 246 257
Width: 550
Flags: HW
TeX: 694 0
ItalicCorrection: 68
HStem: -11 78<224.029 360.271> 402 72<284.923 423.751> 552 142<240.716 356.433 454.517 570.432>
VStem: 69 135<87.1606 271.833> 222 156<569.606 679.097> 436 156<569.606 679.269> 445 131<199.42 381.322>
AnchorPoint: "below" 282 0 basechar 0
AnchorPoint: "above" 417 674 basechar 0
LayerCount: 2
Fore
SplineSet
222 588 m 0
 222 595 235 664 241 675 c 0
 252 694 270 693 282 694 c 1
 334 694 l 2
 375 694 378 667 378 658 c 0
 378 653 365 581 357 569 c 0
 345 551 327 552 319 552 c 2
 266 552 l 2
 225 552 222 579 222 588 c 0
436 588 m 0
 436 602 441 620 447 649 c 0
 457 694 472 694 494 694 c 2
 547 694 l 2
 587 694 592 669 592 657 c 0
 592 653 579 581 571 569 c 0
 559 551 540 552 532 552 c 2xfc
 480 552 l 2
 441 552 436 576 436 588 c 0
EndSplineSet
Refer: 122 111 S 1 0 0 1 -0 -0 3
EndChar

StartChar: oe
Encoding: 339 339 258
Width: 855
Flags: HW
TeX: 458 0
ItalicCorrection: 75
HStem: -11 73<221.72 362.531 586.796 748.323> 214 65<589 771.973> 402 73<286.407 430.72 654.784 764.771>
VStem: 71 128<83.3632 275.951> 775 112<279.717 393.224>
AnchorPoint: "below" 427 0 basechar 0
AnchorPoint: "above" 537 474 basechar 0
LayerCount: 2
Fore
SplineSet
71 159 m 0
 71 194 77 220 82 246 c 1
 121 410 230 475 376 475 c 0
 476 475 517 445 543 420 c 1
 597 463 667 475 720 475 c 0
 829 475 887 421 887 324 c 0
 887 289 877 244 874 236 c 0
 865 214 848 214 829 214 c 2
 572 214 l 1
 568 193 565 172 565 151 c 0
 565 100 582 62 651 62 c 0
 752 62 804 124 823 128 c 1
 826 128 l 1
 829 127 836 125 836 113 c 0
 836 106 834 94 830 61 c 0
 827 41 825 39 805 29 c 0
 747 -1 691 -11 643 -11 c 0
 541 -11 496 25 474 48 c 1
 473 48 l 1
 451 30 394 -11 276 -11 c 0
 172 -11 71 23 71 159 c 0
199 147 m 0
 199 101 216 62 287 62 c 0
 385 62 426 131 450 295 c 0
 451 306 452 311 452 322 c 0
 452 370 430 402 364 402 c 0
 235 402 221 284 204 202 c 0
 201 185 199 166 199 147 c 0
589 279 m 1
 768 279 l 1
 772 298 775 317 775 336 c 0
 775 378 763 402 721 402 c 0
 653 402 609 346 589 279 c 1
EndSplineSet
EndChar

StartChar: oslash
Encoding: 248 248 259
Width: 550
Flags: HW
TeX: 555 97
ItalicCorrection: 33
HStem: -11 73<243.434 372.129> 402 73<277.145 405.25>
VStem: 69 117<117.246 268.364> 459 117<186.997 339.136>
DStem2: 121 29 189 -2 0.613815 0.78945<-152.862 1.99425 111.825 451.147 563.022 716.844>
LayerCount: 2
Fore
SplineSet
33 -97 m 0
 33 -80 39 -76 121 29 c 1
 90 55 69 89 69 152 c 0
 69 244 112 368 198 427 c 0
 249 462 312 475 373 475 c 2
 375 475 l 2
 404 475 432 473 460 465 c 1
 553 584 554 591 576 591 c 0
 596 591 612 574 612 556 c 0
 612 540 614 545 526 431 c 1
 562 399 576 359 576 306 c 0
 576 270 569 242 564 216 c 1
 535 92 458 -11 272 -11 c 0
 244 -11 216 -9 189 -2 c 1
 88 -132 91 -133 69 -133 c 0
 48 -133 33 -116 33 -97 c 0
186 148 m 0
 186 138 187 127 190 117 c 1
 406 395 l 1
 390 399 374 402 358 402 c 0
 230 402 211 286 198 226 c 0
 188 180 186 164 186 148 c 0
243 67 m 1
 258 64 273 62 288 62 c 0
 397 62 426 131 444 213 c 0
 450 243 459 277 459 310 c 0
 459 322 458 325 456 340 c 1
 243 67 l 1
EndSplineSet
EndChar

StartChar: udieresis
Encoding: 252 252 263
Width: 561
Flags: HW
TeX: 694 0
ItalicCorrection: 68
HStem: -11 62<216.06 323.557> 0 21<399.5 481.5> 438 20<177.5 255 478 565.5> 552 142<245.716 361.433 460.575 575.432>
VStem: 80 135<53.4853 191.25> 227 156<569.606 679.097> 441 156<569.651 678.535>
DStem2: 55.2035 -11 193.667 -11 0.207912 0.978148<122.925 469.9> 360.301 -11 498.639 -11 0.207912 0.978148<105.033 470.765>
AnchorPoint: "below" 279 0 basechar 0
AnchorPoint: "above" 426 690 basechar 0
LayerCount: 2
Fore
SplineSet
227 588 m 0
 227 595 240 664 246 675 c 0
 257 694 275 693 287 694 c 1
 339 694 l 2
 379 694 383 667 383 657 c 0
 383 653 370 581 362 569 c 0
 350 551 332 552 324 552 c 2
 271 552 l 2
 230 552 227 580 227 588 c 0
441 589 m 0
 441 601 445 615 452 646 c 0
 462 692 473 694 500 694 c 2
 552 694 l 2
 592 694 597 668 597 657 c 0
 597 653 584 582 576 569 c 0
 564 551 545 552 537 552 c 2x3e
 485 552 l 2
 446 552 441 577 441 589 c 0
EndSplineSet
Refer: 128 117 S 1 0 0 1 -0 0 3
EndChar

StartChar: yacute
Encoding: 253 253 264
Width: 500
Flags: HW
TeX: 666 194
ItalicCorrection: 112
HStem: -205 108<10.9961 93.0495> 438 20<143.5 220.5 482 544.5>
AnchorPoint: "below" 209 -195 basechar 0
AnchorPoint: "above" 405 675 basechar 0
LayerCount: 2
Fore
SplineSet
299 540 m 0
 299 547 304 553 328 577 c 0
 429 678 425 679 445 679 c 2
 533 679 l 2
 545 679 556 679 558 669 c 1
 558 664 l 1
 556 655 560 660 381 541 c 0
 364 530 361 528 348 528 c 2
 320 528 l 2
 313 528 299 528 299 540 c 0
EndSplineSet
Refer: 132 121 S 1 0 0 1 -0 -0 3
AlternateSubs2: "Stilistic set 01 subtable" yacute.vn
AlternateSubs2: "Latin alternatives subtable" yacute.vn
Substitution2: "Latin Vietnamese substitutions subtable" yacute.vn
EndChar

StartChar: thorn
Encoding: 254 254 265
Width: 561
Flags: HW
TeX: 720 194
ItalicCorrection: 42
HStem: -195 21G<51.5 144.5> -11 73<231.016 352.793> 391 78<325.635 473> 702 20G<231.5 314>
VStem: 445 137<187.047 368.887>
DStem2: 18.1838 -195 156.6 -195 0.207912 0.978148<38.4827 256.76 312.621 613.513 667.232 928.121>
LayerCount: 2
Fore
SplineSet
27 -158 m 0
 27 -148 30 -139 32 -130 c 2
 204 679 l 2
 208 698 212 722 251 722 c 2
 294 722 l 2
 334 722 340 701 340 686 c 0
 340 674 340 683 287 430 c 1
 329 451 376 469 438 469 c 0
 508 469 583 439 583 319 c 1
 582 294 l 1
 571 198 535 -11 311 -11 c 0
 265 -11 234 2 204 28 c 1
 161 -172 170 -195 119 -195 c 0
 103 -195 86 -195 70 -195 c 0
 33 -195 27 -170 27 -158 c 0
219 98 m 1
 229 84 245 62 285 62 c 0
 421 62 445 255 445 303 c 0
 445 350 430 391 370 391 c 0
 331 391 297 373 273 356 c 1
 219 98 l 1
EndSplineSet
EndChar

StartChar: germandbls
Encoding: 223 223 266
Width: 565
Flags: HW
TeX: 720 0
ItalicCorrection: 92
HStem: -11 79<342.076 438.617> -0 21G<104 169> 661 72<348.466 485.896>
VStem: 321 104<264.5 387.318> 455 106<83.7533 206.083> 494 135<512.311 651.665>
DStem2: 57.3336 -11 192.884 -11 0.207912 0.978148<48.7203 691.67>
LayerCount: 2
Fore
SplineSet
69 36 m 0
 69 43 70 51 72 58 c 2
 179 563 l 1
 199 649 236 733 428 733 c 0
 541 733 629 715 629 612 c 0x74
 629 578 612 485 560 438 c 0
 516 398 464 405 453 399 c 0
 431 387 425 328 425 318 c 0
 425 300 440 300 475 293 c 1
 523 280 561 238 561 174 c 0
 561 134 542 63 498 26 c 0
 464 -3 417 -11 382 -11 c 0
 312 -11 266 31 266 47 c 0
 266 55 271 67 294 126 c 0
 298 134 301 144 311 144 c 0
 331 144 318 68 392 68 c 0
 448 68 455 124 455 138 c 0xb8
 455 182 414 177 386 187 c 0
 349 200 321 236 321 293 c 0
 321 334 339 409 384 445 c 0
 407 463 433 473 469 475 c 1
 486 566 494 599 494 617 c 0
 494 652 464 661 426 661 c 0
 328 661 324 610 312 554 c 2
 205 46 l 2
 196 2 182 0 156 -0 c 0x74
 143 0 130 0 117 -0 c 0
 91 0 87 1 74 16 c 1
 70 23 69 28 69 36 c 0
EndSplineSet
EndChar

StartChar: grave.uc
Encoding: 65542 -1 267
Width: 550
Flags: HW
TeX: 630 0
HStem: 528 114<347.691 396.848> 611 31<197.559 247.796>
VStem: 197 279
LayerCount: 2
Fore
SplineSet
197 630 m 1
 199 639 206 642 215 642 c 2x60
 358 642 l 2
 377 642 375 640 466 557 c 0
 475 548 475 546 476 543 c 1
 476 538 l 2
 476 536 475 528 458 528 c 0xa0
 440 528 422 528 404 528 c 0xa0
 391 528 387 531 218 611 c 0
 199 620 198 621 197 630 c 1
EndSplineSet
EndChar

StartChar: acute.uc
Encoding: 65543 -1 268
Width: 550
Flags: HW
TeX: 630 0
ItalicCorrection: 73
HStem: 528 114
VStem: 301 317
LayerCount: 2
Fore
SplineSet
301 539 m 1
 302 551 299 546 429 632 c 0
 444 642 446 642 457 642 c 2
 599 642 l 2
 605 642 618 641 618 629 c 0
 618 617 622 621 410 538 c 0
 387 529 385 528 369 528 c 2
 326 528 l 2
 314 528 303 529 301 539 c 1
EndSplineSet
EndChar

StartChar: tilde.uc
Encoding: 65544 -1 269
Width: 550
Flags: HW
TeX: 666 0
ItalicCorrection: 80
HStem: 499 73<433.214 498.102> 593 73<297.8 363.017>
VStem: 201 69<499 562.132> 522 73<595.028 666>
LayerCount: 2
Fore
SplineSet
201 514 m 0
 201 536 245 666 339 666 c 0
 418 666 421 572 466 572 c 0
 502 572 518 633 522 648 c 0
 525 660 528 666 544 666 c 2
 573 666 l 2
 594 666 594 658 595 650 c 1
 594 625 549 499 457 499 c 0
 379 499 375 593 330 593 c 0
 289 593 277 519 270 503 c 1
 262 500 261 499 248 499 c 2
 220 499 l 2
 211 499 201 502 201 514 c 0
EndSplineSet
EndChar

StartChar: dieresis.var
Encoding: 62029 62029 270
Width: 550
Flags: HW
TeX: 666 0
HStem: 524 142<234.541 350.432 448.324 564.432>
VStem: 215 157<541.651 649.542> 429 156<541.606 649.291>
LayerCount: 2
Fore
SplineSet
215 560 m 0
 215 567 229 636 235 647 c 0
 246 666 263 665 275 666 c 1
 327 666 l 2
 368 666 372 639 372 630 c 0
 372 625 359 554 351 541 c 0
 339 523 320 524 312 524 c 2
 260 524 l 2
 219 524 215 551 215 560 c 0
429 561 m 0
 429 573 434 589 441 621 c 0
 451 666 465 666 488 666 c 2
 541 666 l 2
 582 666 585 639 585 630 c 0
 585 625 573 553 565 541 c 0
 553 523 534 524 526 524 c 2
 474 524 l 2
 435 524 429 548 429 561 c 0
EndSplineSet
EndChar

